<svg width="64" height="64" fill="none" xmlns="http://www.w3.org/2000/svg"><path d="M32 54v8L8 55v-8l24 7z" fill="url(#paint0_radial)"/><path d="M56 47v8l-24 7v-8l24-7z" fill="url(#paint1_radial)"/><path opacity=".5" d="M56 47v8l-24 7v-8l24-7z" fill="#44454E" fill-opacity=".85"/><path d="M32 40l24 7-24 7-24-7 24-7z" fill="#7A92E3"/><path d="M33 46h-2V26.375h2V46z" fill="#44454E" fill-opacity=".85"/><path d="M31.741 25.003l4.707 4.707-1.414 1.414-3.293-3.293-3.293 3.293-1.414-1.414 4.707-4.707zM10.582 25l4.707 4.707-1.414 1.414-3.293-3.293-3.293 3.293-1.414-1.414L10.582 25z" fill="#44454E" fill-opacity=".85"/><path d="M9.447 26.756h2v4c0 1.654 1.346 3 3 3h3c2.757 0 5 2.243 5 5v3h-2v-3c0-1.654-1.346-3-3-3h-3c-2.757 0-5-2.243-5-5v-4zM53.615 25l-4.707 4.707 1.414 1.414 3.293-3.293 3.293 3.293 1.414-1.414L53.615 25z" fill="#44454E" fill-opacity=".85"/><path d="M54.75 26.756h-2v4c0 1.654-1.346 3-3 3h-3c-2.757 0-5 2.243-5 5v3h2v-3c0-1.654 1.346-3 3-3h3c2.757 0 5-2.243 5-5v-4z" fill="#44454E" fill-opacity=".85"/><path opacity=".1" d="M45 25V3h10l6 6v16H45z" fill="#1B4FD8"/><path opacity=".1" d="M61 9h-6V3l6 6zM24 25V3h10l6 6v16H24zM3 25V3h10l6 6v16H3z" fill="#1B4FD8"/><path opacity=".1" d="M40 9h-6V3l6 6zM19 9h-6V3l6 6z" fill="#1B4FD8"/><path d="M27 12h10v2H27v-2zm0 4h10v2H27v-2zm0-8h4v2h-4V8zM6 12h10v2H6v-2zm0 4h10v2H6v-2zm0 4h10v2H6v-2zM6 8h4v2H6V8zm42 4h10v2H48v-2zm0 4h10v2H48v-2zm0 4h10v2H48v-2zm0-12h4v2h-4V8zM27 20h2v2h-2v-2zm4 0h2v2h-2v-2zm4 0h2v2h-2v-2z" fill="#44454E" fill-opacity=".85"/><defs><radialGradient id="paint0_radial" cx="0" cy="0" r="1" gradientUnits="userSpaceOnUse" gradientTransform="matrix(24 0 0 55.1488 8 54.51)"><stop stop-color="#0030AE"/><stop offset="1" stop-color="#0081F1"/></radialGradient><radialGradient id="paint1_radial" cx="0" cy="0" r="1" gradientUnits="userSpaceOnUse" gradientTransform="matrix(24 0 0 55.1488 32 54.51)"><stop stop-color="#0030AE"/><stop offset="1" stop-color="#0081F1"/></radialGradient></defs></svg>