<svg width="64" height="64" fill="none" xmlns="http://www.w3.org/2000/svg"><path d="M13.659 15.621l14.006-5.096.684 1.88-14.006 5.096-.684-1.88z" fill="#68607C"/><path d="M34.287 13.71l1.414-1.414 15.997 15.997-1.414 1.414L34.287 13.71zm2.575 16.936l.272-1.981 12.004 1.647-.272 1.981-12.004-1.647zM12.543 20.402l.894-1.788L29.43 26.61l-.895 1.788-15.992-7.996z" fill="#44454E" fill-opacity=".85"/><path d="M13.213 46.745l.897-1.788 14.32 7.175-.896 1.79-14.32-7.177z" fill="#68607C"/><path d="M31 33h2v17h-2V33zm-19.267 6.449l16.85-25.987 1.678 1.088-16.85 25.987-1.678-1.088zM34.634 50.78L50.41 34.273l1.446 1.382L36.08 52.162l-1.446-1.382z" fill="#44454E" fill-opacity=".85"/><path d="M11.696 22.783l1.72-1.022 16.483 27.741-1.72 1.022-16.483-27.741z" fill="#44454E" fill-opacity=".85"/><path d="M17 44c0 1.13-.26 2.19-.74 3.13A6.977 6.977 0 0110 51c-3.87 0-7-3.13-7-7s3.13-7 7-7c1.41 0 2.71.41 3.8 1.12A6.982 6.982 0 0117 44z" fill="#B7CAE5"/><path d="M37.31 49.45A6.903 6.903 0 0139 54c0 3.87-3.13 7-7 7a6.995 6.995 0 01-6.61-9.3c.48-1.41 1.4-2.6 2.6-3.44C29.12 47.46 30.5 47 32 47c2.13 0 4.04.95 5.31 2.45z" fill="#396EC2"/><path d="M54 25c3.87 0 7 3.13 7 7s-3.13 7-7 7a6.87 6.87 0 01-4.83-1.95A6.91 6.91 0 0147 32c0-.32.02-.63.07-.94.2-1.56.92-2.95 1.98-4.01A6.958 6.958 0 0154 25z" fill="#BACCFF"/><path d="M38.93 29.94A6.986 6.986 0 0132 36c-3.87 0-7-3.13-7-7 0-1.13.26-2.19.74-3.13A6.977 6.977 0 0132 22c3.87 0 7 3.13 7 7 0 .32-.02.63-.07.94z" fill="#7A92E3"/><path d="M32 3c3.87 0 7 3.13 7 7 0 1.94-.78 3.68-2.05 4.95A6.958 6.958 0 0132 17c-1.41 0-2.71-.41-3.8-1.12a6.96 6.96 0 01-2.78-3.49c-.27-.74-.42-1.55-.42-2.39 0-3.87 3.13-7 7-7z" fill="#98B1E2"/><path d="M16.58 15.61c.27.74.42 1.55.42 2.39 0 1.13-.26 2.19-.74 3.13-.6 1.2-1.53 2.2-2.68 2.88-1.04.63-2.27.99-3.58.99-3.87 0-7-3.13-7-7s3.13-7 7-7a7 7 0 016.58 4.61z" fill="url(#paint0_radial)"/><defs><radialGradient id="paint0_radial" cx="0" cy="0" r="1" gradientUnits="userSpaceOnUse" gradientTransform="matrix(14 0 0 51.4722 3 18.01)"><stop stop-color="#0030AE"/><stop offset="1" stop-color="#0081F1"/></radialGradient></defs></svg>