<svg width="64" height="64" fill="none" xmlns="http://www.w3.org/2000/svg"><path opacity=".1" d="M2 2h60v60H2V2z" fill="#1B4FD8"/><path opacity=".2" d="M27 40v6c0 1.66-5.37 3-12 3S3 47.66 3 46v-6c0 1.66 5.37 3 12 3s12-1.34 12-3zm0 12v6c0 1.66-5.37 3-12 3S3 59.66 3 58v-6c0 1.66 5.37 3 12 3s12-1.34 12-3z" fill="#1B4FD8"/><path opacity=".2" d="M27 46v6c0 1.66-5.37 3-12 3S3 53.66 3 52v-6c0 1.66 5.37 3 12 3s12-1.34 12-3z" fill="#1B4FD8"/><path d="M15 43c6.627 0 12-1.343 12-3s-5.373-3-12-3-12 1.343-12 3 5.373 3 12 3z" fill="url(#paint0_radial)"/><path opacity=".5" d="M27 43.032c-2.688 2.681-10.556 4.719-20.264 5.141C8.888 48.685 11.793 49 15 49c6.63 0 12-1.34 12-3v-2.968zm0 6c-2.688 2.681-10.556 4.719-20.264 5.141C8.888 54.685 11.793 55 15 55c6.63 0 12-1.34 12-3v-2.968zm0 6c-2.688 2.681-10.556 4.719-20.264 5.141C8.888 60.685 11.793 61 15 61c6.63 0 12-1.34 12-3v-2.968z" fill="#1B4FD8"/><path d="M18.293 15.707L15 12.414l-3.293 3.293-1.414-1.414L15 9.586l4.707 4.707-1.414 1.414z" fill="#44454E" fill-opacity=".85"/><path d="M14 11h2v22h-2V11zm35.707 43.707l-1.414-1.414L51.586 50l-3.293-3.293 1.414-1.414L54.414 50l-4.707 4.707z" fill="#44454E" fill-opacity=".85"/><path d="M31 49h22v2H31v-2zm23-32h-2v-5h-5v-2h7v7z" fill="#44454E" fill-opacity=".85"/><path d="M33.287 29.295l18.998-18.998 1.414 1.414L34.7 30.71l-1.414-1.414z" fill="#44454E" fill-opacity=".85"/><path d="M29 61h2v2h-2v-2z" fill="url(#paint1_radial)"/><path d="M33 61h2v2h-2v-2z" fill="url(#paint2_radial)"/><path d="M37 61h2v2h-2v-2z" fill="url(#paint3_radial)"/><path d="M41 61h2v2h-2v-2z" fill="url(#paint4_radial)"/><path d="M45 61h2v2h-2v-2z" fill="url(#paint5_radial)"/><path d="M49 61h2v2h-2v-2z" fill="url(#paint6_radial)"/><path d="M53 61h2v2h-2v-2z" fill="url(#paint7_radial)"/><path d="M57 61h2v2h-2v-2z" fill="url(#paint8_radial)"/><path d="M61 61h2v2h-2v-2z" fill="url(#paint9_radial)"/><path d="M61 57h2v2h-2v-2z" fill="url(#paint10_radial)"/><path d="M61 53h2v2h-2v-2z" fill="url(#paint11_radial)"/><path d="M61 49h2v2h-2v-2z" fill="url(#paint12_radial)"/><path d="M61 45h2v2h-2v-2z" fill="url(#paint13_radial)"/><path d="M61 41h2v2h-2v-2z" fill="url(#paint14_radial)"/><path d="M61 37h2v2h-2v-2z" fill="url(#paint15_radial)"/><path d="M61 33h2v2h-2v-2z" fill="url(#paint16_radial)"/><path d="M61 29h2v2h-2v-2z" fill="url(#paint17_radial)"/><path d="M61 25h2v2h-2v-2z" fill="url(#paint18_radial)"/><path d="M61 21h2v2h-2v-2z" fill="url(#paint19_radial)"/><path d="M61 17h2v2h-2v-2z" fill="url(#paint20_radial)"/><path d="M61 13h2v2h-2v-2z" fill="url(#paint21_radial)"/><path d="M61 9h2v2h-2V9z" fill="url(#paint22_radial)"/><path d="M61 5h2v2h-2V5z" fill="url(#paint23_radial)"/><path d="M61 1h2v2h-2V1z" fill="url(#paint24_radial)"/><path d="M57 1h2v2h-2V1z" fill="url(#paint25_radial)"/><path d="M53 1h2v2h-2V1z" fill="url(#paint26_radial)"/><path d="M49 1h2v2h-2V1z" fill="url(#paint27_radial)"/><path d="M45 1h2v2h-2V1z" fill="url(#paint28_radial)"/><path d="M41 1h2v2h-2V1z" fill="url(#paint29_radial)"/><path d="M37 1h2v2h-2V1z" fill="url(#paint30_radial)"/><path d="M33 1h2v2h-2V1z" fill="url(#paint31_radial)"/><path d="M29 1h2v2h-2V1z" fill="url(#paint32_radial)"/><path d="M25 1h2v2h-2V1z" fill="url(#paint33_radial)"/><path d="M21 1h2v2h-2V1z" fill="url(#paint34_radial)"/><path d="M17 1h2v2h-2V1z" fill="url(#paint35_radial)"/><path d="M13 1h2v2h-2V1z" fill="url(#paint36_radial)"/><path d="M9 1h2v2H9V1z" fill="url(#paint37_radial)"/><path d="M5 1h2v2H5V1z" fill="url(#paint38_radial)"/><path d="M1 1h2v2H1V1z" fill="url(#paint39_radial)"/><path d="M1 5h2v2H1V5z" fill="url(#paint40_radial)"/><path d="M1 9h2v2H1V9z" fill="url(#paint41_radial)"/><path d="M1 13h2v2H1v-2z" fill="url(#paint42_radial)"/><path d="M1 17h2v2H1v-2z" fill="url(#paint43_radial)"/><path d="M1 21h2v2H1v-2z" fill="url(#paint44_radial)"/><path d="M1 25h2v2H1v-2z" fill="url(#paint45_radial)"/><path d="M1 29h2v2H1v-2z" fill="url(#paint46_radial)"/><path d="M1 33h2v2H1v-2z" fill="url(#paint47_radial)"/><defs><radialGradient id="paint0_radial" cx="0" cy="0" r="1" gradientUnits="userSpaceOnUse" gradientTransform="matrix(24 0 0 22.0595 3 40.004)"><stop stop-color="#0030AE"/><stop offset="1" stop-color="#0081F1"/></radialGradient><radialGradient id="paint1_radial" cx="0" cy="0" r="1" gradientUnits="userSpaceOnUse" gradientTransform="matrix(2 0 0 7.35318 29 62.001)"><stop stop-color="#0030AE"/><stop offset="1" stop-color="#0081F1"/></radialGradient><radialGradient id="paint2_radial" cx="0" cy="0" r="1" gradientUnits="userSpaceOnUse" gradientTransform="matrix(2 0 0 7.35318 33 62.001)"><stop stop-color="#0030AE"/><stop offset="1" stop-color="#0081F1"/></radialGradient><radialGradient id="paint3_radial" cx="0" cy="0" r="1" gradientUnits="userSpaceOnUse" gradientTransform="matrix(2 0 0 7.35318 37 62.001)"><stop stop-color="#0030AE"/><stop offset="1" stop-color="#0081F1"/></radialGradient><radialGradient id="paint4_radial" cx="0" cy="0" r="1" gradientUnits="userSpaceOnUse" gradientTransform="matrix(2 0 0 7.35318 41 62.001)"><stop stop-color="#0030AE"/><stop offset="1" stop-color="#0081F1"/></radialGradient><radialGradient id="paint5_radial" cx="0" cy="0" r="1" gradientUnits="userSpaceOnUse" gradientTransform="matrix(2 0 0 7.35318 45 62.001)"><stop stop-color="#0030AE"/><stop offset="1" stop-color="#0081F1"/></radialGradient><radialGradient id="paint6_radial" cx="0" cy="0" r="1" gradientUnits="userSpaceOnUse" gradientTransform="matrix(2 0 0 7.35318 49 62.001)"><stop stop-color="#0030AE"/><stop offset="1" stop-color="#0081F1"/></radialGradient><radialGradient id="paint7_radial" cx="0" cy="0" r="1" gradientUnits="userSpaceOnUse" gradientTransform="matrix(2 0 0 7.35318 53 62.001)"><stop stop-color="#0030AE"/><stop offset="1" stop-color="#0081F1"/></radialGradient><radialGradient id="paint8_radial" cx="0" cy="0" r="1" gradientUnits="userSpaceOnUse" gradientTransform="matrix(2 0 0 7.35318 57 62.001)"><stop stop-color="#0030AE"/><stop offset="1" stop-color="#0081F1"/></radialGradient><radialGradient id="paint9_radial" cx="0" cy="0" r="1" gradientUnits="userSpaceOnUse" gradientTransform="matrix(2 0 0 7.35318 61 62.001)"><stop stop-color="#0030AE"/><stop offset="1" stop-color="#0081F1"/></radialGradient><radialGradient id="paint10_radial" cx="0" cy="0" r="1" gradientUnits="userSpaceOnUse" gradientTransform="matrix(2 0 0 7.35318 61 58.001)"><stop stop-color="#0030AE"/><stop offset="1" stop-color="#0081F1"/></radialGradient><radialGradient id="paint11_radial" cx="0" cy="0" r="1" gradientUnits="userSpaceOnUse" gradientTransform="matrix(2 0 0 7.35318 61 54.001)"><stop stop-color="#0030AE"/><stop offset="1" stop-color="#0081F1"/></radialGradient><radialGradient id="paint12_radial" cx="0" cy="0" r="1" gradientUnits="userSpaceOnUse" gradientTransform="matrix(2 0 0 7.35318 61 50.001)"><stop stop-color="#0030AE"/><stop offset="1" stop-color="#0081F1"/></radialGradient><radialGradient id="paint13_radial" cx="0" cy="0" r="1" gradientUnits="userSpaceOnUse" gradientTransform="matrix(2 0 0 7.35318 61 46.001)"><stop stop-color="#0030AE"/><stop offset="1" stop-color="#0081F1"/></radialGradient><radialGradient id="paint14_radial" cx="0" cy="0" r="1" gradientUnits="userSpaceOnUse" gradientTransform="matrix(2 0 0 7.35318 61 42.001)"><stop stop-color="#0030AE"/><stop offset="1" stop-color="#0081F1"/></radialGradient><radialGradient id="paint15_radial" cx="0" cy="0" r="1" gradientUnits="userSpaceOnUse" gradientTransform="matrix(2 0 0 7.35318 61 38.001)"><stop stop-color="#0030AE"/><stop offset="1" stop-color="#0081F1"/></radialGradient><radialGradient id="paint16_radial" cx="0" cy="0" r="1" gradientUnits="userSpaceOnUse" gradientTransform="matrix(2 0 0 7.35318 61 34.001)"><stop stop-color="#0030AE"/><stop offset="1" stop-color="#0081F1"/></radialGradient><radialGradient id="paint17_radial" cx="0" cy="0" r="1" gradientUnits="userSpaceOnUse" gradientTransform="matrix(2 0 0 7.35318 61 30.001)"><stop stop-color="#0030AE"/><stop offset="1" stop-color="#0081F1"/></radialGradient><radialGradient id="paint18_radial" cx="0" cy="0" r="1" gradientUnits="userSpaceOnUse" gradientTransform="matrix(2 0 0 7.35318 61 26.001)"><stop stop-color="#0030AE"/><stop offset="1" stop-color="#0081F1"/></radialGradient><radialGradient id="paint19_radial" cx="0" cy="0" r="1" gradientUnits="userSpaceOnUse" gradientTransform="matrix(2 0 0 7.35318 61 22.001)"><stop stop-color="#0030AE"/><stop offset="1" stop-color="#0081F1"/></radialGradient><radialGradient id="paint20_radial" cx="0" cy="0" r="1" gradientUnits="userSpaceOnUse" gradientTransform="matrix(2 0 0 7.35318 61 18.001)"><stop stop-color="#0030AE"/><stop offset="1" stop-color="#0081F1"/></radialGradient><radialGradient id="paint21_radial" cx="0" cy="0" r="1" gradientUnits="userSpaceOnUse" gradientTransform="matrix(2 0 0 7.35318 61 14.001)"><stop stop-color="#0030AE"/><stop offset="1" stop-color="#0081F1"/></radialGradient><radialGradient id="paint22_radial" cx="0" cy="0" r="1" gradientUnits="userSpaceOnUse" gradientTransform="matrix(2 0 0 7.35318 61 10.001)"><stop stop-color="#0030AE"/><stop offset="1" stop-color="#0081F1"/></radialGradient><radialGradient id="paint23_radial" cx="0" cy="0" r="1" gradientUnits="userSpaceOnUse" gradientTransform="matrix(2 0 0 7.35318 61 6.001)"><stop stop-color="#0030AE"/><stop offset="1" stop-color="#0081F1"/></radialGradient><radialGradient id="paint24_radial" cx="0" cy="0" r="1" gradientUnits="userSpaceOnUse" gradientTransform="matrix(2 0 0 7.35318 61 2.001)"><stop stop-color="#0030AE"/><stop offset="1" stop-color="#0081F1"/></radialGradient><radialGradient id="paint25_radial" cx="0" cy="0" r="1" gradientUnits="userSpaceOnUse" gradientTransform="matrix(2 0 0 7.35318 57 2.001)"><stop stop-color="#0030AE"/><stop offset="1" stop-color="#0081F1"/></radialGradient><radialGradient id="paint26_radial" cx="0" cy="0" r="1" gradientUnits="userSpaceOnUse" gradientTransform="matrix(2 0 0 7.35318 53 2.001)"><stop stop-color="#0030AE"/><stop offset="1" stop-color="#0081F1"/></radialGradient><radialGradient id="paint27_radial" cx="0" cy="0" r="1" gradientUnits="userSpaceOnUse" gradientTransform="matrix(2 0 0 7.35318 49 2.001)"><stop stop-color="#0030AE"/><stop offset="1" stop-color="#0081F1"/></radialGradient><radialGradient id="paint28_radial" cx="0" cy="0" r="1" gradientUnits="userSpaceOnUse" gradientTransform="matrix(2 0 0 7.35318 45 2.001)"><stop stop-color="#0030AE"/><stop offset="1" stop-color="#0081F1"/></radialGradient><radialGradient id="paint29_radial" cx="0" cy="0" r="1" gradientUnits="userSpaceOnUse" gradientTransform="matrix(2 0 0 7.35318 41 2.001)"><stop stop-color="#0030AE"/><stop offset="1" stop-color="#0081F1"/></radialGradient><radialGradient id="paint30_radial" cx="0" cy="0" r="1" gradientUnits="userSpaceOnUse" gradientTransform="matrix(2 0 0 7.35318 37 2.001)"><stop stop-color="#0030AE"/><stop offset="1" stop-color="#0081F1"/></radialGradient><radialGradient id="paint31_radial" cx="0" cy="0" r="1" gradientUnits="userSpaceOnUse" gradientTransform="matrix(2 0 0 7.35318 33 2.001)"><stop stop-color="#0030AE"/><stop offset="1" stop-color="#0081F1"/></radialGradient><radialGradient id="paint32_radial" cx="0" cy="0" r="1" gradientUnits="userSpaceOnUse" gradientTransform="matrix(2 0 0 7.35318 29 2.001)"><stop stop-color="#0030AE"/><stop offset="1" stop-color="#0081F1"/></radialGradient><radialGradient id="paint33_radial" cx="0" cy="0" r="1" gradientUnits="userSpaceOnUse" gradientTransform="matrix(2 0 0 7.35318 25 2.001)"><stop stop-color="#0030AE"/><stop offset="1" stop-color="#0081F1"/></radialGradient><radialGradient id="paint34_radial" cx="0" cy="0" r="1" gradientUnits="userSpaceOnUse" gradientTransform="matrix(2 0 0 7.35318 21 2.001)"><stop stop-color="#0030AE"/><stop offset="1" stop-color="#0081F1"/></radialGradient><radialGradient id="paint35_radial" cx="0" cy="0" r="1" gradientUnits="userSpaceOnUse" gradientTransform="matrix(2 0 0 7.35318 17 2.001)"><stop stop-color="#0030AE"/><stop offset="1" stop-color="#0081F1"/></radialGradient><radialGradient id="paint36_radial" cx="0" cy="0" r="1" gradientUnits="userSpaceOnUse" gradientTransform="matrix(2 0 0 7.35318 13 2.001)"><stop stop-color="#0030AE"/><stop offset="1" stop-color="#0081F1"/></radialGradient><radialGradient id="paint37_radial" cx="0" cy="0" r="1" gradientUnits="userSpaceOnUse" gradientTransform="matrix(2 0 0 7.35318 9 2.001)"><stop stop-color="#0030AE"/><stop offset="1" stop-color="#0081F1"/></radialGradient><radialGradient id="paint38_radial" cx="0" cy="0" r="1" gradientUnits="userSpaceOnUse" gradientTransform="matrix(2 0 0 7.35318 5 2.001)"><stop stop-color="#0030AE"/><stop offset="1" stop-color="#0081F1"/></radialGradient><radialGradient id="paint39_radial" cx="0" cy="0" r="1" gradientUnits="userSpaceOnUse" gradientTransform="matrix(2 0 0 7.35318 1 2.001)"><stop stop-color="#0030AE"/><stop offset="1" stop-color="#0081F1"/></radialGradient><radialGradient id="paint40_radial" cx="0" cy="0" r="1" gradientUnits="userSpaceOnUse" gradientTransform="matrix(2 0 0 7.35318 1 6.001)"><stop stop-color="#0030AE"/><stop offset="1" stop-color="#0081F1"/></radialGradient><radialGradient id="paint41_radial" cx="0" cy="0" r="1" gradientUnits="userSpaceOnUse" gradientTransform="matrix(2 0 0 7.35318 1 10.001)"><stop stop-color="#0030AE"/><stop offset="1" stop-color="#0081F1"/></radialGradient><radialGradient id="paint42_radial" cx="0" cy="0" r="1" gradientUnits="userSpaceOnUse" gradientTransform="matrix(2 0 0 7.35318 1 14.001)"><stop stop-color="#0030AE"/><stop offset="1" stop-color="#0081F1"/></radialGradient><radialGradient id="paint43_radial" cx="0" cy="0" r="1" gradientUnits="userSpaceOnUse" gradientTransform="matrix(2 0 0 7.35318 1 18.001)"><stop stop-color="#0030AE"/><stop offset="1" stop-color="#0081F1"/></radialGradient><radialGradient id="paint44_radial" cx="0" cy="0" r="1" gradientUnits="userSpaceOnUse" gradientTransform="matrix(2 0 0 7.35318 1 22.001)"><stop stop-color="#0030AE"/><stop offset="1" stop-color="#0081F1"/></radialGradient><radialGradient id="paint45_radial" cx="0" cy="0" r="1" gradientUnits="userSpaceOnUse" gradientTransform="matrix(2 0 0 7.35318 1 26.001)"><stop stop-color="#0030AE"/><stop offset="1" stop-color="#0081F1"/></radialGradient><radialGradient id="paint46_radial" cx="0" cy="0" r="1" gradientUnits="userSpaceOnUse" gradientTransform="matrix(2 0 0 7.35318 1 30.001)"><stop stop-color="#0030AE"/><stop offset="1" stop-color="#0081F1"/></radialGradient><radialGradient id="paint47_radial" cx="0" cy="0" r="1" gradientUnits="userSpaceOnUse" gradientTransform="matrix(2 0 0 7.35318 1 34.001)"><stop stop-color="#0030AE"/><stop offset="1" stop-color="#0081F1"/></radialGradient></defs></svg>