<svg width="104" height="104" fill="none" xmlns="http://www.w3.org/2000/svg"><path d="M50.375 65h3.25v14.625h-3.25V65z" fill="#68607C"/><path d="M52 100.75c6.282 0 11.375-5.093 11.375-11.375S58.282 78 52 78s-11.375 5.093-11.375 11.375S45.718 100.75 52 100.75z" fill="url(#paint0_radial)"/><path d="M91 21.125h-3.25v8.125H65V19.5h-3.25v9.75H40.625V19.5h-3.25v9.75h-22.75V19.5h-3.25v13h39v9.75h3.25V32.5H91V21.125z" fill="#68607C"/><path opacity=".1" d="M99.125 40.625v26H4.875v-26h94.25z" fill="#1B4FD8"/><path d="M92.625 50.375v6.5l-6.5 3.25-6.5-3.25v-6.5l6.5-3.25 6.5 3.25z" fill="#98B1E2"/><path d="M63.375 60.125a6.5 6.5 0 100-13 6.5 6.5 0 000 13z" fill="#7A92E3"/><path d="M34.125 47.125h13v13h-13v-13z" fill="#BACCFF"/><path d="M17.875 47.125l6.5 13h-13l6.5-13z" fill="#98B1E2"/><path d="M97.5 9.75v9.75l-8.125 4.875L81.25 19.5V9.75l8.125-4.875L97.5 9.75z" fill="#6D8EE6"/><path d="M63.375 22.75a8.125 8.125 0 100-16.25 8.125 8.125 0 000 16.25z" fill="#B7CAE5"/><path d="M30.875 6.5h16.25v16.25h-16.25V6.5z" fill="#7A92E3"/><path d="M13 4.875l8.125 17.875H4.875L13 4.875z" fill="#98B1E2"/><path d="M50.375 94.923l-4.399-4.4 2.298-2.297 2.101 2.101 5.351-5.35 2.298 2.297-7.649 7.649z" fill="#fff" fill-opacity=".95"/><defs><radialGradient id="paint0_radial" cx="0" cy="0" r="1" gradientUnits="userSpaceOnUse" gradientTransform="matrix(22.75 0 0 83.6424 40.625 89.39)"><stop stop-color="#0030AE"/><stop offset="1" stop-color="#0081F1"/></radialGradient></defs></svg>