<svg width="104" height="104" fill="none" xmlns="http://www.w3.org/2000/svg"><g clip-path="url(#clip0)"><path opacity=".8" d="M78.194 41.03l-4.012-.306a10.465 10.465 0 00-.818-2.023l2.686-3.034a.825.825 0 00-.034-1.13l-2.686-2.686a.825.825 0 00-1.121-.043l-3.053 2.619a10.47 10.47 0 00-2.009-.852l-.246-4.044a.825.825 0 00-.823-.775h-3.8a.825.825 0 00-.822.763l-.307 4.01c-.761.22-1.488.522-2.168.898l-3.053-2.62a.825.825 0 00-1.12.044l-2.687 2.686a.825.825 0 00-.035 1.13l-2.143 5.363a.825.825 0 00-.761.823v3.799c0 .436.34.797.774.823l4.044.246c.215.705.503 1.377.852 2.01l-2.62 3.053a.826.826 0 00.043 1.12l2.687 2.687a.825.825 0 001.13.034l3.035-2.687c.638.34 1.315.615 2.021.82l.308 4.01c.032.43.39.763.822.763h3.8c.435 0 .796-.34.823-.776l.246-4.043c.65-.199 1.273-.459 1.863-.773l3.034 2.687a.825.825 0 001.13-.035l2.688-2.687a.825.825 0 00.042-1.12l-2.62-3.053c.35-.633.638-1.305.853-2.009l4.044-.246a.826.826 0 00.774-.823v-3.8a.825.825 0 00-.761-.823zm-14.126 6.978a4.364 4.364 0 110-8.73 4.364 4.364 0 010 8.73z" fill="#7899D6"/><path d="M57.615 22.7l-4.053-.31a16.712 16.712 0 00-1.763-4.344l2.726-3.08a1.19 1.19 0 00-.05-1.63L50.6 9.463a1.19 1.19 0 00-1.615-.062l-3.086 2.65a16.704 16.704 0 00-4.32-1.83l-.248-4.103A1.19 1.19 0 0040.144 5h-5.48a1.19 1.19 0 00-1.186 1.099l-.31 4.054a16.736 16.736 0 00-4.575 1.895L25.507 9.4a1.19 1.19 0 00-1.616.062l-3.874 3.875a1.19 1.19 0 00-.05 1.63l2.727 3.079a16.685 16.685 0 00-1.763 4.345l-4.055.31a1.19 1.19 0 00-1.099 1.186v5.478c0 .63.49 1.15 1.118 1.188l4.102.25a16.71 16.71 0 001.83 4.318l-2.648 3.087a1.189 1.189 0 00.06 1.615l3.875 3.875a1.19 1.19 0 001.63.049l3.08-2.727c1.342.78 2.8 1.38 4.344 1.763l.31 4.055a1.19 1.19 0 001.186 1.099h5.48a1.19 1.19 0 001.187-1.118l.249-4.101c1.45-.386 2.82-.962 4.088-1.698l3.08 2.727a1.19 1.19 0 001.63-.05l3.874-3.874a1.19 1.19 0 00.062-1.616l-2.649-3.086c.8-1.33 1.421-2.782 1.83-4.319l4.102-.249a1.19 1.19 0 001.117-1.188v-5.478a1.19 1.19 0 00-1.099-1.187zm-20.37 13.375c-5.304 0-9.605-4.301-9.605-9.607a9.606 9.606 0 1119.211 0c0 5.306-4.3 9.607-9.605 9.607z" fill="#A7C7D3"/><path d="M57.615 22.7l-4.053-.31a16.712 16.712 0 00-1.763-4.344l2.726-3.08a1.19 1.19 0 00-.05-1.63L50.6 9.463a1.19 1.19 0 00-1.615-.062l-3.086 2.65a16.704 16.704 0 00-4.32-1.83l-.248-4.103A1.19 1.19 0 0040.144 5h-5.48a1.19 1.19 0 00-1.186 1.099l-.31 4.054a16.736 16.736 0 00-4.575 1.895L25.507 9.4a1.19 1.19 0 00-1.616.062l-3.874 3.875a1.19 1.19 0 00-.05 1.63l2.727 3.079a16.685 16.685 0 00-1.763 4.345l-4.055.31a1.19 1.19 0 00-1.099 1.186v5.478c0 .63.49 1.15 1.118 1.188l4.102.25a16.71 16.71 0 001.83 4.318l-2.648 3.087a1.189 1.189 0 00.06 1.615l3.875 3.875a1.19 1.19 0 001.63.049l3.08-2.727c1.342.78 2.8 1.38 4.344 1.763l.31 4.055a1.19 1.19 0 001.186 1.099h5.48a1.19 1.19 0 001.187-1.118l.249-4.101c1.45-.386 2.82-.962 4.088-1.698l3.08 2.727a1.19 1.19 0 001.63-.05l3.874-3.874a1.19 1.19 0 00.062-1.616l-2.649-3.086c.8-1.33 1.421-2.782 1.83-4.319l4.102-.249a1.19 1.19 0 001.117-1.188v-5.478a1.19 1.19 0 00-1.099-1.187zm-20.37 13.375c-5.304 0-9.605-4.301-9.605-9.607a9.606 9.606 0 1119.211 0c0 5.306-4.3 9.607-9.605 9.607z" fill="#B7CAE5"/><path d="M24.265 49.273a2.033 2.033 0 01-1.286-.292l-9.295-5.956a3.964 3.964 0 00-5.113.716l-.705.8a6.587 6.587 0 00-1.647 4.303l-.1 12.117 5.797.326 4.806-.468.125-9.357 5.315 2.956c.377.21.81.293 1.238.24l7.78-.957A5.744 5.744 0 0036.223 48l-11.958 1.274z" fill="#7A92E3"/><path d="M32.594 48.386c-.882.893-5.865 5.243-12.402 2.381l-3.019-1.679a1.57 1.57 0 00-2.332 1.351 6.913 6.913 0 01-6.819 6.82l-1.873.025-.03 3.677 10.603-.143.125-9.356 5.315 2.956c.377.21.81.293 1.238.241l7.78-.958A5.744 5.744 0 0036.223 48l-3.63.387z" fill="url(#paint0_radial)"/><path d="M16.722 60.818l10.82 11.255a3.107 3.107 0 01.446 3.79l-6.45 15.69h-3.723l3.119-13.882a1.165 1.165 0 00-.14-1.117L6.12 60.96l10.603-.142z" fill="#44454E"/><path d="M6.119 60.96l10.602-.142L6.12 91.554H2.174L6.12 60.96z" fill="#44454E" fill-opacity=".85"/><path opacity=".5" d="M9.016 35.645l-.336 3.549a3.033 3.033 0 002.735 3.304l1.405.133a3.032 3.032 0 003.304-2.734l.336-3.55a3.033 3.033 0 00-2.735-3.304l-1.405-.133a3.033 3.033 0 00-3.304 2.735z" fill="#B7CAE5"/><path d="M7.724 98.333H1.555a1.555 1.555 0 010-3.112h6.17a1.556 1.556 0 010 3.112zm15.7 0h-6.17a1.555 1.555 0 010-3.112h6.17a1.556 1.556 0 010 3.112z" fill="#44454E"/><path d="M95.3 47.083L75.427 36.29a7.32 7.32 0 003.256 8.196l10 6.076-.193 12.367 5.382 2.611 4.302 1.358V51.919a5.501 5.501 0 00-2.876-4.836z" fill="#7A92E3"/><path d="M85.66 48.725a5.725 5.725 0 00-2.75-4.982l-7.198-4.373a7.41 7.41 0 01-.501-.333 7.32 7.32 0 003.474 5.45l6.976 4.238z" fill="url(#paint1_radial)"/><path d="M95.298 47.082l-.095-.051v7.563c0 3.43-3.478 5.763-6.65 4.462l-.06 3.873 9.683 3.97v-14.98a5.505 5.505 0 00-2.878-4.837z" fill="url(#paint2_radial)"/><path d="M88.492 62.93L79.66 75.208a3.168 3.168 0 00-.58 2.175l1.494 14.386h3.493l.905-11.493a3.162 3.162 0 011.004-2.074l12.202-11.305-9.685-3.969z" fill="#44454E"/><path d="M98.177 66.898L95.442 77.94a2.914 2.914 0 00.249 2.058l6.19 11.772h-3.705L88.668 80.7a3.494 3.494 0 01-.842-2.432l.666-15.34 9.685 3.97z" fill="#44454E" fill-opacity=".85"/><path opacity=".5" d="M93.154 38.504l-1.625 3.173a3.032 3.032 0 001.317 4.082l1.255.644a3.033 3.033 0 004.082-1.317l1.626-3.173a3.033 3.033 0 00-1.317-4.083l-1.256-.643a3.034 3.034 0 00-4.082 1.317z" fill="#B7CAE5"/><path d="M102.445 98.333h-6.17a1.555 1.555 0 110-3.112h6.17a1.556 1.556 0 010 3.112zm-18.149 0h-6.169a1.555 1.555 0 110-3.112h6.17a1.556 1.556 0 010 3.112z" fill="#44454E"/></g><defs><radialGradient id="paint0_radial" cx="0" cy="0" r="1" gradientUnits="userSpaceOnUse" gradientTransform="matrix(30.1045 0 0 47.6526 6.119 54.489)"><stop stop-color="#0030AE"/><stop offset="1" stop-color="#0081F1"/></radialGradient><radialGradient id="paint1_radial" cx="0" cy="0" r="1" gradientUnits="userSpaceOnUse" gradientTransform="matrix(10.4505 0 0 35.6191 75.21 43.887)"><stop stop-color="#0030AE"/><stop offset="1" stop-color="#0081F1"/></radialGradient><radialGradient id="paint2_radial" cx="0" cy="0" r="1" gradientUnits="userSpaceOnUse" gradientTransform="matrix(9.68412 0 0 73.044 88.492 56.978)"><stop stop-color="#0030AE"/><stop offset="1" stop-color="#0081F1"/></radialGradient><clipPath id="clip0"><path d="M0 0h104v104H0V0z" fill="#fff"/></clipPath></defs></svg>