<svg width="64" height="64" fill="none" xmlns="http://www.w3.org/2000/svg"><path opacity=".1" d="M9 39h46l7 23H2l7-23z" fill="#1B4FD8"/><path d="M55 2c3.31 0 6 2.03 6 7 0 4.97-6 11-6 11s-6-6.03-6-11 2.69-7 6-7z" fill="url(#paint0_radial)"/><path d="M55 11a3 3 0 100-6 3 3 0 000 6z" fill="#B7CAE5"/><path d="M47.16 50l-1.681-1.08 1.13-1.771 1.69 1.08L47.16 50zm2.159-3.36l-1.68-1.09 1.141-1.76 1.68 1.08-1.141 1.77zm2.171-3.37l-1.69-1.08 1.14-1.77 1.681 1.09-1.131 1.76zm2.159-3.36l-1.68-1.091 1.13-1.76 1.69 1.08-1.14 1.771zM56 27.96h-2v-2h2v2zm0 4h-2v-2h2v2zm0 4h-2v-2h2v2z" fill="#44454E" fill-opacity=".85"/><path d="M49.755 52.628l8.866-1.73-.585-1.923-40.705 7.942-5.541-5.541 16.343-6.355 6.682 6.079 1.346-1.479L24.486 39h-2.972l4.967 4.518-16.235 6.314-3.483-3.483-.66 2.168L19.586 62h2.828l-3.378-3.378 13.487-2.632L37.531 62h2.605l-5.373-6.447 12.792-2.496L54.511 62h2.533l-7.289-9.372z" fill="#fff" fill-opacity=".95"/><path d="M16 4c7.18 0 13 3.95 13 15 0 6.91-5.08 14.95-8.89 20-2.28 3.04-4.11 5-4.11 5s-1.83-1.96-4.11-5C8.08 33.95 3 25.91 3 19 3 7.95 8.82 4 16 4z" fill="url(#paint1_radial)"/><path d="M7 17a9 9 0 1118.001.001A9 9 0 017 17z" fill="#B7CAE5"/><path d="M23 14.35l-3.5 3.58.83 5.07L16 20.61 11.67 23l.83-5.07L9 14.35l4.84-.74L16 9l2.16 4.61 4.84.74z" fill="url(#paint2_radial)"/><path d="M42.19 39c.52 1.03.81 2.36.81 4 0 4.97-6 11-6 11s-3.06-3.07-4.81-6.64C31.49 45.93 31 44.42 31 43c0-1.64.29-2.97.81-4 1.04-2.09 2.98-3 5.19-3 2.21 0 4.15.91 5.19 3z" fill="url(#paint3_radial)"/><path d="M37 45a3 3 0 100-6 3 3 0 000 6z" fill="#B7CAE5"/><path d="M54 21.96h2v2h-2v-2z" fill="#68607C"/><defs><radialGradient id="paint0_radial" cx="0" cy="0" r="1" gradientUnits="userSpaceOnUse" gradientTransform="matrix(12 0 0 66.1786 49 11.012)"><stop stop-color="#0030AE"/><stop offset="1" stop-color="#0081F1"/></radialGradient><radialGradient id="paint1_radial" cx="0" cy="0" r="1" gradientUnits="userSpaceOnUse" gradientTransform="matrix(26 0 0 147.064 3 24.027)"><stop stop-color="#0030AE"/><stop offset="1" stop-color="#0081F1"/></radialGradient><radialGradient id="paint2_radial" cx="0" cy="0" r="1" gradientUnits="userSpaceOnUse" gradientTransform="matrix(14 0 0 51.4722 9 16.01)"><stop stop-color="#0030AE"/><stop offset="1" stop-color="#0081F1"/></radialGradient><radialGradient id="paint3_radial" cx="0" cy="0" r="1" gradientUnits="userSpaceOnUse" gradientTransform="matrix(12 0 0 66.1786 31 45.012)"><stop stop-color="#0030AE"/><stop offset="1" stop-color="#0081F1"/></radialGradient></defs></svg>