<svg width="64" height="64" fill="none" xmlns="http://www.w3.org/2000/svg"><path d="M13.659 15.621l14.006-5.096.684 1.88-14.006 5.096-.684-1.88zm20.628-1.911l1.414-1.414 15.997 15.997-1.414 1.414L34.287 13.71zM13.214 46.745l.896-1.788 14.32 7.175-.896 1.79-14.32-7.177zm21.42 4.035L50.41 34.273l1.446 1.382L36.08 52.162l-1.446-1.382zM8.375 24.62l1.997-.12.87 14.433-1.998.12-.87-14.432z" fill="#44454E" fill-opacity=".85"/><path d="M17 44c0 1.13-.26 2.19-.74 3.13A6.977 6.977 0 0110 51c-3.87 0-7-3.13-7-7s3.13-7 7-7c1.41 0 2.71.41 3.8 1.12A6.982 6.982 0 0117 44z" fill="#B7CAE5"/><path d="M37.31 49.45A6.903 6.903 0 0139 54c0 3.87-3.13 7-7 7a6.995 6.995 0 01-6.61-9.3c.48-1.41 1.4-2.6 2.6-3.44C29.12 47.46 30.5 47 32 47c2.13 0 4.04.95 5.31 2.45z" fill="#7A92E3"/><path d="M54 25c3.87 0 7 3.13 7 7s-3.13 7-7 7a6.87 6.87 0 01-4.83-1.95A6.91 6.91 0 0147 32c0-.32.02-.63.07-.94.2-1.56.92-2.95 1.98-4.01A6.958 6.958 0 0154 25z" fill="#98B1E2"/><path d="M32 3c3.87 0 7 3.13 7 7 0 1.94-.78 3.68-2.05 4.95A6.958 6.958 0 0132 17c-1.41 0-2.71-.41-3.8-1.12a6.96 6.96 0 01-2.78-3.49c-.27-.74-.42-1.55-.42-2.39 0-3.87 3.13-7 7-7z" fill="#BACCFF"/><path d="M16.58 15.61c.27.74.42 1.55.42 2.39 0 1.13-.26 2.19-.74 3.13-.6 1.2-1.53 2.2-2.68 2.88-1.04.63-2.27.99-3.58.99-3.87 0-7-3.13-7-7s3.13-7 7-7a7 7 0 016.58 4.61z" fill="url(#paint0_radial)"/><defs><radialGradient id="paint0_radial" cx="0" cy="0" r="1" gradientUnits="userSpaceOnUse" gradientTransform="matrix(14 0 0 51.4722 3 18.01)"><stop stop-color="#0030AE"/><stop offset="1" stop-color="#0081F1"/></radialGradient></defs></svg>