<svg width="4" height="4" viewBox="0 0 4 4" fill="none" xmlns="http://www.w3.org/2000/svg">
<path d="M2.18962 3.99099C1.91224 4.01741 1.63242 3.98556 1.36807 3.89752C1.10371 3.80948 0.860656 3.66718 0.654505 3.47973C0.448355 3.29228 0.283606 3.06383 0.170898 2.80901C0.0581905 2.55419 0 2.27863 0 2C0 1.72137 0.0581905 1.44581 0.170898 1.19099C0.283606 0.936172 0.448355 0.707716 0.654505 0.520268C0.860656 0.332819 1.10371 0.190523 1.36807 0.102483C1.63242 0.0144425 1.91224 -0.0174101 2.18962 0.00900642C2.68499 0.0561835 3.14495 0.286329 3.47972 0.654489C3.81448 1.02265 4 1.5024 4 2C4 2.4976 3.81448 2.97735 3.47972 3.34551C3.14495 3.71367 2.68499 3.94382 2.18962 3.99099Z" fill="white" fill-opacity="0.95"/>
</svg>
