<svg width="1440" height="498" viewBox="0 0 1440 498" fill="none" xmlns="http://www.w3.org/2000/svg">
<path opacity="0.12" d="M199.42 498C331.129 498 432.39 413.306 451.509 288.637H312.01C297.848 341.486 254.653 376.041 199.42 376.041C129.316 376.041 77.6237 322.514 77.6237 249.339C77.6237 176.163 129.316 121.959 199.42 121.959C251.82 121.959 294.307 153.804 311.302 201.91H450.093C429.558 81.9837 329.005 0 199.42 0C48.5908 0 -64 107.053 -64 249.339C-64 390.947 48.5908 498 199.42 498ZM538.912 485.804H677.703V11.5184H538.912V485.804ZM934.257 366.555V11.5184H795.466V485.804H1110.58V366.555H934.257ZM1504 11.5184H1097.54V129.412H1232.08V485.804H1369.46V129.412H1504V11.5184Z" fill="white" fill-opacity="0.95"/>
</svg>
