<svg width="556" height="270" viewBox="0 0 556 270" fill="none" xmlns="http://www.w3.org/2000/svg">
<path opacity="0.1" d="M493.966 156.601C494.133 171.078 493.153 185.545 491.036 199.867C490.896 200.832 490.74 201.798 490.575 202.738C489.54 209.002 488.279 214.839 486.853 220.233C486.601 221.156 486.349 222.069 486.097 222.965C480.61 242.158 472.81 255.155 464.489 259.923H115.107C115.107 259.923 85.3261 234.093 79.3525 197.187C79.1959 196.247 79.0568 195.316 78.9438 194.359C76.6222 175.994 80.3611 155.079 96.4472 133.32C103.786 123.419 113.429 116.52 124.507 111.778C125.376 111.413 126.246 111.056 127.115 110.726C143.54 104.296 162.835 102.278 182.217 101.965C183.191 101.965 184.173 101.965 185.156 101.965C196.694 101.878 208.198 102.356 219.067 102.835C220.102 102.896 221.128 102.93 222.145 102.974C239.762 103.722 255.639 104.262 267.16 102.147C268.221 101.956 269.23 101.73 270.212 101.478C282.968 98.3542 289.255 91.1071 284.733 75.534C275.968 45.3099 284.942 23.1683 304.48 10.936C305.471 10.3009 306.506 9.70057 307.558 9.12637C318.662 3.09722 332.626 0 348.417 0C349.521 0 350.643 0 351.782 0.0522004C366.531 0.657741 381.116 3.39169 395.084 8.16936C403.002 10.7874 410.665 14.1217 417.978 18.1309C418.848 18.6007 419.717 19.0966 420.587 19.6012C433.94 27.3481 445.847 37.3569 455.776 49.1815C456.437 49.9384 457.063 50.7127 457.689 51.4957C482.766 82.4331 493.714 122.401 493.966 156.601Z" fill="#1B4FD8"/>
<path d="M486.853 220.268C486.601 221.19 486.349 222.104 486.097 223C480.533 221.008 475.132 218.588 469.941 215.762C444.316 201.842 411.683 170.826 401.806 102.061C397.554 72.4194 402.979 44.1877 417.979 18.1223C418.848 18.5921 419.718 19.088 420.587 19.5926C407.397 42.4651 399.98 69.792 404.579 101.669C414.292 169.208 446.134 199.623 471.141 213.239C476.187 215.988 481.441 218.339 486.853 220.268Z" fill="white"/>
<path d="M491.036 199.901C490.896 200.867 490.74 201.833 490.575 202.772C474.393 195.169 453.994 178.621 444.49 142.742C435.291 107.942 438.96 77.0827 455.794 49.199C456.455 49.9559 457.081 50.7302 457.707 51.5132C441.734 78.5269 438.334 108.403 447.273 141.994C456.29 176.35 475.567 192.402 491.036 199.901Z" fill="white"/>
<path d="M338.243 58.7167C339.599 104.357 334.408 133.842 321.4 154.357C307.775 175.846 285.046 188.835 247.708 196.465C240.939 197.878 234.042 198.598 227.127 198.614C206.111 198.614 186.312 191.758 168.965 178.369C148.783 162.778 133.314 139.297 124.48 111.813C125.35 111.448 126.219 111.091 127.089 110.761C135.784 137.783 150.905 160.873 170.695 176.15C192.929 193.342 219.388 199.414 247.152 193.733C316.6 179.517 338.052 146.753 335.452 58.795C334.765 33.8345 339.112 14.1376 348.416 0C349.521 0 350.642 0 351.781 0.0522004C342.06 13.7896 337.521 33.4517 338.243 58.7167Z" fill="white"/>
<path d="M251.613 153.165C248.67 153.652 245.692 153.896 242.709 153.896C220.319 153.896 194.686 140.315 182.208 102C183.182 102 184.164 102 185.147 102C198.894 143.134 228.371 154.2 251.152 150.433C281.925 145.387 311.523 113.684 305.802 64.8591C303.332 43.9181 303.193 26.0395 304.541 10.9187C305.532 10.2836 306.567 9.68334 307.619 9.10913C306.089 24.5082 306.036 42.8567 308.584 64.5285C314.506 115.059 283.646 147.901 251.613 153.165Z" fill="white"/>
<path d="M270.264 101.443C269.252 106.555 267.133 111.384 264.056 115.589C259.76 121.227 253.726 124.559 246.126 125.498C245.232 125.609 244.332 125.664 243.431 125.664C238.696 125.663 234.122 123.948 230.553 120.835C225.484 116.572 221.788 109.96 219.102 102.8C220.136 102.861 221.162 102.896 222.18 102.939C224.675 109.273 227.979 115.006 232.362 118.686C234.179 120.278 236.316 121.463 238.628 122.159C240.941 122.855 243.376 123.048 245.77 122.723C252.604 121.853 257.995 118.912 261.83 113.91C264.406 110.386 266.232 106.371 267.195 102.113C268.273 101.921 269.282 101.695 270.264 101.443Z" fill="white"/>
<path d="M161.54 259.958H158.488C145.932 231.187 127.82 212.003 104.577 202.912C96.4964 199.788 88.0001 197.871 79.3613 197.222C79.2048 196.282 79.0657 195.351 78.9526 194.394C88.0947 195.011 97.0913 197.006 105.638 200.31C129.872 209.802 148.688 229.838 161.54 259.958Z" fill="white"/>
<path d="M100.934 173.236L92.2388 182.162L88.6911 176.846L87.4912 175.106C83.6392 176.072 77.9264 168.538 75.6744 164.518C73.4223 160.499 82.5088 154.261 82.5088 154.261C81.0219 149.807 75.057 147.005 74.8918 145.77C74.7266 144.534 76.2048 143.238 81.6219 145.77C87.039 148.301 91.7779 157.332 91.7779 157.332C92.7431 154.722 88.4563 147.623 89.2389 146.822C90.0215 146.022 94.23 147.005 97.4559 153.826C100.682 160.647 98.7775 168.72 98.7775 168.72L98.821 168.79L100.934 173.236Z" fill="#98B2D8"/>
<path d="M82.1611 153.443C82.1611 153.443 88.5868 160.803 87.8999 163.692C87.213 166.58 83.961 163.222 83.961 163.222C83.961 163.222 86.9434 166.702 85.9783 167.807C85.0131 168.912 81.4307 166.067 81.4307 166.067C81.4307 166.067 85.7174 171.409 81.4307 170.626C77.144 169.843 71.7529 161.726 75.8918 160.951C75.8918 160.951 75.3875 155.053 79.1525 157.071C79.1265 157.036 77.4657 152.121 82.1611 153.443Z" fill="#B1C3E8"/>
<path d="M160.279 260.01C160.279 260.01 167.522 238.851 163.713 217.997C163.707 217.951 163.707 217.904 163.713 217.858C163.719 217.8 163.719 217.742 163.713 217.684C163.609 217.145 163.496 216.597 163.383 216.049C160.226 218.72 156.884 221.165 153.383 223.365C146.427 227.715 137.141 232.065 130.019 230.056C116.977 226.315 97.8472 200.876 88.9346 180.787C92.2127 176.416 96.9215 173.337 102.238 172.087C102.238 172.087 119.976 195.734 135.619 201.337C141.588 193.75 146.581 185.443 150.479 176.611C154.653 167.224 160.913 161.282 168.809 158.089C173.572 156.22 178.632 155.224 183.747 155.148L197.459 148.745C199.359 148.796 201.254 148.95 203.137 149.206C209.572 150.076 220.25 152.399 228.893 158.985C242.188 169.129 261.334 260.036 261.334 260.036L160.279 260.01Z" fill="#B7CAE5"/>
<path d="M163.687 217.858C163.574 217.249 163.443 216.649 163.322 216.048C160.165 218.719 156.823 221.164 153.322 223.365L157.383 188.73C161.487 204.59 163.47 216.44 163.687 217.858Z" fill="#97B3D1"/>
<path d="M203.137 149.18C201.024 162.63 187.573 175.054 177.852 174.889C170.026 174.75 168.896 163.579 168.809 158.063C173.571 156.194 178.632 155.198 183.747 155.122L197.459 148.719C199.359 148.77 201.254 148.924 203.137 149.18Z" fill="#CED9EA"/>
<path d="M179.877 246.264C179.877 246.264 210.754 214.126 212.049 180.326L221.197 208.802L217.718 238.46L179.877 246.264Z" fill="#97B3D1"/>
<path d="M178.982 260.001H144.418C144.541 258.512 145.132 257.1 146.107 255.969C147.082 254.837 148.39 254.043 149.844 253.703C155.183 252.119 158.592 245.472 174.608 246.342L178.982 260.001Z" fill="#98B2D8"/>
<path d="M214.346 228.22C214.346 228.22 198.068 237.59 172.426 244.245C172.426 244.245 168.861 252.824 175.104 260.001H224.719L214.346 228.22Z" fill="#B6C5DD"/>
<path d="M153.714 129.988C153.714 129.988 146.34 119.808 147.244 112.953C148.149 106.097 154.496 107.733 154.496 107.733C154.496 107.733 154.201 91.0722 169.608 95.3352C169.608 95.3352 169.269 90.2457 172.634 90.3849C175.999 90.5241 181.277 98.2149 181.277 98.2149C181.277 98.2149 182.59 92.4729 184.868 93.8649C187.147 95.2569 187.851 101.138 192.607 103.992C197.363 106.845 200.311 110.526 196.572 122.088C192.833 133.65 195.642 134.459 194.303 140.358C193.042 145.996 192.025 149.424 188.529 149.737C185.034 150.05 171.652 135.93 171.652 135.93L153.714 129.988Z" fill="#5D7CA0"/>
<path d="M197.46 148.719C197.46 148.719 188.878 169.555 179.861 167.981C175.374 167.198 174.383 164.501 174.339 161.299C174.296 157.166 175.904 152.321 173.47 150.285L184.278 134.92L186.66 131.527C189.183 137.869 192.843 143.695 197.46 148.719Z" fill="#98B2D8"/>
<path d="M174.339 161.299C174.296 157.167 175.904 152.321 173.47 150.285L184.278 134.921C185.208 135.999 185.86 137.922 186.13 140.932C187.556 156.801 179.174 160.49 174.339 161.299Z" fill="#799CBF"/>
<path d="M152.661 121.888C152.661 121.888 155.583 148.719 166.573 154.766C176.086 159.986 187.633 144.134 187.398 136.278C187.398 136.278 191.546 133.111 190.877 127.987C190.207 122.862 184.79 124.559 184.12 132.824C184.12 132.824 179.712 132.511 178.903 122.175C176.138 124.472 173.147 123.767 170.017 120.974C170.017 120.974 168.46 126.725 160.452 120.009C160.382 120.009 157.383 124.115 152.661 121.888Z" fill="#98B2D8"/>
<path d="M410.796 225.854C410.796 225.854 424.926 249.439 429.821 260.88H379.98C377.997 251.7 375.382 242.668 372.155 233.849L410.796 225.854Z" fill="#5D7CA0"/>
<path d="M391.371 231.108C388.641 240.148 384.485 247.865 378.328 253.729L380.015 260.889L319.731 260.132L326.435 218.85L391.371 231.108Z" fill="#799CBF"/>
<path d="M485.931 102.409C485.931 102.409 487.923 89.9066 491.888 85.4696C495.853 81.0326 506.669 74.4727 507.991 76.7695C509.313 79.0664 498.426 86.4266 498.426 86.4266C498.426 86.4266 503.322 85.2608 507.522 92.5166C511.721 99.7725 498.235 105.375 498.235 105.375L495.548 111.465L484.818 104.688L485.931 102.409Z" fill="#799CBF"/>
<path d="M499.808 86.6962C499.808 86.6962 493.722 92.8559 494.643 94.6133C495.565 96.3707 498.861 93.6041 498.861 93.6041C498.861 93.6041 496.139 97.754 498.252 98.8241C500.365 99.8942 503.626 96.3185 503.626 96.3185C503.626 96.3185 500.904 100.086 502.469 100.773C504.034 101.46 512.399 95.5529 510.903 94.1783C509.408 92.8037 508.59 93.926 508.59 93.926C508.59 93.926 510.33 90.9767 508.59 90.0371C508.352 89.892 508.087 89.7978 507.811 89.7606C507.534 89.7233 507.253 89.7437 506.985 89.8206C506.717 89.8974 506.468 90.029 506.254 90.207C506.039 90.385 505.864 90.6056 505.738 90.8549C505.738 90.8549 507.165 88.5929 506.008 87.7141C504.852 86.8354 502.399 87.9665 502.399 87.9665C502.399 87.9665 503.208 84.1906 499.808 86.6962Z" fill="#98B2D8"/>
<path d="M494.192 86.548C492.357 86.026 488.627 89.8454 488.627 89.8454C487.157 91.742 486.888 95.5004 486.792 97.2404C486.61 102.095 484.775 104.67 484.775 104.67L490.218 108.15C494.435 102.713 493.061 95.7527 492.375 93.2906C494.435 90.1673 495.287 86.8612 494.192 86.548Z" fill="#98B2D8"/>
<path d="M497.722 112.727C497.722 112.727 479.515 161.23 450.594 165.527C440.822 167.091 430.919 167.674 421.031 167.268C412.883 166.841 408.857 165.614 408.579 165.527C408.579 165.527 400.64 180.318 405.779 201.581C410.918 222.844 412.779 227.254 412.779 227.254C412.779 227.254 373.781 255.965 342.07 229.864L313.462 185.311L304.498 171.391C304.498 171.391 312.732 144.334 335.948 126.751C345.593 119.363 356.968 114.571 368.99 112.831C376.482 111.741 384.087 111.671 391.597 112.622C391.597 112.622 397.901 114.406 408.118 118.156C413.64 120.174 420.292 122.767 427.735 125.986C448.951 135.034 454.759 137.748 454.759 137.748C454.759 137.748 477.367 115.415 483.219 101.869C483.254 101.869 494.923 103.052 497.722 112.727Z" fill="#B7CAE5"/>
<path d="M351.686 134.851C351.581 145.717 349.26 156.253 348.207 164.431L366.198 160.786L394.188 188.47C394.188 188.47 397.727 196.587 390.51 197.987C384.858 199.084 358.424 202.764 358.424 202.764C352.338 211.055 349.581 223.748 346.538 236.059L319.705 189.4L351.686 134.851Z" fill="#97B3D1"/>
<path d="M391.545 137.461C379.015 134.277 372.416 123.001 368.938 112.77C376.429 111.68 384.034 111.61 391.545 112.561C391.545 112.561 397.849 114.345 408.066 118.094C409.301 127.073 408.866 141.872 391.545 137.461Z" fill="#CED9EA"/>
<path d="M424.448 147.405C422.828 153.939 421.691 160.584 421.048 167.285C412.901 166.859 408.875 165.632 408.597 165.545C408.597 165.545 415.701 153.356 424.448 147.405Z" fill="#97B3D1"/>
<path d="M385.787 142.153L354.534 146.693C353.607 146.827 352.965 147.688 353.1 148.615L360.005 196.21C360.14 197.137 361 197.78 361.927 197.645L393.18 193.106C394.107 192.971 394.749 192.11 394.615 191.183L387.709 143.588C387.574 142.661 386.714 142.018 385.787 142.153Z" fill="#F2F4F9"/>
<path d="M370.416 162.813L375.198 160.943C375.198 160.943 379.755 148.336 385.415 156.279C385.415 156.279 389.319 153.939 389.206 152.66C389.093 151.381 389.032 149.502 389.032 149.502C389.032 149.502 396.945 151.242 395.18 162.265C393.415 173.288 386.641 171.922 379.989 172.035L371.703 175.306L370.416 162.813Z" fill="#98B2D8"/>
<path d="M373.511 178.221C373.511 178.221 336.244 202.912 320.14 191.001C317.786 189.261 315.554 187.36 313.462 185.311L304.498 171.391C304.498 171.391 312.732 144.334 335.948 126.751C343.643 123.271 351.686 124.55 352.104 131.684C353.086 148.675 338.557 159.124 336.765 166.832L370.172 160.064C370.172 160.064 375.633 165.78 373.511 178.221Z" fill="#C1CFE5"/>
<path d="M417.37 86.7396C417.37 86.7396 422.691 75.3512 420.517 68.7914C418.344 62.2315 412.413 65.0068 412.413 65.0068C412.413 65.0068 409.544 48.5898 395.197 55.6804C395.197 55.6804 394.571 50.6169 391.293 51.3825C388.015 52.1481 384.328 60.7351 384.328 60.7351C384.328 60.7351 381.963 55.3498 379.98 57.1072C377.998 58.8646 378.415 64.8154 374.276 68.5043C370.137 72.1931 367.938 76.3778 373.781 87.0267C379.624 97.6756 377.024 99.0067 379.45 104.583C381.754 109.873 383.398 113.057 386.884 112.709C390.371 112.361 400.849 95.9704 400.849 95.9704L417.37 86.7396Z" fill="#5D7CA0"/>
<path d="M377.885 113.371C377.885 113.371 386.119 133.685 399.075 130.362C403.475 129.222 403.501 124.489 402.953 121.375C402.214 117.303 399.718 112.849 401.736 110.395L388.232 97.3451L385.25 94.4653C383.966 101.163 381.47 107.57 377.885 113.371Z" fill="#98B2D8"/>
<path d="M402.952 121.375C402.213 117.303 399.718 112.848 401.735 110.395L388.231 97.345C387.518 98.5804 387.24 100.581 387.544 103.592C389.118 119.443 398.048 121.488 402.952 121.375Z" fill="#799CBF"/>
<path d="M416.83 78.5877C416.83 78.5877 419.004 105.488 409.396 113.484C401.04 120.444 386.71 107.002 385.458 99.2504C385.458 99.2504 380.797 96.9187 380.511 91.7509C380.224 86.5831 385.867 87.2356 388.058 95.2309C388.058 95.2309 392.327 94.0912 391.188 83.799C394.336 85.5391 397.136 84.2688 399.692 80.9454C399.692 80.9454 402.301 86.296 408.9 78.1875C408.9 78.1875 412.639 81.6501 416.83 78.5877Z" fill="#98B2D8"/>
<path d="M348.46 245.133C348.085 246.715 347.5 248.239 346.721 249.666C339.965 262.029 310.671 260.001 310.671 260.001H243.831C216.163 260.001 205.076 259.314 202.424 250.675C202.276 250.189 202.154 249.695 202.059 249.196C200.19 239.156 209.528 206.47 226.788 184.059C235.623 172.601 244.752 166.563 252.874 163.405C259.081 161.05 265.679 159.896 272.316 160.003C280.803 160.003 287.655 160.629 293.463 161.995C309.062 165.649 317.218 174.471 329.461 190.123C344.443 209.254 351.808 231.709 348.46 245.133Z" fill="url(#paint0_linear)"/>
<g style="mix-blend-mode:multiply" opacity="0.22">
<path d="M230.875 237.198C238.136 225.775 240.44 209.941 242.431 193.863L248.727 226.558H303.333L313.367 193.863C313.132 209.141 315.228 224.131 322.471 238.46C322.471 238.46 286.768 278.889 230.875 237.198Z" fill="#1F395E"/>
</g>
<path d="M247.457 260.01H243.831C216.163 260.01 205.076 259.323 202.424 250.684C200.981 243.889 202.815 236.763 211.119 234.615C224.084 231.274 246.657 244.419 246.657 244.419L247.457 260.01Z" fill="url(#paint1_linear)"/>
<path d="M348.46 245.133C348.085 246.715 347.5 248.239 346.721 249.666C339.965 262.029 310.671 260.002 310.671 260.002H290.846L293.367 243.193C293.367 243.193 328.539 226.898 341.139 231.979C347.304 234.467 349.191 239.626 348.46 245.133Z" fill="url(#paint2_linear)"/>
<path d="M293.48 162.004C292.889 169.834 289.646 184.18 273.82 184.18C257.143 184.18 253.613 170.069 252.891 163.413C259.098 161.059 265.696 159.904 272.334 160.011C280.855 160.011 287.672 160.638 293.48 162.004Z" fill="#1F395E"/>
<path d="M307.889 260.001H243.831C243.463 260.001 243.099 259.929 242.76 259.788C242.42 259.647 242.111 259.441 241.851 259.181C241.591 258.921 241.385 258.612 241.244 258.272C241.104 257.932 241.031 257.568 241.031 257.2C241.031 256.457 241.326 255.744 241.851 255.219C242.376 254.694 243.089 254.398 243.831 254.398H307.889C308.631 254.398 309.343 254.694 309.868 255.219C310.394 255.744 310.688 256.457 310.688 257.2C310.688 257.568 310.616 257.932 310.475 258.272C310.335 258.612 310.128 258.921 309.868 259.181C309.608 259.441 309.3 259.647 308.96 259.788C308.62 259.929 308.256 260.001 307.889 260.001Z" fill="white"/>
<path d="M315.636 211.82L315.401 213.273L308.758 254.39H243.466L236.892 211.759C236.821 211.268 236.856 210.768 236.995 210.292C237.133 209.815 237.372 209.374 237.695 208.998C238.017 208.621 238.417 208.318 238.866 208.109C239.316 207.899 239.805 207.788 240.3 207.783H312.245C312.745 207.79 313.238 207.903 313.69 208.118C314.142 208.332 314.543 208.641 314.865 209.024C315.187 209.407 315.422 209.855 315.555 210.338C315.688 210.821 315.716 211.326 315.636 211.82Z" fill="url(#paint3_radial)"/>
<path d="M315.41 213.291L308.767 254.407H243.831L265.839 252.11C276.913 250.957 287.438 246.702 296.206 239.836C304.974 232.97 311.63 223.77 315.41 213.291Z" fill="#1B4FD8"/>
<path d="M273.551 178.221H273.125C270.957 178.248 268.809 177.815 266.821 176.95C264.813 176.003 263.126 174.488 261.968 172.593C260.811 170.697 260.234 168.504 260.308 166.284C260.308 165.823 260.308 165.414 260.308 164.927C260.308 161.186 260.082 158.08 260.082 158.08V156.392L283.603 155.348C283.677 158.306 283.991 161.254 284.542 164.161C284.546 164.196 284.546 164.231 284.542 164.266C284.874 165.922 284.843 167.631 284.45 169.275C284.058 170.918 283.313 172.456 282.268 173.783C281.223 175.11 279.902 176.194 278.397 176.961C276.892 177.727 275.238 178.157 273.551 178.221Z" fill="#FEDFC5"/>
<path d="M284.559 164.161C274.759 175.672 264.69 168.946 260.325 164.927C260.325 161.186 260.099 158.08 260.099 158.08V156.392L283.62 155.348C283.694 158.306 284.008 161.254 284.559 164.161Z" fill="#FFC99C"/>
<path d="M252.901 144.96C252.901 144.96 260.196 165.527 272.36 165.527C284.525 165.527 289.551 143.377 289.551 143.377V124.115H251.97L252.901 144.96Z" fill="#FEDFC5"/>
<path d="M248.987 133.354C248.987 133.354 245.404 134.007 246.013 138.122C246.622 142.237 250.361 147.231 253.395 144.604L248.987 133.354Z" fill="#FEDFC5"/>
<g style="mix-blend-mode:multiply" opacity="0.2">
<path d="M547.667 52.2959H499.878C498.044 52.2959 496.557 53.7838 496.557 55.6193V116.041C496.557 117.877 498.044 119.365 499.878 119.365H547.667C549.501 119.365 550.989 117.877 550.989 116.041V55.6193C550.989 53.7838 549.501 52.2959 547.667 52.2959Z" fill="#B7CAE5"/>
</g>
<path d="M292.42 131.632C292.42 131.632 296.054 131.788 296.011 135.982C295.967 140.175 292.941 145.552 289.576 143.403L292.42 131.632Z" fill="#FEDFC5"/>
<path d="M292.42 131.632C291.709 135.603 290.751 139.526 289.551 143.377C289.551 143.377 286.672 142.794 285.733 135.208C283.777 135.472 281.786 135.169 279.996 134.335C278.207 133.501 276.694 132.17 275.638 130.501C275.638 130.501 274.708 136.339 268.682 132.189C264.674 135.469 259.935 135.808 254.561 133.589C254.561 133.589 255.431 141.245 252.9 144.899C252.9 144.899 251.97 141.872 248.987 133.294C248.571 133.331 248.168 133.458 247.807 133.667C247.445 133.876 247.133 134.161 246.892 134.503C246.892 134.503 240.449 121.888 243.483 115.824C246.518 109.76 250.596 112.083 250.596 112.083C250.596 112.083 249.083 103.792 258.065 100.773C267.047 97.7538 267.047 93.6474 268.447 94.4652C269.847 95.283 270.43 98.3193 270.43 98.3193C270.43 98.3193 285.951 96.6837 290.151 113.379C290.151 113.379 301.359 113.736 294.707 132.519C294.707 132.58 294.272 131.806 292.42 131.632Z" fill="url(#paint4_linear)"/>
<g style="mix-blend-mode:multiply" opacity="0.6">
<path d="M232.457 149.11H173.817C172.895 149.11 172.01 149.477 171.358 150.13C170.705 150.782 170.339 151.667 170.339 152.59V187.608C170.339 188.531 170.705 189.416 171.358 190.069C172.01 190.722 172.895 191.088 173.817 191.088H214.267L224.823 200.441C224.994 200.591 225.211 200.68 225.438 200.695C225.665 200.71 225.891 200.649 226.081 200.522C226.27 200.395 226.412 200.209 226.485 199.993C226.558 199.777 226.557 199.543 226.484 199.327L223.632 191.088H232.457C233.38 191.088 234.265 190.722 234.917 190.069C235.569 189.416 235.935 188.531 235.935 187.608V152.573C235.931 151.653 235.562 150.772 234.911 150.123C234.259 149.475 233.377 149.11 232.457 149.11Z" fill="#9ABCED"/>
</g>
<g style="mix-blend-mode:multiply">
<g style="mix-blend-mode:multiply">
<path d="M192.008 158.481H178.504C178.383 158.482 178.263 158.459 178.15 158.413C178.038 158.367 177.936 158.299 177.85 158.213C177.764 158.127 177.696 158.025 177.65 157.913C177.604 157.8 177.581 157.68 177.583 157.558C177.583 157.314 177.68 157.079 177.853 156.906C178.025 156.733 178.26 156.636 178.504 156.636H192.008C192.252 156.636 192.487 156.733 192.66 156.906C192.832 157.079 192.93 157.314 192.93 157.558C192.931 157.68 192.908 157.8 192.862 157.913C192.816 158.025 192.748 158.127 192.662 158.213C192.576 158.299 192.474 158.367 192.362 158.413C192.25 158.459 192.129 158.482 192.008 158.481Z" fill="#9ABCED"/>
</g>
<g style="mix-blend-mode:multiply">
<path d="M225.327 166.467H186.199C186.077 166.468 185.957 166.445 185.845 166.399C185.732 166.353 185.63 166.285 185.544 166.199C185.458 166.114 185.391 166.011 185.345 165.899C185.299 165.787 185.276 165.666 185.277 165.545C185.277 165.424 185.301 165.305 185.347 165.193C185.394 165.082 185.462 164.981 185.547 164.896C185.633 164.811 185.735 164.744 185.847 164.698C185.958 164.653 186.078 164.63 186.199 164.631H225.327C225.449 164.625 225.57 164.644 225.684 164.688C225.797 164.732 225.9 164.799 225.986 164.885C226.073 164.971 226.14 165.074 226.183 165.188C226.227 165.302 226.246 165.423 226.24 165.545C226.241 165.665 226.218 165.785 226.173 165.897C226.128 166.009 226.061 166.111 225.976 166.196C225.891 166.282 225.79 166.35 225.678 166.397C225.567 166.443 225.448 166.467 225.327 166.467Z" fill="#9ABCED"/>
</g>
<g style="mix-blend-mode:multiply">
<path d="M225.327 172.157H178.503C178.259 172.157 178.024 172.06 177.852 171.887C177.679 171.714 177.582 171.479 177.582 171.235C177.58 171.113 177.603 170.993 177.649 170.88C177.695 170.768 177.763 170.666 177.849 170.58C177.935 170.494 178.037 170.426 178.149 170.38C178.262 170.334 178.382 170.311 178.503 170.313H225.327C225.448 170.313 225.567 170.336 225.678 170.383C225.79 170.429 225.891 170.497 225.976 170.583C226.061 170.669 226.128 170.771 226.173 170.882C226.218 170.994 226.241 171.114 226.24 171.235C226.24 171.478 226.144 171.711 225.973 171.884C225.802 172.056 225.57 172.155 225.327 172.157Z" fill="#9ABCED"/>
</g>
<g style="mix-blend-mode:multiply">
<path d="M225.327 177.838H178.503C178.259 177.838 178.024 177.741 177.852 177.568C177.679 177.395 177.582 177.16 177.582 176.916C177.58 176.794 177.603 176.674 177.649 176.562C177.695 176.449 177.763 176.347 177.849 176.261C177.935 176.175 178.037 176.107 178.149 176.062C178.262 176.016 178.382 175.993 178.503 175.994H225.327C225.448 175.994 225.567 176.018 225.678 176.064C225.79 176.111 225.891 176.179 225.976 176.264C226.061 176.35 226.128 176.452 226.173 176.564C226.218 176.675 226.241 176.795 226.24 176.916C226.24 177.159 226.144 177.392 225.973 177.565C225.802 177.738 225.57 177.836 225.327 177.838Z" fill="#9ABCED"/>
</g>
<g style="mix-blend-mode:multiply">
<path d="M225.327 183.519H178.503C178.382 183.52 178.262 183.497 178.149 183.451C178.037 183.405 177.935 183.338 177.849 183.252C177.763 183.166 177.695 183.064 177.649 182.951C177.603 182.839 177.58 182.718 177.582 182.597C177.582 182.352 177.679 182.118 177.852 181.945C178.024 181.772 178.259 181.675 178.503 181.675H225.327C225.57 181.677 225.802 181.775 225.973 181.948C226.144 182.121 226.24 182.354 226.24 182.597C226.241 182.718 226.218 182.837 226.173 182.949C226.128 183.061 226.061 183.163 225.976 183.249C225.891 183.334 225.79 183.402 225.678 183.449C225.567 183.495 225.448 183.519 225.327 183.519Z" fill="#9ABCED"/>
</g>
</g>
<path opacity="0.2" d="M492.435 260.001H66.7966C65.9562 260.001 65.2749 260.683 65.2749 261.524V267.588C65.2749 268.429 65.9562 269.11 66.7966 269.11H492.435C493.276 269.11 493.957 268.429 493.957 267.588V261.524C493.957 260.683 493.276 260.001 492.435 260.001Z" fill="#1B4FD8"/>
<path d="M387.136 237.512H405.335V253.276C405.335 255.042 404.634 256.734 403.387 257.983C402.139 259.231 400.448 259.932 398.683 259.932H393.779C392.015 259.932 390.323 259.231 389.076 257.983C387.828 256.734 387.127 255.042 387.127 253.276V237.512H387.136Z" fill="url(#paint5_linear)"/>
<path d="M392.91 237.512V232.648C392.91 232.265 393.062 231.898 393.333 231.627C393.603 231.356 393.971 231.204 394.353 231.204H396.197C396.58 231.204 396.947 231.052 397.217 230.781C397.488 230.51 397.64 230.143 397.64 229.76V227.942C397.64 227.559 397.488 227.191 397.217 226.92C396.947 226.649 396.58 226.497 396.197 226.497H390.284C389.318 226.497 388.362 226.307 387.47 225.937C386.578 225.567 385.768 225.025 385.085 224.341C384.403 223.657 383.862 222.846 383.493 221.953C383.125 221.06 382.935 220.103 382.937 219.137C382.937 217.187 383.711 215.317 385.089 213.939C386.466 212.56 388.335 211.786 390.284 211.786H398.11C398.492 211.786 398.86 211.633 399.13 211.363C399.401 211.092 399.553 210.724 399.553 210.341V209.671C399.555 207.652 400.359 205.715 401.787 204.288C403.215 202.861 405.151 202.059 407.17 202.059C409.185 202.063 411.116 202.868 412.539 204.295C413.962 205.722 414.761 207.655 414.761 209.671C414.762 210.753 414.55 211.823 414.137 212.822C413.724 213.821 413.118 214.729 412.354 215.494C411.59 216.258 410.683 216.864 409.684 217.277C408.686 217.691 407.616 217.903 406.535 217.902H392.78C392.397 217.902 392.03 218.054 391.759 218.325C391.488 218.595 391.336 218.963 391.336 219.346C391.336 219.729 391.488 220.096 391.759 220.367C392.03 220.638 392.397 220.79 392.78 220.79H400.31C401.643 220.792 402.922 221.324 403.864 222.269C404.806 223.213 405.335 224.493 405.335 225.827V228.977C405.337 229.638 405.207 230.293 404.955 230.904C404.703 231.515 404.333 232.07 403.866 232.538C403.4 233.006 402.845 233.377 402.235 233.631C401.625 233.884 400.97 234.014 400.31 234.014C400.12 234.014 399.932 234.052 399.757 234.124C399.582 234.197 399.423 234.303 399.289 234.437C399.155 234.571 399.049 234.731 398.976 234.906C398.903 235.081 398.866 235.269 398.866 235.458V237.512H392.91Z" fill="url(#paint6_linear)"/>
<g style="mix-blend-mode:multiply" opacity="0.2">
<path d="M379.815 144.691H332.026C330.192 144.691 328.705 146.179 328.705 148.014V208.436C328.705 210.272 330.192 211.76 332.026 211.76H379.815C381.649 211.76 383.137 210.272 383.137 208.436V148.014C383.137 146.179 381.649 144.691 379.815 144.691Z" fill="#B7CAE5"/>
</g>
<path opacity="0.5" d="M382.841 209.541H335.017C333.95 209.539 332.927 209.114 332.173 208.359C331.418 207.604 330.994 206.581 330.991 205.513V145.1C330.994 144.032 331.418 143.009 332.173 142.254C332.927 141.499 333.95 141.074 335.017 141.072H382.841C383.908 141.074 384.93 141.499 385.685 142.254C386.439 143.009 386.864 144.032 386.867 145.1V205.513C386.864 206.581 386.439 207.604 385.685 208.359C384.93 209.114 383.908 209.539 382.841 209.541ZM335.017 142.472C334.325 142.472 333.662 142.747 333.173 143.237C332.683 143.726 332.409 144.39 332.409 145.082V205.495C332.409 206.188 332.683 206.852 333.173 207.341C333.662 207.831 334.325 208.106 335.017 208.106H382.841C383.533 208.106 384.196 207.831 384.685 207.341C385.174 206.852 385.449 206.188 385.449 205.495V145.1C385.449 144.407 385.174 143.744 384.685 143.254C384.196 142.765 383.533 142.49 382.841 142.49L335.017 142.472Z" fill="#4F7EB7"/>
<g style="mix-blend-mode:multiply">
<g style="mix-blend-mode:multiply" opacity="0.71">
<path d="M347.486 166.171H336.87V153.426H347.486V166.171ZM338.243 164.744H346.069V154.861H338.243V164.744Z" fill="#7CA6D8"/>
</g>
<g style="mix-blend-mode:multiply">
<path d="M344.817 162.204L341.66 158.68L342.704 157.741L344.617 159.881C346.679 157.324 349.378 155.356 352.442 154.174L352.973 155.47C347.347 157.793 345.286 161.325 345.26 161.36L344.817 162.204Z" fill="url(#paint7_radial)"/>
</g>
<g style="mix-blend-mode:multiply">
<path d="M374.572 158.193H358.094C357.958 158.193 357.822 158.166 357.696 158.113C357.57 158.061 357.456 157.984 357.36 157.887C357.263 157.79 357.187 157.674 357.136 157.548C357.084 157.421 357.058 157.286 357.06 157.149C357.058 157.012 357.084 156.877 357.136 156.75C357.187 156.624 357.263 156.508 357.36 156.411C357.456 156.314 357.57 156.237 357.696 156.185C357.822 156.132 357.958 156.105 358.094 156.105H374.572C374.708 156.105 374.844 156.132 374.97 156.185C375.096 156.237 375.21 156.314 375.307 156.411C375.403 156.508 375.479 156.624 375.53 156.75C375.582 156.877 375.608 157.012 375.606 157.149C375.608 157.286 375.582 157.421 375.53 157.548C375.479 157.674 375.403 157.79 375.307 157.887C375.21 157.984 375.096 158.061 374.97 158.113C374.844 158.166 374.708 158.193 374.572 158.193Z" fill="#9ABCED"/>
</g>
<g style="mix-blend-mode:multiply">
<path d="M374.572 163.239H358.094C357.82 163.239 357.557 163.13 357.363 162.936C357.169 162.742 357.06 162.478 357.06 162.204C357.058 162.067 357.084 161.932 357.136 161.805C357.187 161.678 357.263 161.563 357.36 161.466C357.456 161.369 357.57 161.292 357.696 161.24C357.822 161.187 357.958 161.16 358.094 161.16H374.572C374.708 161.16 374.844 161.187 374.97 161.24C375.096 161.292 375.21 161.369 375.307 161.466C375.403 161.563 375.479 161.678 375.53 161.805C375.582 161.932 375.608 162.067 375.606 162.204C375.606 162.478 375.497 162.742 375.303 162.936C375.109 163.13 374.846 163.239 374.572 163.239Z" fill="#9ABCED"/>
</g>
</g>
<g style="mix-blend-mode:multiply">
<g style="mix-blend-mode:multiply" opacity="0.71">
<path d="M347.486 185.642H336.87V172.923H347.486V185.642ZM338.243 184.241H346.069V174.323H338.243V184.241Z" fill="#7CA6D8"/>
</g>
<g style="mix-blend-mode:multiply">
<path d="M344.817 181.701L341.66 178.221L342.704 177.281L344.617 179.422C346.679 176.865 349.378 174.896 352.442 173.714L352.973 175.011C347.347 177.334 345.286 180.866 345.26 180.901L344.817 181.701Z" fill="url(#paint8_radial)"/>
</g>
<g style="mix-blend-mode:multiply">
<path d="M374.572 177.69H358.094C357.958 177.69 357.822 177.663 357.696 177.61C357.57 177.558 357.456 177.481 357.36 177.384C357.263 177.287 357.187 177.171 357.136 177.045C357.084 176.918 357.058 176.783 357.06 176.646C357.058 176.509 357.084 176.374 357.136 176.247C357.187 176.12 357.263 176.005 357.36 175.908C357.456 175.811 357.57 175.734 357.696 175.682C357.822 175.629 357.958 175.602 358.094 175.602H374.572C374.708 175.598 374.843 175.622 374.97 175.671C375.097 175.719 375.213 175.793 375.311 175.887C375.41 175.98 375.489 176.093 375.544 176.217C375.599 176.341 375.629 176.475 375.633 176.611C375.639 176.753 375.615 176.894 375.564 177.027C375.513 177.159 375.436 177.28 375.336 177.381C375.237 177.482 375.118 177.562 374.986 177.615C374.855 177.668 374.714 177.694 374.572 177.69Z" fill="#9ABCED"/>
</g>
<g style="mix-blend-mode:multiply">
<path d="M374.572 182.701H358.094C357.82 182.701 357.557 182.592 357.363 182.398C357.169 182.204 357.06 181.94 357.06 181.666C357.058 181.529 357.084 181.394 357.136 181.267C357.187 181.14 357.263 181.025 357.36 180.928C357.456 180.831 357.57 180.754 357.696 180.701C357.822 180.649 357.958 180.622 358.094 180.622H374.572C374.708 180.622 374.844 180.649 374.97 180.701C375.096 180.754 375.21 180.831 375.307 180.928C375.403 181.025 375.479 181.14 375.53 181.267C375.582 181.394 375.608 181.529 375.606 181.666C375.606 181.94 375.497 182.204 375.303 182.398C375.109 182.592 374.846 182.701 374.572 182.701Z" fill="#9ABCED"/>
</g>
<g style="mix-blend-mode:multiply" opacity="0.5">
<path d="M546.143 63.9997H532.836C532.725 63.9997 532.616 63.9737 532.514 63.9234C532.412 63.8731 532.32 63.7993 532.242 63.7064C532.165 63.6134 532.103 63.5032 532.062 63.3819C532.02 63.2607 531.999 63.1309 532 63C531.999 62.8691 532.02 62.7393 532.062 62.6181C532.103 62.4968 532.165 62.3866 532.242 62.2936C532.32 62.2007 532.412 62.1269 532.514 62.0766C532.616 62.0262 532.725 62.0003 532.836 62.0003H546.143C546.252 61.997 546.362 62.0194 546.464 62.0661C546.566 62.1129 546.66 62.1832 546.74 62.2729C546.819 62.3627 546.883 62.4701 546.928 62.5892C546.972 62.7082 546.997 62.8365 546.999 62.9667C547.004 63.1024 546.985 63.238 546.944 63.3648C546.903 63.4916 546.84 63.607 546.76 63.7039C546.68 63.8008 546.583 63.877 546.477 63.9279C546.371 63.9788 546.257 64.0032 546.143 63.9997Z" fill="#9ABCED"/>
</g>
<g style="mix-blend-mode:multiply" opacity="0.5">
<path d="M546.143 72.9997H532.836C532.725 72.9997 532.616 72.9737 532.514 72.9234C532.412 72.8731 532.32 72.7993 532.242 72.7064C532.165 72.6134 532.103 72.5032 532.062 72.3819C532.02 72.2607 531.999 72.1309 532 72C531.999 71.8691 532.02 71.7393 532.062 71.6181C532.103 71.4968 532.165 71.3866 532.242 71.2936C532.32 71.2007 532.412 71.1269 532.514 71.0766C532.616 71.0262 532.725 71.0003 532.836 71.0003H546.143C546.252 70.997 546.362 71.0194 546.464 71.0661C546.566 71.1129 546.66 71.1832 546.74 71.2729C546.819 71.3627 546.883 71.4701 546.928 71.5892C546.972 71.7082 546.997 71.8365 546.999 71.9667C547.004 72.1024 546.985 72.238 546.944 72.3648C546.903 72.4916 546.84 72.607 546.76 72.7039C546.68 72.8008 546.583 72.877 546.477 72.9279C546.371 72.9788 546.257 73.0032 546.143 72.9997Z" fill="#9ABCED"/>
</g>
<g style="mix-blend-mode:multiply" opacity="0.5">
<path d="M546.163 68H532.837C532.615 68 532.402 67.8951 532.245 67.7083C532.088 67.5216 532 67.2683 532 67.0042C531.999 66.8727 532.02 66.7423 532.062 66.6205C532.103 66.4987 532.165 66.388 532.243 66.2946C532.32 66.2013 532.413 66.1272 532.515 66.0766C532.617 66.026 532.726 66 532.837 66H546.163C546.274 66 546.383 66.026 546.485 66.0766C546.587 66.1272 546.68 66.2013 546.757 66.2946C546.835 66.388 546.897 66.4987 546.938 66.6205C546.98 66.7423 547.001 66.8727 547 67.0042C547 67.2683 546.912 67.5216 546.755 67.7083C546.598 67.8951 546.385 68 546.163 68Z" fill="#9ABCED"/>
</g>
<g style="mix-blend-mode:multiply" opacity="0.5">
<path d="M546.163 77H532.837C532.615 77 532.402 76.8951 532.245 76.7083C532.088 76.5216 532 76.2683 532 76.0042C531.999 75.8727 532.02 75.7423 532.062 75.6205C532.103 75.4987 532.165 75.388 532.243 75.2946C532.32 75.2013 532.413 75.1272 532.515 75.0766C532.617 75.026 532.726 75 532.837 75H546.163C546.274 75 546.383 75.026 546.485 75.0766C546.587 75.1272 546.68 75.2013 546.757 75.2946C546.835 75.388 546.897 75.4987 546.938 75.6205C546.98 75.7423 547.001 75.8727 547 76.0042C547 76.2683 546.912 76.5216 546.755 76.7083C546.598 76.8951 546.385 77 546.163 77Z" fill="#9ABCED"/>
</g>
</g>
<g style="mix-blend-mode:multiply">
<g style="mix-blend-mode:multiply" opacity="0.71">
<path d="M347.486 205.139H336.87V192.419H347.486V205.139ZM338.243 203.738H346.069V193.82H338.243V203.738Z" fill="#7CA6D8"/>
</g>
<g style="mix-blend-mode:multiply">
<path d="M344.817 201.198L341.66 197.718L342.704 196.778L344.617 198.918C346.679 196.362 349.378 194.393 352.442 193.211L352.973 194.507C347.347 196.822 345.286 200.354 345.26 200.397L344.817 201.198Z" fill="url(#paint9_radial)"/>
</g>
<g style="mix-blend-mode:multiply">
<path d="M374.572 197.178H358.094C357.82 197.178 357.557 197.069 357.363 196.875C357.169 196.681 357.06 196.417 357.06 196.143C357.058 196.006 357.084 195.87 357.136 195.744C357.187 195.617 357.263 195.502 357.36 195.405C357.456 195.308 357.57 195.231 357.696 195.178C357.822 195.126 357.958 195.099 358.094 195.099H374.572C374.708 195.099 374.844 195.126 374.97 195.178C375.096 195.231 375.21 195.308 375.307 195.405C375.403 195.502 375.479 195.617 375.53 195.744C375.582 195.87 375.608 196.006 375.606 196.143C375.606 196.417 375.497 196.681 375.303 196.875C375.109 197.069 374.846 197.178 374.572 197.178Z" fill="#9ABCED"/>
</g>
<g style="mix-blend-mode:multiply">
<path d="M374.572 202.233H358.094C357.82 202.233 357.557 202.124 357.363 201.93C357.169 201.735 357.06 201.472 357.06 201.198C357.058 201.061 357.084 200.925 357.136 200.799C357.187 200.672 357.263 200.557 357.36 200.46C357.456 200.363 357.57 200.286 357.696 200.233C357.822 200.181 357.958 200.154 358.094 200.154H374.572C374.708 200.154 374.844 200.181 374.97 200.233C375.096 200.286 375.21 200.363 375.307 200.46C375.403 200.557 375.479 200.672 375.53 200.799C375.582 200.925 375.608 201.061 375.606 201.198C375.606 201.472 375.497 201.735 375.303 201.93C375.109 202.124 374.846 202.233 374.572 202.233Z" fill="#9ABCED"/>
</g>
</g>
<path opacity="0.5" d="M551.858 116.25H504.078C503.011 116.248 501.988 115.823 501.234 115.068C500.479 114.313 500.055 113.29 500.052 112.222V51.8089C500.052 50.7406 500.476 49.716 501.231 48.9606C501.986 48.2052 503.01 47.7808 504.078 47.7808H551.858C552.926 47.7808 553.95 48.2052 554.705 48.9606C555.46 49.716 555.884 50.7406 555.884 51.8089V112.231C555.879 113.297 555.454 114.318 554.699 115.071C553.945 115.824 552.924 116.248 551.858 116.25ZM504.078 49.1815C503.386 49.1815 502.723 49.4565 502.234 49.9459C501.744 50.4354 501.47 51.0993 501.47 51.7915V112.231C501.47 112.923 501.744 113.587 502.234 114.076C502.723 114.566 503.386 114.841 504.078 114.841H551.858C552.55 114.841 553.214 114.566 553.703 114.076C554.192 113.587 554.467 112.923 554.467 112.231V51.8089C554.467 51.1167 554.192 50.4528 553.703 49.9633C553.214 49.4739 552.55 49.1989 551.858 49.1989L504.078 49.1815Z" fill="#4F7EB7"/>
<g style="mix-blend-mode:multiply" opacity="0.5">
<g style="mix-blend-mode:multiply" opacity="0.5">
<path d="M519.641 72.1606C520.712 67.6443 517.92 63.115 513.406 62.0441C508.893 60.9731 504.366 63.7661 503.295 68.2824C502.225 72.7987 505.017 77.3281 509.53 78.3991C514.044 79.47 518.571 76.677 519.641 72.1606Z" fill="#7CA6D8"/>
</g>
<g style="mix-blend-mode:multiply" opacity="0.5">
<path d="M513.677 69.1135L519.276 59.1606C524.407 60.4483 526.859 65.2942 524.407 70.2532L513.677 69.1135Z" fill="#1B4FD8"/>
</g>
</g>
<g style="mix-blend-mode:multiply" opacity="0.2">
<path d="M139.001 21.4109H91.2122C89.3777 21.4109 87.8906 22.8988 87.8906 24.7343V96.3619C87.8906 98.1974 89.3777 99.6853 91.2122 99.6853H139.001C140.835 99.6853 142.323 98.1974 142.323 96.3619V24.7343C142.323 22.8988 140.835 21.4109 139.001 21.4109Z" fill="#B7CAE5"/>
</g>
<path opacity="0.5" d="M135.967 97.3536H88.1865C87.1188 97.3536 86.0948 96.9292 85.3398 96.1738C84.5848 95.4184 84.1606 94.3938 84.1606 93.3255V21.7501C84.1606 20.6817 84.5848 19.6572 85.3398 18.9017C86.0948 18.1463 87.1188 17.7219 88.1865 17.7219H136.01C137.07 17.7334 138.083 18.1628 138.829 18.917C139.574 19.6712 139.993 20.6892 139.993 21.7501V93.369C139.979 94.429 139.549 95.4412 138.796 96.1867C138.042 96.9323 137.026 97.3514 135.967 97.3536ZM88.1865 19.053C87.4947 19.053 86.8312 19.328 86.342 19.8175C85.8528 20.307 85.578 20.9708 85.578 21.6631V93.282C85.578 93.9742 85.8528 94.6381 86.342 95.1275C86.8312 95.617 87.4947 95.892 88.1865 95.892H136.01C136.702 95.892 137.365 95.617 137.855 95.1275C138.344 94.6381 138.619 93.9742 138.619 93.282V21.7501C138.619 21.0578 138.344 20.394 137.855 19.9045C137.365 19.415 136.702 19.14 136.01 19.14L88.1865 19.053Z" fill="#4F7EB7"/>
<g style="mix-blend-mode:multiply" opacity="0.5">
<path d="M372.468 31.0854H284.95C281.762 31.0854 279.177 33.6718 279.177 36.8623V95.0048C279.177 98.1953 281.762 100.782 284.95 100.782H372.468C375.656 100.782 378.241 98.1953 378.241 95.0048V36.8623C378.241 33.6718 375.656 31.0854 372.468 31.0854Z" fill="#F1F4FA"/>
</g>
<g opacity="0.5">
<path opacity="0.5" d="M331 85.5333V93L308 86.4667V79L331 85.5333Z" fill="#1B4FD8"/>
<path opacity="0.5" d="M353 79V86.4667L331 93V85.5333L353 79Z" fill="url(#paint10_radial)"/>
<path opacity="0.2" d="M353 79V86.4667L331 93V85.5333L353 79Z" fill="#44454E" fill-opacity="0.85"/>
<path opacity="0.5" d="M330.5 72L353 78.5L330.5 85L308 78.5L330.5 72Z" fill="#7A92E3"/>
<path d="M331 78H330V59H331V78Z" fill="#44454E" fill-opacity="0.85"/>
<path d="M330.5 58L335 62.614L333.648 64L330.5 60.7721L327.352 64L326 62.614L330.5 58Z" fill="#44454E" fill-opacity="0.85"/>
<path d="M310.5 58L315 62.614L313.648 64L310.5 60.7721L307.352 64L306 62.614L310.5 58Z" fill="#44454E" fill-opacity="0.85"/>
<path d="M309 60H310.846V63.7333C310.846 65.2771 312.089 66.5333 313.615 66.5333H316.385C318.93 66.5333 321 68.6268 321 71.2V74H319.154V71.2C319.154 69.6563 317.911 68.4 316.385 68.4H313.615C311.07 68.4 309 66.3065 309 63.7333V60Z" fill="#44454E" fill-opacity="0.85"/>
<path d="M351 58L347 62.614L348.202 64L351 60.7721L353.798 64L355 62.614L351 58Z" fill="#44454E" fill-opacity="0.85"/>
<path d="M352 60H350.154V63.7333C350.154 65.2771 348.911 66.5333 347.385 66.5333H344.615C342.07 66.5333 340 68.6268 340 71.2V74H341.846V71.2C341.846 69.6563 343.089 68.4 344.615 68.4H347.385C349.93 68.4 352 66.3065 352 63.7333V60Z" fill="#44454E" fill-opacity="0.85"/>
<path opacity="0.1" d="M343 58V37H352.375L358 42.7273V58H343Z" fill="#1B4FD8"/>
<path opacity="0.1" d="M358 43H352V37L358 43Z" fill="#1B4FD8"/>
<path opacity="0.1" d="M323 58V37H332.375L338 42.7273V58H323Z" fill="#1B4FD8"/>
<path opacity="0.1" d="M303 58V37H312.375L318 42.7273V58H303Z" fill="#1B4FD8"/>
<path opacity="0.1" d="M338 43H332V37L338 43Z" fill="#1B4FD8"/>
<path opacity="0.1" d="M318 43H312V37L318 43Z" fill="#1B4FD8"/>
<path d="M325.758 45.6074H335.241V47.504H325.758V45.6074Z" fill="#44454E" fill-opacity="0.85"/>
<path d="M325.758 49.4004H335.241V51.2969H325.758V49.4004Z" fill="#44454E" fill-opacity="0.85"/>
<path d="M325.758 41.8142H329.551V43.7108H325.758V41.8142Z" fill="#44454E" fill-opacity="0.85"/>
<path d="M305.845 45.6074H315.327V47.504H305.845V45.6074Z" fill="#44454E" fill-opacity="0.85"/>
<path d="M305.845 49.4004H315.327V51.2969H305.845V49.4004Z" fill="#44454E" fill-opacity="0.85"/>
<path d="M305.845 53.1936H315.327V55.0902H305.845V53.1936Z" fill="#44454E" fill-opacity="0.85"/>
<path d="M305.845 41.8142H309.638V43.7108H305.845V41.8142Z" fill="#44454E" fill-opacity="0.85"/>
<path d="M345.672 45.6074H355.155V47.504H345.672V45.6074Z" fill="#44454E" fill-opacity="0.85"/>
<path d="M345.672 49.4004H355.155V51.2969H345.672V49.4004Z" fill="#44454E" fill-opacity="0.85"/>
<path d="M345.672 53.1936H355.155V55.0902H345.672V53.1936Z" fill="#44454E" fill-opacity="0.85"/>
<path d="M345.672 41.8142H349.465V43.7108H345.672V41.8142Z" fill="#44454E" fill-opacity="0.85"/>
<path d="M325.758 53.1936H327.655V55.0902H325.758V53.1936Z" fill="#44454E" fill-opacity="0.85"/>
<path d="M329.552 53.1936H331.448V55.0902H329.552V53.1936Z" fill="#44454E" fill-opacity="0.85"/>
<path d="M333.345 53.1936H335.241V55.0902H333.345V53.1936Z" fill="#44454E" fill-opacity="0.85"/>
</g>
<path opacity="0.5" d="M375.494 98.3107H287.985C286.268 98.3084 284.622 97.6248 283.407 96.4097C282.193 95.1947 281.51 93.5474 281.507 91.8291V33.6518C281.51 31.9343 282.193 30.2879 283.408 29.0743C284.622 27.8606 286.269 27.179 287.985 27.179H375.494C377.21 27.1813 378.855 27.8637 380.069 29.0768C381.283 30.29 381.967 31.935 381.972 33.6518V91.7943C381.975 92.6481 381.81 93.4942 381.486 94.284C381.162 95.0739 380.686 95.7921 380.084 96.3974C379.482 97.0028 378.767 97.4833 377.979 97.8117C377.192 98.14 376.347 98.3095 375.494 98.3107ZM287.985 28.5797C286.64 28.5797 285.35 29.1138 284.398 30.0647C283.446 31.0157 282.91 32.3058 282.907 33.6518V91.7943C282.91 93.1412 283.445 94.4321 284.397 95.3845C285.349 96.3368 286.639 96.8729 287.985 96.8752H375.494C376.84 96.8729 378.13 96.3368 379.082 95.3845C380.034 94.4321 380.569 93.1412 380.572 91.7943V33.6518C380.569 32.3058 380.033 31.0157 379.081 30.0647C378.129 29.1138 376.839 28.5797 375.494 28.5797H287.985Z" fill="#4F7EB7"/>
<g style="mix-blend-mode:multiply" opacity="0.2">
<path d="M91.6035 112.57H8.7643C6.1855 112.57 4.09497 114.662 4.09497 117.242V167.441C4.09497 170.022 6.1855 172.113 8.7643 172.113H91.6035C94.1823 172.113 96.2728 170.022 96.2728 167.441V117.242C96.2728 114.662 94.1823 112.57 91.6035 112.57Z" fill="#B7CAE5"/>
</g>
<path opacity="0.5" d="M88.2128 169.364H5.36494C3.94278 169.362 2.57952 168.795 1.57389 167.789C0.568271 166.783 0.00229938 165.419 0 163.996L0 113.797C0 112.373 0.565233 111.008 1.57135 110.001C2.57748 108.994 3.94207 108.429 5.36494 108.429H88.2128C89.6357 108.429 91.0003 108.994 92.0064 110.001C93.0126 111.008 93.5778 112.373 93.5778 113.797V163.996C93.5755 165.419 93.0095 166.783 92.0039 167.789C90.9983 168.795 89.635 169.362 88.2128 169.364ZM5.36494 109.829C4.31335 109.829 3.30484 110.247 2.56125 110.991C1.81767 111.735 1.39993 112.744 1.39993 113.797V163.996C1.40222 165.047 1.8207 166.055 2.56379 166.799C3.30688 167.542 4.31406 167.961 5.36494 167.963H88.2128C89.2622 167.959 90.2672 167.539 91.0084 166.796C91.7496 166.052 92.1669 165.046 92.1692 163.996V113.797C92.1692 112.744 91.7514 111.735 91.0078 110.991C90.2643 110.247 89.2557 109.829 88.2041 109.829H5.36494Z" fill="#4F7EB7"/>
<g style="mix-blend-mode:multiply" opacity="0.5">
<g style="mix-blend-mode:multiply" opacity="0.5">
<path d="M37.2677 140.071C35.7711 141.566 33.9023 142.635 31.8545 143.165C29.8067 143.696 27.6545 143.669 25.6205 143.088C23.5866 142.507 21.7448 141.392 20.2858 139.86C18.8268 138.327 17.8037 136.433 17.3222 134.372C16.8408 132.311 16.9186 130.159 17.5475 128.138C18.1765 126.117 19.3337 124.301 20.8995 122.878C22.4653 121.455 24.3827 120.477 26.4533 120.044C28.524 119.611 30.6725 119.74 32.6766 120.417L28.8681 131.727L37.2677 140.071Z" fill="#7CA6D8"/>
</g>
<g style="mix-blend-mode:multiply" opacity="0.8">
<path d="M42.3195 130.744C42.3219 132.069 42.061 133.382 41.552 134.605C41.043 135.828 40.296 136.938 39.3544 137.87L32.2244 130.744L35.459 121.174C37.4599 121.85 39.1983 123.137 40.4291 124.854C41.66 126.571 42.3212 128.631 42.3195 130.744Z" fill="#4F7EB7"/>
</g>
<g style="mix-blend-mode:multiply" opacity="0.5">
<path d="M82.4479 144.247H55.145V121.183C55.134 121.085 55.1439 120.985 55.1741 120.89C55.2042 120.796 55.254 120.709 55.32 120.635C55.3861 120.561 55.467 120.502 55.5574 120.462C55.6479 120.421 55.7459 120.4 55.8449 120.4C55.944 120.4 56.042 120.421 56.1324 120.462C56.2229 120.502 56.3038 120.561 56.3699 120.635C56.4359 120.709 56.4857 120.796 56.5158 120.89C56.546 120.985 56.5559 121.085 56.5449 121.183V142.846H82.4479C82.6201 142.865 82.7792 142.947 82.8947 143.077C83.0102 143.206 83.0741 143.373 83.0741 143.547C83.0741 143.72 83.0102 143.887 82.8947 144.016C82.7792 144.146 82.6201 144.228 82.4479 144.247Z" fill="#9ABCED"/>
</g>
<g style="mix-blend-mode:multiply" opacity="0.5">
<path d="M64.3618 132.363H60.8577V142.846H64.3618V132.363Z" fill="#9ABCED"/>
</g>
<g style="mix-blend-mode:multiply" opacity="0.8">
<path d="M71.5964 127.047H68.0923V142.846H71.5964V127.047Z" fill="#4F7EB7"/>
</g>
<g style="mix-blend-mode:multiply" opacity="0.5">
<path d="M78.7175 134.947H75.2134V142.846H78.7175V134.947Z" fill="#9ABCED"/>
</g>
<g style="mix-blend-mode:multiply" opacity="0.5">
<path d="M34.0853 152.494H17.634C16.9569 152.494 16.408 153.044 16.408 153.721C16.408 154.399 16.9569 154.948 17.634 154.948H34.0853C34.7624 154.948 35.3113 154.399 35.3113 153.721C35.3113 153.044 34.7624 152.494 34.0853 152.494Z" fill="#9ABCED"/>
</g>
<g style="mix-blend-mode:multiply" opacity="0.5">
<path d="M59.1708 152.494H42.7194C42.0423 152.494 41.4934 153.044 41.4934 153.721C41.4934 154.399 42.0423 154.948 42.7194 154.948H59.1708C59.8479 154.948 60.3968 154.399 60.3968 153.721C60.3968 153.044 59.8479 152.494 59.1708 152.494Z" fill="#9ABCED"/>
</g>
<g style="mix-blend-mode:multiply" opacity="0.5">
<path d="M82.7433 152.494H66.2919C65.6148 152.494 65.0659 153.044 65.0659 153.721C65.0659 154.399 65.6148 154.948 66.2919 154.948H82.7433C83.4204 154.948 83.9693 154.399 83.9693 153.721C83.9693 153.044 83.4204 152.494 82.7433 152.494Z" fill="#9ABCED"/>
</g>
<g style="mix-blend-mode:multiply" opacity="0.5">
<path d="M44.8761 163.7H28.4248C28.1011 163.7 27.7906 163.572 27.5609 163.344C27.3312 163.116 27.201 162.806 27.1987 162.482C27.1987 162.321 27.2304 162.161 27.2921 162.013C27.3537 161.864 27.444 161.729 27.5578 161.615C27.6717 161.501 27.8068 161.41 27.9556 161.349C28.1043 161.287 28.2637 161.255 28.4248 161.255H44.8761C45.1982 161.26 45.5056 161.391 45.7318 161.621C45.958 161.85 46.0847 162.16 46.0847 162.482C46.0825 162.803 45.9547 163.11 45.7288 163.338C45.5028 163.565 45.1967 163.696 44.8761 163.7Z" fill="#9ABCED"/>
</g>
<g style="mix-blend-mode:multiply" opacity="0.5">
<path d="M68.4488 163.7H51.9975C51.6738 163.7 51.3633 163.572 51.1336 163.344C50.904 163.116 50.7738 162.806 50.7715 162.482C50.7715 162.157 50.9007 161.845 51.1306 161.615C51.3605 161.385 51.6723 161.255 51.9975 161.255H68.4488C68.774 161.255 69.0858 161.385 69.3158 161.615C69.5457 161.845 69.6749 162.157 69.6749 162.482C69.6726 162.806 69.5424 163.116 69.3127 163.344C69.083 163.572 68.7725 163.7 68.4488 163.7Z" fill="#9ABCED"/>
</g>
</g>
<g style="mix-blend-mode:multiply" opacity="0.5">
<path d="M105.962 67H92.0377C91.4646 67 91 67.4477 91 68C91 68.5523 91.4646 69 92.0377 69H105.962C106.535 69 107 68.5523 107 68C107 67.4477 106.535 67 105.962 67Z" fill="#9ABCED"/>
</g>
<g style="mix-blend-mode:multiply" opacity="0.5">
<path d="M105.962 78H92.0377C91.4646 78 91 78.4477 91 79C91 79.5523 91.4646 80 92.0377 80H105.962C106.535 80 107 79.5523 107 79C107 78.4477 106.535 78 105.962 78Z" fill="#9ABCED"/>
</g>
<g style="mix-blend-mode:multiply" opacity="0.5">
<path d="M105.962 73H92.0377C91.7638 73 91.5009 72.8953 91.3065 72.7086C91.1121 72.5219 91.0019 72.2685 91 72.0036C91 71.7374 91.1093 71.4821 91.3039 71.2939C91.4986 71.1057 91.7625 71 92.0377 71H105.962C106.238 71 106.501 71.1057 106.696 71.2939C106.891 71.4821 107 71.7374 107 72.0036C106.998 72.2685 106.888 72.5219 106.693 72.7086C106.499 72.8953 106.236 73 105.962 73Z" fill="#9ABCED"/>
</g>
<g style="mix-blend-mode:multiply" opacity="0.5">
<path d="M105.962 84H92.0377C91.7638 84 91.5009 83.8953 91.3065 83.7086C91.1121 83.5219 91.0019 83.2685 91 83.0036C91 82.7374 91.1093 82.4821 91.3039 82.2939C91.4986 82.1057 91.7625 82 92.0377 82H105.962C106.238 82 106.501 82.1057 106.696 82.2939C106.891 82.4821 107 82.7374 107 83.0036C106.998 83.2685 106.888 83.5219 106.693 83.7086C106.499 83.8953 106.236 84 105.962 84Z" fill="#9ABCED"/>
</g>
<g style="mix-blend-mode:multiply" opacity="0.5">
<path d="M129.962 31H116.038C115.465 31 115 31.4477 115 32C115 32.5523 115.465 33 116.038 33H129.962C130.535 33 131 32.5523 131 32C131 31.4477 130.535 31 129.962 31Z" fill="#9ABCED"/>
</g>
<g style="mix-blend-mode:multiply" opacity="0.5">
<path d="M129.962 42H116.038C115.465 42 115 42.4477 115 43C115 43.5523 115.465 44 116.038 44H129.962C130.535 44 131 43.5523 131 43C131 42.4477 130.535 42 129.962 42Z" fill="#9ABCED"/>
</g>
<g style="mix-blend-mode:multiply" opacity="0.5">
<path d="M129.962 37H116.038C115.764 37 115.501 36.8953 115.307 36.7086C115.112 36.5219 115.002 36.2685 115 36.0036C115 35.7374 115.109 35.4821 115.304 35.2939C115.499 35.1057 115.762 35 116.038 35H129.962C130.238 35 130.501 35.1057 130.696 35.2939C130.891 35.4821 131 35.7374 131 36.0036C130.998 36.2685 130.888 36.5219 130.693 36.7086C130.499 36.8953 130.236 37 129.962 37Z" fill="#9ABCED"/>
</g>
<g style="mix-blend-mode:multiply" opacity="0.5">
<path d="M129.962 48H116.038C115.764 48 115.501 47.8953 115.307 47.7086C115.112 47.5219 115.002 47.2685 115 47.0036C115 46.7374 115.109 46.4821 115.304 46.2939C115.499 46.1057 115.762 46 116.038 46H129.962C130.238 46 130.501 46.1057 130.696 46.2939C130.891 46.4821 131 46.7374 131 47.0036C130.998 47.2685 130.888 47.5219 130.693 47.7086C130.499 47.8953 130.236 48 129.962 48Z" fill="#9ABCED"/>
</g>
<defs>
<linearGradient id="paint0_linear" x1="275.542" y1="254.503" x2="275.542" y2="170.217" gradientUnits="userSpaceOnUse">
<stop stop-color="#1F3A65"/>
<stop offset="1" stop-color="#294A7A"/>
</linearGradient>
<linearGradient id="paint1_linear" x1="11955.7" y1="8017.12" x2="11955.7" y2="7341.4" gradientUnits="userSpaceOnUse">
<stop stop-color="#1F3A65"/>
<stop offset="1" stop-color="#294A7A"/>
</linearGradient>
<linearGradient id="paint2_linear" x1="21530.9" y1="8970.92" x2="21530.9" y2="8212.13" gradientUnits="userSpaceOnUse">
<stop stop-color="#1F3A65"/>
<stop offset="1" stop-color="#294A7A"/>
</linearGradient>
<radialGradient id="paint3_radial" cx="0" cy="0" r="1" gradientUnits="userSpaceOnUse" gradientTransform="translate(236.856 231.118) scale(78.8241 171.352)">
<stop stop-color="#0030AE"/>
<stop offset="1" stop-color="#0081F1"/>
</radialGradient>
<linearGradient id="paint4_linear" x1="270.186" y1="138.305" x2="269.246" y2="101.634" gradientUnits="userSpaceOnUse">
<stop stop-color="#3F2323"/>
<stop offset="1" stop-color="#5E3434"/>
</linearGradient>
<linearGradient id="paint5_linear" x1="8493.77" y1="6647.85" x2="8874.86" y2="6647.85" gradientUnits="userSpaceOnUse">
<stop stop-color="#1F3A65"/>
<stop offset="1" stop-color="#294A7A"/>
</linearGradient>
<linearGradient id="paint6_linear" x1="413.126" y1="186.199" x2="390.003" y2="232.064" gradientUnits="userSpaceOnUse">
<stop stop-color="#E2E8F7"/>
<stop offset="1" stop-color="white"/>
</linearGradient>
<radialGradient id="paint7_radial" cx="0" cy="0" r="1" gradientUnits="userSpaceOnUse" gradientTransform="translate(341.66 158.194) scale(11.3125 29.5236)">
<stop stop-color="#0030AE"/>
<stop offset="1" stop-color="#0081F1"/>
</radialGradient>
<radialGradient id="paint8_radial" cx="0" cy="0" r="1" gradientUnits="userSpaceOnUse" gradientTransform="translate(341.66 177.713) scale(11.3125 29.3637)">
<stop stop-color="#0030AE"/>
<stop offset="1" stop-color="#0081F1"/>
</radialGradient>
<radialGradient id="paint9_radial" cx="0" cy="0" r="1" gradientUnits="userSpaceOnUse" gradientTransform="translate(341.66 197.21) scale(11.3125 29.3636)">
<stop stop-color="#0030AE"/>
<stop offset="1" stop-color="#0081F1"/>
</radialGradient>
<radialGradient id="paint10_radial" cx="0" cy="0" r="1" gradientUnits="userSpaceOnUse" gradientTransform="translate(331 86.0093) scale(22 51.4722)">
<stop stop-color="#0030AE"/>
<stop offset="1" stop-color="#0081F1"/>
</radialGradient>
</defs>
</svg>
