<svg width="54" height="19" viewBox="0 0 54 19" fill="none" xmlns="http://www.w3.org/2000/svg">
<path d="M8.99612 18.432C13.4601 18.432 16.8921 15.432 17.5401 11.016H12.8121C12.3321 12.888 10.8681 14.112 8.99612 14.112C6.62012 14.112 4.86812 12.216 4.86812 9.62401C4.86812 7.03201 6.62012 5.11201 8.99612 5.11201C10.7721 5.11201 12.2121 6.24001 12.7881 7.94401H17.4921C16.7961 3.69601 13.3881 0.792007 8.99612 0.792007C3.88412 0.792007 0.0681152 4.58401 0.0681152 9.62401C0.0681152 14.64 3.88412 18.432 8.99612 18.432ZM20.5024 18H25.2064V1.20001H20.5024V18ZM33.9017 13.776V1.20001H29.1977V18H39.8777V13.776H33.9017ZM53.2118 1.20001H39.4358V5.37601H43.9958V18H48.6518V5.37601H53.2118V1.20001Z" fill="white" fill-opacity="0.95"/>
</svg>
