<svg width="33" height="12" viewBox="0 0 33 12" fill="none" xmlns="http://www.w3.org/2000/svg">
<path opacity="0.5" d="M5.49775 11.3838C8.22574 11.3838 10.3231 9.57531 10.7191 6.91325H7.82974C7.5364 8.04173 6.64174 8.77959 5.49775 8.77959C4.04575 8.77959 2.97508 7.63663 2.97508 6.07412C2.97508 4.51161 4.04575 3.35419 5.49775 3.35419C6.58307 3.35419 7.46307 4.03417 7.81507 5.06138H10.6897C10.2644 2.50059 8.18174 0.75 5.49775 0.75C2.37375 0.75 0.041748 3.0359 0.041748 6.07412C0.041748 9.09787 2.37375 11.3838 5.49775 11.3838ZM12.5294 11.1234H15.404V0.995951H12.5294V11.1234ZM20.7178 8.57704V0.995951H17.8432V11.1234H24.3698V8.57704H20.7178ZM32.5184 0.995951H24.0998V3.51333H26.8864V11.1234H29.7318V3.51333H32.5184V0.995951Z" fill="white" fill-opacity="0.95"/>
</svg>
