<svg width="962" height="146" viewBox="0 0 962 146" fill="none" xmlns="http://www.w3.org/2000/svg">
<g opacity="0.9">
<path d="M105.917 7.41711V34.1578H69.6364V144.438H36.2811V34.1578H0V7.41711H105.917Z" fill="#F2F8FD"/>
<path d="M189.563 34.3529C202.047 34.3529 212.06 38.5169 219.602 46.8449C227.145 55.0428 230.916 66.3636 230.916 80.8075V144.438H197.756V85.2968C197.756 78.0098 195.87 72.3494 192.099 68.3155C188.328 64.2816 183.256 62.2647 176.884 62.2647C170.512 62.2647 165.441 64.2816 161.67 68.3155C157.898 72.3494 156.013 78.0098 156.013 85.2968V144.438H122.658V0H156.013V50.1631C159.394 45.3485 164.01 41.5098 169.862 38.647C175.714 35.7843 182.281 34.3529 189.563 34.3529Z" fill="#F2F8FD"/>
<path d="M356.696 88.2246C356.696 91.3476 356.501 94.6007 356.111 97.984H280.622C281.143 104.75 283.288 109.955 287.06 113.599C290.961 117.112 295.707 118.869 301.299 118.869C309.621 118.869 315.408 115.356 318.659 108.329H354.16C352.34 115.486 349.023 121.927 344.212 127.652C339.531 133.378 333.614 137.867 326.462 141.12C319.309 144.373 311.312 146 302.469 146C291.806 146 282.313 143.723 273.99 139.168C265.668 134.614 259.166 128.108 254.484 119.65C249.803 111.192 247.462 101.302 247.462 89.9813C247.462 78.6604 249.738 68.7709 254.289 60.3128C258.971 51.8547 265.473 45.3485 273.795 40.7941C282.118 36.2397 291.676 33.9626 302.469 33.9626C313.002 33.9626 322.365 36.1747 330.558 40.5989C338.75 45.0232 345.122 51.3342 349.674 59.5321C354.355 67.7299 356.696 77.2941 356.696 88.2246ZM322.56 79.4412C322.56 73.7157 320.61 69.1613 316.709 65.7781C312.807 62.3948 307.931 60.7032 302.079 60.7032C296.487 60.7032 291.741 62.3298 287.84 65.5829C284.069 68.836 281.728 73.4554 280.818 79.4412H322.56Z" fill="#F2F8FD"/>
<path d="M459.907 146C450.414 146 441.961 144.373 434.549 141.12C427.137 137.867 421.285 133.443 416.994 127.848C412.702 122.122 410.297 115.746 409.777 108.719H442.742C443.132 112.493 444.887 115.551 448.008 117.893C451.129 120.235 454.965 121.406 459.517 121.406C463.678 121.406 466.864 120.626 469.075 119.064C471.415 117.373 472.586 115.225 472.586 112.623C472.586 109.5 470.96 107.223 467.709 105.791C464.458 104.23 459.192 102.538 451.909 100.717C444.107 98.8948 437.605 97.008 432.403 95.0561C427.202 92.9741 422.715 89.7861 418.944 85.492C415.173 81.0677 413.288 75.147 413.288 67.7299C413.288 61.4839 414.978 55.8235 418.359 50.7487C421.87 45.5437 426.942 41.4447 433.574 38.4519C440.336 35.459 448.333 33.9626 457.566 33.9626C471.22 33.9626 481.949 37.3458 489.751 44.1123C497.683 50.8788 502.235 59.8574 503.405 71.0481H472.586C472.066 67.2745 470.375 64.2816 467.514 62.0695C464.783 59.8574 461.142 58.7513 456.591 58.7513C452.69 58.7513 449.699 59.5321 447.618 61.0936C445.537 62.525 444.497 64.5419 444.497 67.1444C444.497 70.2674 446.123 72.6096 449.374 74.1711C452.755 75.7326 457.956 77.2941 464.978 78.8556C473.041 80.9376 479.608 83.0196 484.679 85.1016C489.751 87.0535 494.172 90.3066 497.944 94.861C501.845 99.2852 503.86 105.271 503.99 112.818C503.99 119.194 502.17 124.92 498.529 129.995C495.018 134.939 489.881 138.843 483.119 141.706C476.487 144.569 468.75 146 459.907 146Z" fill="#F2F8FD"/>
<path d="M585.061 116.136V144.438H568.09C555.997 144.438 546.569 141.511 539.807 135.655C533.045 129.669 529.664 119.975 529.664 106.572V63.2406H516.4V35.5241H529.664V8.97861H563.019V35.5241H584.866V63.2406H563.019V106.963C563.019 110.216 563.799 112.558 565.359 113.989C566.92 115.421 569.521 116.136 573.162 116.136H585.061Z" fill="#F2F8FD"/>
<path d="M597.008 89.7861C597.008 78.5954 599.089 68.7709 603.25 60.3128C607.541 51.8547 613.328 45.3485 620.61 40.7941C627.892 36.2397 636.02 33.9626 644.993 33.9626C652.665 33.9626 659.362 35.5241 665.084 38.647C670.936 41.77 675.422 45.869 678.543 50.9438V35.5241H711.898V144.438H678.543V129.019C675.292 134.094 670.741 138.193 664.889 141.315C659.167 144.438 652.47 146 644.798 146C635.955 146 627.892 143.723 620.61 139.168C613.328 134.484 607.541 127.913 603.25 119.455C599.089 110.866 597.008 100.977 597.008 89.7861ZM678.543 89.9813C678.543 81.6533 676.202 75.082 671.521 70.2674C666.969 65.4528 661.378 63.0454 654.746 63.0454C648.114 63.0454 642.457 65.4528 637.776 70.2674C633.224 74.9519 630.948 81.4581 630.948 89.7861C630.948 98.1141 633.224 104.75 637.776 109.695C642.457 114.51 648.114 116.917 654.746 116.917C661.378 116.917 666.969 114.51 671.521 109.695C676.202 104.881 678.543 98.3093 678.543 89.9813Z" fill="#F2F8FD"/>
<path d="M729.397 89.9813C729.397 78.6604 731.673 68.7709 736.224 60.3128C740.906 51.8547 747.343 45.3485 755.535 40.7941C763.858 36.2397 773.351 33.9626 784.014 33.9626C797.668 33.9626 809.047 37.541 818.149 44.6979C827.382 51.8547 833.429 61.9394 836.29 74.9519H800.789C797.798 66.6239 792.011 62.4599 783.429 62.4599C777.317 62.4599 772.44 64.8672 768.799 69.6818C765.158 74.3663 763.338 81.1328 763.338 89.9813C763.338 98.8298 765.158 105.661 768.799 110.476C772.44 115.16 777.317 117.503 783.429 117.503C792.011 117.503 797.798 113.339 800.789 105.011H836.29C833.429 117.763 827.382 127.783 818.149 135.07C808.917 142.357 797.538 146 784.014 146C773.351 146 763.858 143.723 755.535 139.168C747.343 134.614 740.906 128.108 736.224 119.65C731.673 111.192 729.397 101.302 729.397 89.9813Z" fill="#F2F8FD"/>
<path d="M920.647 144.438L887.487 98.7647V144.438H854.132V0H887.487V79.8315L920.452 35.5241H961.61L916.356 90.1765L962 144.438H920.647Z" fill="#F2F8FD"/>
</g>
</svg>
