<svg width="1279" height="213" viewBox="0 0 1279 213" fill="none" xmlns="http://www.w3.org/2000/svg">
<g opacity="0.9">
<path d="M54.3739 161.297C44.187 161.297 35.0586 159.634 26.9885 156.306C18.9184 152.979 12.4359 148.055 7.5409 141.534C2.77823 135.013 0.264593 127.161 0 117.978H36.117C36.6461 123.169 38.4321 127.161 41.475 129.956C44.5178 132.618 48.4867 133.948 53.3817 133.948C58.4089 133.948 62.3778 132.817 65.2883 130.555C68.1989 128.159 69.6541 124.899 69.6541 120.773C69.6541 117.313 68.4635 114.452 66.0821 112.189C63.8331 109.927 60.9887 108.064 57.549 106.6C54.2416 105.136 49.4789 103.472 43.261 101.609C34.2648 98.8144 26.9223 96.0197 21.2336 93.2249C15.5448 90.4302 10.6499 86.3046 6.54868 80.8482C2.44749 75.3918 0.39689 68.2718 0.39689 59.4883C0.39689 46.4461 5.09342 36.2652 14.4865 28.9456C23.8795 21.493 36.117 17.7666 51.1988 17.7666C66.5452 17.7666 78.9149 21.493 88.3079 28.9456C97.701 36.2652 102.728 46.5127 103.39 59.6879H66.6775C66.4129 55.1631 64.7592 51.6364 61.7163 49.1078C58.6735 46.4461 54.7708 45.1153 50.0081 45.1153C45.9069 45.1153 42.5995 46.2465 40.0859 48.5089C37.5722 50.6382 36.3154 53.7657 36.3154 57.8913C36.3154 62.4161 38.4321 65.9428 42.6656 68.4714C46.8991 71 53.514 73.7282 62.5101 76.6561C71.5063 79.717 78.7826 82.6448 84.339 85.4396C90.0278 88.2343 94.9228 92.2933 99.024 97.6167C103.125 102.94 105.176 109.794 105.176 118.178C105.176 126.163 103.125 133.416 99.024 139.937C95.0551 146.458 89.234 151.649 81.5608 155.508C73.8876 159.367 64.8253 161.297 54.3739 161.297Z" fill="#F2F8FD"/>
<path d="M235.402 48.5089V159.9H201.468V144.728C198.028 149.652 193.332 153.645 187.378 156.706C181.557 159.634 175.075 161.097 167.931 161.097C159.464 161.097 151.989 159.234 145.507 155.508C139.024 151.649 133.997 146.126 130.425 138.939C126.853 131.753 125.067 123.302 125.067 113.587V48.5089H158.802V108.995C158.802 116.448 160.721 122.237 164.557 126.363C168.394 130.488 173.553 132.551 180.036 132.551C186.651 132.551 191.876 130.488 195.713 126.363C199.55 122.237 201.468 116.448 201.468 108.995V48.5089H235.402Z" fill="#F2F8FD"/>
<path d="M293.711 64.2793C296.886 59.089 301.45 54.8969 307.403 51.7029C313.357 48.5089 320.17 46.9119 327.843 46.9119C336.972 46.9119 345.24 49.2409 352.649 53.8988C360.057 58.5567 365.878 65.2109 370.112 73.8613C374.478 82.5117 376.661 92.5595 376.661 104.005C376.661 115.45 374.478 125.564 370.112 134.348C365.878 142.998 360.057 149.719 352.649 154.51C345.24 159.168 336.972 161.497 327.843 161.497C320.038 161.497 313.224 159.966 307.403 156.905C301.582 153.711 297.018 149.519 293.711 144.329V159.9H259.777V12.1771H293.711V64.2793ZM342.131 104.005C342.131 95.4874 339.75 88.8332 334.987 84.0422C330.357 79.1181 324.602 76.6561 317.723 76.6561C310.975 76.6561 305.221 79.1181 300.458 84.0422C295.827 88.9663 293.512 95.687 293.512 104.204C293.512 112.722 295.827 119.442 300.458 124.366C305.221 129.291 310.975 131.753 317.723 131.753C324.47 131.753 330.225 129.291 334.987 124.366C339.75 119.309 342.131 112.522 342.131 104.005Z" fill="#F2F8FD"/>
<path d="M439.51 161.497C429.853 161.497 421.253 159.833 413.712 156.506C406.172 153.179 400.218 148.654 395.852 142.932C391.487 137.076 389.039 130.555 388.51 123.368H422.047C422.444 127.228 424.23 130.355 427.405 132.751C430.58 135.146 434.483 136.344 439.113 136.344C443.347 136.344 446.588 135.545 448.837 133.948C451.219 132.218 452.409 130.023 452.409 127.361C452.409 124.167 450.756 121.838 447.448 120.374C444.141 118.777 438.783 117.047 431.374 115.184C423.436 113.321 416.821 111.391 411.53 109.395C406.238 107.265 401.673 104.005 397.837 99.6129C394 95.0881 392.082 89.0328 392.082 81.4471C392.082 75.0591 393.802 69.2699 397.242 64.0797C400.814 58.7563 405.973 54.5642 412.72 51.5033C419.6 48.4424 427.736 46.9119 437.129 46.9119C451.02 46.9119 461.935 50.3721 469.872 57.2924C477.942 64.2128 482.573 73.3955 483.763 84.8407H452.409C451.88 80.9813 450.16 77.9203 447.25 75.6579C444.471 73.3955 440.767 72.2643 436.137 72.2643C432.168 72.2643 429.125 73.0628 427.008 74.6598C424.892 76.1237 423.833 78.1865 423.833 80.8482C423.833 84.0422 425.487 86.4377 428.794 88.0347C432.234 89.6317 437.526 91.2287 444.67 92.8257C452.872 94.955 459.553 97.0843 464.713 99.2137C469.872 101.21 474.37 104.537 478.207 109.195C482.176 113.72 484.227 119.842 484.359 127.56C484.359 134.082 482.507 139.937 478.802 145.127C475.23 150.185 470.005 154.177 463.125 157.105C456.378 160.033 448.506 161.497 439.51 161.497Z" fill="#F2F8FD"/>
<path d="M498.372 104.204C498.372 92.6261 500.688 82.5117 505.318 73.8613C510.081 65.2109 516.629 58.5567 524.964 53.8988C533.431 49.2409 543.089 46.9119 553.937 46.9119C567.828 46.9119 579.404 50.5717 588.665 57.8913C598.058 65.2109 604.21 75.5248 607.12 88.8332H571.003C567.96 80.3158 562.073 76.0572 553.342 76.0572C547.124 76.0572 542.163 78.5192 538.458 83.4433C534.754 88.2343 532.902 95.1546 532.902 104.204C532.902 113.254 534.754 120.241 538.458 125.165C542.163 129.956 547.124 132.351 553.342 132.351C562.073 132.351 567.96 128.093 571.003 119.575H607.12C604.21 132.618 598.058 142.865 588.665 150.318C579.272 157.77 567.696 161.497 553.937 161.497C543.089 161.497 533.431 159.168 524.964 154.51C516.629 149.852 510.081 143.198 505.318 134.547C500.688 125.897 498.372 115.783 498.372 104.204Z" fill="#F2F8FD"/>
<path d="M659.206 67.074C663.175 60.9522 668.136 56.1612 674.089 52.701C680.042 49.1078 686.657 47.3112 693.934 47.3112V83.4433H684.607C676.14 83.4433 669.789 85.3065 665.556 89.0328C661.323 92.6261 659.206 99.0141 659.206 108.197V159.9H625.272V48.5089H659.206V67.074Z" fill="#F2F8FD"/>
<path d="M727.22 36.9306C721.266 36.9306 716.371 35.2006 712.535 31.7404C708.83 28.1471 706.978 23.7554 706.978 18.5651C706.978 13.2418 708.83 8.85005 712.535 5.38988C716.371 1.79663 721.266 0 727.22 0C733.041 0 737.803 1.79663 741.508 5.38988C745.344 8.85005 747.263 13.2418 747.263 18.5651C747.263 23.7554 745.344 28.1471 741.508 31.7404C737.803 35.2006 733.041 36.9306 727.22 36.9306ZM744.087 48.5089V159.9H710.153V48.5089H744.087Z" fill="#F2F8FD"/>
<path d="M802.613 64.2793C805.921 59.089 810.485 54.8969 816.306 51.7029C822.127 48.5089 828.94 46.9119 836.746 46.9119C845.874 46.9119 854.143 49.2409 861.551 53.8988C868.96 58.5567 874.781 65.2109 879.014 73.8613C883.38 82.5117 885.563 92.5595 885.563 104.005C885.563 115.45 883.38 125.564 879.014 134.348C874.781 142.998 868.96 149.719 861.551 154.51C854.143 159.168 845.874 161.497 836.746 161.497C829.072 161.497 822.259 159.9 816.306 156.706C810.485 153.512 805.921 149.386 802.613 144.329V213H768.679V48.5089H802.613V64.2793ZM851.034 104.005C851.034 95.4874 848.652 88.8332 843.89 84.0422C839.259 79.1181 833.504 76.6561 826.625 76.6561C819.878 76.6561 814.123 79.1181 809.36 84.0422C804.73 88.9663 802.415 95.687 802.415 104.204C802.415 112.722 804.73 119.442 809.36 124.366C814.123 129.291 819.878 131.753 826.625 131.753C833.372 131.753 839.127 129.291 843.89 124.366C848.652 119.309 851.034 112.522 851.034 104.005Z" fill="#F2F8FD"/>
<path d="M965.082 130.954V159.9H947.817C935.514 159.9 925.922 156.905 919.043 150.917C912.163 144.795 908.724 134.88 908.724 121.172V76.8557H895.229V48.5089H908.724V21.3599H942.658V48.5089H964.884V76.8557H942.658V121.572C942.658 124.899 943.452 127.294 945.039 128.758C946.627 130.222 949.273 130.954 952.977 130.954H965.082Z" fill="#F2F8FD"/>
<path d="M1001.05 36.9306C995.097 36.9306 990.202 35.2006 986.365 31.7404C982.661 28.1471 980.809 23.7554 980.809 18.5651C980.809 13.2418 982.661 8.85005 986.365 5.38988C990.202 1.79663 995.097 0 1001.05 0C1006.87 0 1011.63 1.79663 1015.34 5.38988C1019.17 8.85005 1021.09 13.2418 1021.09 18.5651C1021.09 23.7554 1019.17 28.1471 1015.34 31.7404C1011.63 35.2006 1006.87 36.9306 1001.05 36.9306ZM1017.92 48.5089V159.9H983.984V48.5089H1017.92Z" fill="#F2F8FD"/>
<path d="M1092.91 161.497C1082.07 161.497 1072.28 159.168 1063.54 154.51C1054.95 149.852 1048.13 143.198 1043.1 134.547C1038.21 125.897 1035.76 115.783 1035.76 104.204C1035.76 92.7591 1038.28 82.7113 1043.3 74.0609C1048.33 65.2774 1055.21 58.5567 1063.94 53.8988C1072.67 49.2409 1082.46 46.9119 1093.31 46.9119C1104.16 46.9119 1113.95 49.2409 1122.68 53.8988C1131.41 58.5567 1138.29 65.2774 1143.32 74.0609C1148.35 82.7113 1150.86 92.7591 1150.86 104.204C1150.86 115.649 1148.28 125.764 1143.12 134.547C1138.09 143.198 1131.15 149.852 1122.28 154.51C1113.55 159.168 1103.76 161.497 1092.91 161.497ZM1092.91 131.952C1099.4 131.952 1104.89 129.557 1109.39 124.766C1114.02 119.975 1116.33 113.121 1116.33 104.204C1116.33 95.2877 1114.08 88.4339 1109.58 83.6429C1105.22 78.8519 1099.79 76.4564 1093.31 76.4564C1086.7 76.4564 1081.21 78.8519 1076.84 83.6429C1072.47 88.3008 1070.29 95.1546 1070.29 104.204C1070.29 113.121 1072.41 119.975 1076.64 124.766C1081.01 129.557 1086.43 131.952 1092.91 131.952Z" fill="#F2F8FD"/>
<path d="M1236.33 47.3112C1249.3 47.3112 1259.62 51.5698 1267.29 60.0872C1275.1 68.4714 1279 80.0497 1279 94.8219V159.9H1245.26V99.4133C1245.26 91.9606 1243.35 86.1715 1239.51 82.0459C1235.67 77.9203 1230.51 75.8575 1224.03 75.8575C1217.55 75.8575 1212.39 77.9203 1208.55 82.0459C1204.72 86.1715 1202.8 91.9606 1202.8 99.4133V159.9H1168.86V48.5089H1202.8V63.2812C1206.24 58.3571 1210.87 54.4977 1216.69 51.7029C1222.51 48.7751 1229.06 47.3112 1236.33 47.3112Z" fill="#F2F8FD"/>
</g>
</svg>
