<svg width="1440" height="498" fill="none" xmlns="http://www.w3.org/2000/svg"><path opacity=".12" d="M199.42 498c131.709 0 232.97-84.694 252.089-209.363H312.01c-14.162 52.849-57.357 87.404-112.59 87.404-70.104 0-121.796-53.527-121.796-126.702 0-73.176 51.692-127.38 121.796-127.38 52.4 0 94.887 31.845 111.882 79.951h138.791C429.558 81.984 329.005 0 199.42 0 48.59 0-64 107.053-64 249.339-64 390.947 48.59 498 199.42 498zm339.492-12.196h138.791V11.518H538.912v474.286zm395.345-119.249V11.518H795.466v474.286h315.114V366.555H934.257zM1504 11.518h-406.46v117.894h134.54v356.392h137.38V129.412H1504V11.518z" fill="#fff" fill-opacity=".95"/></svg>