<svg width="556" height="270" fill="none" xmlns="http://www.w3.org/2000/svg"><path opacity=".1" d="M493.966 156.601a274.25 274.25 0 01-2.93 43.266c-.14.965-.296 1.931-.461 2.871-1.035 6.264-2.296 12.101-3.722 17.495-.252.923-.504 1.836-.756 2.732-5.487 19.193-13.287 32.19-21.608 36.958H115.107s-29.78-25.83-35.754-62.736a59.713 59.713 0 01-.41-2.828c-2.32-18.365 1.418-39.28 17.504-61.039 7.339-9.901 16.982-16.8 28.06-21.542a81.22 81.22 0 012.608-1.052c16.425-6.43 35.72-8.448 55.102-8.761h2.939c11.538-.087 23.042.391 33.911.87 1.035.061 2.061.095 3.078.139 17.617.748 33.494 1.288 45.015-.827a42.541 42.541 0 003.052-.669c12.756-3.124 19.043-10.37 14.521-25.944-8.765-30.224.209-52.366 19.747-64.598a50.96 50.96 0 013.078-1.81C318.662 3.097 332.626 0 348.417 0c1.104 0 2.226 0 3.365.052a153.221 153.221 0 0143.302 8.117 137.256 137.256 0 0122.894 9.962c.87.47 1.739.966 2.609 1.47a133.294 133.294 0 0135.189 29.58 68.922 68.922 0 011.913 2.315c25.077 30.937 36.025 70.905 36.277 105.105z" fill="#1B4FD8"/><path d="M486.853 220.268c-.252.922-.504 1.836-.756 2.732a114.518 114.518 0 01-16.156-7.238c-25.625-13.92-58.258-44.936-68.135-113.701-4.252-29.642 1.173-57.873 16.173-83.939.869.47 1.739.966 2.608 1.47-13.19 22.873-20.607 50.2-16.008 82.077 9.713 67.539 41.555 97.954 66.562 111.57 5.046 2.749 10.3 5.1 15.712 7.029z" fill="#fff"/><path d="M491.036 199.901c-.14.966-.296 1.932-.461 2.871-16.182-7.603-36.581-24.151-46.085-60.03-9.199-34.8-5.53-65.66 11.304-93.543a68.922 68.922 0 011.913 2.314c-15.973 27.014-19.373 56.89-10.434 90.481 9.017 34.356 28.294 50.408 43.763 57.907zM338.243 58.717c1.356 45.64-3.835 75.125-16.843 95.64-13.625 21.489-36.354 34.478-73.692 42.108a101.88 101.88 0 01-20.581 2.149c-21.016 0-40.815-6.856-58.162-20.245-20.182-15.591-35.651-39.072-44.485-66.556.87-.365 1.739-.722 2.609-1.052 8.695 27.022 23.816 50.112 43.606 65.389 22.234 17.192 48.693 23.264 76.457 17.583 69.448-14.216 90.9-46.98 88.3-134.938-.687-24.96 3.66-44.657 12.964-58.795 1.105 0 2.226 0 3.365.052-9.721 13.738-14.26 33.4-13.538 58.665z" fill="#fff"/><path d="M251.613 153.165a54.54 54.54 0 01-8.904.731c-22.39 0-48.023-13.581-60.501-51.896h2.939c13.747 41.134 43.224 52.2 66.005 48.433 30.773-5.046 60.371-36.749 54.65-85.574-2.47-20.94-2.609-38.82-1.261-53.94a50.965 50.965 0 013.078-1.81c-1.53 15.4-1.583 33.748.965 55.42 5.922 50.53-24.938 83.372-56.971 88.636z" fill="#fff"/><path d="M270.264 101.443a35.693 35.693 0 01-6.208 14.146c-4.296 5.638-10.33 8.97-17.93 9.909-.894.111-1.794.166-2.695.166a19.597 19.597 0 01-12.878-4.829c-5.069-4.263-8.765-10.875-11.451-18.035 1.034.061 2.06.096 3.078.139 2.495 6.334 5.799 12.067 10.182 15.747a16.905 16.905 0 0013.408 4.037c6.834-.87 12.225-3.811 16.06-8.813a31.923 31.923 0 005.365-11.797 41.585 41.585 0 003.069-.67zM161.54 259.958h-3.052c-12.556-28.771-30.668-47.955-53.911-57.046a88.265 88.265 0 00-25.216-5.69 59.973 59.973 0 01-.408-2.828 91.003 91.003 0 0126.685 5.916c24.234 9.492 43.05 29.528 55.902 59.648z" fill="#fff"/><path d="M100.934 173.236l-8.695 8.926-3.548-5.316-1.2-1.74c-3.852.966-9.565-6.568-11.817-10.588-2.252-4.019 6.835-10.257 6.835-10.257-1.487-4.454-7.452-7.256-7.617-8.491-.165-1.236 1.313-2.532 6.73 0 5.417 2.531 10.156 11.562 10.156 11.562.965-2.61-3.322-9.709-2.54-10.51.784-.8 4.992.183 8.218 7.004s1.322 14.894 1.322 14.894l.043.07 2.113 4.446z" fill="#98B2D8"/><path d="M82.161 153.443s6.426 7.36 5.739 10.249c-.687 2.888-3.939-.47-3.939-.47s2.982 3.48 2.017 4.585c-.965 1.105-4.547-1.74-4.547-1.74s4.286 5.342 0 4.559c-4.287-.783-9.678-8.9-5.54-9.675 0 0-.504-5.898 3.261-3.88-.026-.035-1.686-4.95 3.01-3.628z" fill="#B1C3E8"/><path d="M160.279 260.01s7.243-21.159 3.434-42.013a.539.539 0 010-.139.843.843 0 000-.174c-.104-.539-.217-1.087-.33-1.635a87.85 87.85 0 01-10 7.316c-6.956 4.35-16.242 8.7-23.364 6.691-13.042-3.741-32.172-29.18-41.084-49.269a23.293 23.293 0 0113.303-8.7s17.738 23.647 33.381 29.25a115.25 115.25 0 0014.86-24.726c4.174-9.387 10.434-15.329 18.33-18.522a42.628 42.628 0 0114.938-2.941l13.712-6.403c1.9.051 3.795.205 5.678.461 6.435.87 17.113 3.193 25.756 9.779 13.295 10.144 32.441 101.051 32.441 101.051l-101.055-.026z" fill="#B7CAE5"/><path d="M163.687 217.858c-.113-.609-.244-1.209-.365-1.81a87.98 87.98 0 01-10 7.317l4.061-34.635c4.104 15.86 6.087 27.71 6.304 29.128z" fill="#97B3D1"/><path d="M203.137 149.18c-2.113 13.45-15.564 25.874-25.285 25.709-7.826-.139-8.956-11.31-9.043-16.826a42.623 42.623 0 0114.938-2.941l13.712-6.403c1.9.051 3.795.205 5.678.461z" fill="#CED9EA"/><path d="M179.877 246.264s30.877-32.138 32.172-65.938l9.148 28.476-3.479 29.658-37.841 7.804z" fill="#97B3D1"/><path d="M178.982 260.001h-34.564a7.066 7.066 0 015.426-6.298c5.339-1.584 8.748-8.231 24.764-7.361l4.374 13.659z" fill="#98B2D8"/><path d="M214.346 228.22s-16.278 9.37-41.92 16.025c0 0-3.565 8.579 2.678 15.756h49.615l-10.373-31.781z" fill="#B6C5DD"/><path d="M153.714 129.988s-7.374-10.18-6.47-17.035c.905-6.856 7.252-5.22 7.252-5.22s-.295-16.66 15.112-12.398c0 0-.339-5.09 3.026-4.95 3.365.14 8.643 7.83 8.643 7.83s1.313-5.742 3.591-4.35c2.279 1.392 2.983 7.273 7.739 10.127 4.756 2.853 7.704 6.534 3.965 18.096-3.739 11.562-.93 12.371-2.269 18.27-1.261 5.638-2.278 9.066-5.774 9.379-3.495.313-16.877-13.807-16.877-13.807l-17.938-5.942z" fill="#5D7CA0"/><path d="M197.46 148.719s-8.582 20.836-17.599 19.262c-4.487-.783-5.478-3.48-5.522-6.682-.043-4.133 1.565-8.978-.869-11.014l10.808-15.365 2.382-3.393a55.996 55.996 0 0010.8 17.192z" fill="#98B2D8"/><path d="M174.339 161.299c-.043-4.132 1.565-8.978-.869-11.014l10.808-15.364c.93 1.078 1.582 3.001 1.852 6.011 1.426 15.869-6.956 19.558-11.791 20.367z" fill="#799CBF"/><path d="M152.661 121.888s2.922 26.831 13.912 32.878c9.513 5.22 21.06-10.632 20.825-18.488 0 0 4.148-3.167 3.479-8.291-.67-5.125-6.087-3.428-6.757 4.837 0 0-4.408-.313-5.217-10.649-2.765 2.297-5.756 1.592-8.886-1.201 0 0-1.557 5.751-9.565-.965-.07 0-3.069 4.106-7.791 1.879z" fill="#98B2D8"/><path d="M410.796 225.854s14.13 23.585 19.025 35.026H379.98a204.03 204.03 0 00-7.825-27.031l38.641-7.995z" fill="#5D7CA0"/><path d="M391.371 231.108c-2.73 9.04-6.886 16.757-13.043 22.621l1.687 7.16-60.284-.757 6.704-41.282 64.936 12.258zm94.56-128.699s1.992-12.502 5.957-16.94c3.965-4.436 14.781-10.996 16.103-8.7 1.322 2.297-9.565 9.658-9.565 9.658s4.896-1.166 9.096 6.09c4.199 7.255-9.287 12.858-9.287 12.858l-2.687 6.09-10.73-6.777 1.113-2.279z" fill="#799CBF"/><path d="M499.808 86.696s-6.086 6.16-5.165 7.917c.922 1.758 4.218-1.009 4.218-1.009s-2.722 4.15-.609 5.22c2.113 1.07 5.374-2.505 5.374-2.505s-2.722 3.767-1.157 4.454c1.565.687 9.93-5.22 8.434-6.595-1.495-1.374-2.313-.252-2.313-.252s1.74-2.95 0-3.889a2.012 2.012 0 00-2.336.17 2.03 2.03 0 00-.516.648s1.427-2.262.27-3.14c-1.156-.88-3.609.251-3.609.251s.809-3.775-2.591-1.27z" fill="#98B2D8"/><path d="M494.192 86.548c-1.835-.522-5.565 3.297-5.565 3.297-1.47 1.897-1.739 5.655-1.835 7.395-.182 4.855-2.017 7.43-2.017 7.43l5.443 3.48c4.217-5.437 2.843-12.397 2.157-14.86 2.06-3.123 2.912-6.429 1.817-6.742z" fill="#98B2D8"/><path d="M497.722 112.727s-18.207 48.503-47.128 52.8a148.506 148.506 0 01-29.563 1.741c-8.148-.427-12.174-1.654-12.452-1.741 0 0-7.939 14.791-2.8 36.054s7 25.673 7 25.673-38.998 28.711-70.709 2.61l-28.608-44.553-8.964-13.92s8.234-27.057 31.45-44.64a71.078 71.078 0 0133.042-13.92 83.855 83.855 0 0122.607-.209s6.304 1.784 16.521 5.534a366.499 366.499 0 0119.617 7.83c21.216 9.048 27.024 11.762 27.024 11.762s22.608-22.333 28.46-35.879c.035 0 11.704 1.183 14.503 10.858z" fill="#B7CAE5"/><path d="M351.686 134.851c-.105 10.866-2.426 21.402-3.479 29.58l17.991-3.645 27.99 27.684s3.539 8.117-3.678 9.517c-5.652 1.097-32.086 4.777-32.086 4.777-6.086 8.291-8.843 20.984-11.886 33.295L319.705 189.4l31.981-54.549z" fill="#97B3D1"/><path d="M391.545 137.461c-12.53-3.184-19.129-14.46-22.607-24.691a83.854 83.854 0 0122.607-.209s6.304 1.784 16.521 5.533c1.235 8.979.8 23.778-16.521 19.367z" fill="#CED9EA"/><path d="M424.448 147.405a136.985 136.985 0 00-3.4 19.88c-8.147-.426-12.173-1.653-12.451-1.74 0 0 7.104-12.189 15.851-18.14z" fill="#97B3D1"/><path d="M385.787 142.153l-31.253 4.54a1.695 1.695 0 00-1.434 1.922l6.905 47.595c.135.927.995 1.57 1.922 1.435l31.253-4.539a1.698 1.698 0 001.435-1.923l-6.906-47.595a1.696 1.696 0 00-1.922-1.435z" fill="#F2F4F9"/><path d="M370.416 162.813l4.782-1.87s4.557-12.607 10.217-4.664c0 0 3.904-2.34 3.791-3.619-.113-1.279-.174-3.158-.174-3.158s7.913 1.74 6.148 12.763c-1.765 11.023-8.539 9.657-15.191 9.77l-8.286 3.271-1.287-12.493z" fill="#98B2D8"/><path d="M373.511 178.221s-37.267 24.691-53.371 12.78a63.408 63.408 0 01-6.678-5.69l-8.964-13.92s8.234-27.057 31.45-44.64c7.695-3.48 15.738-2.201 16.156 4.933.982 16.991-13.547 27.44-15.339 35.148l33.407-6.768s5.461 5.716 3.339 18.157z" fill="#C1CFE5"/><path d="M417.37 86.74s5.321-11.389 3.147-17.949c-2.173-6.56-8.104-3.784-8.104-3.784s-2.869-16.417-17.216-9.327c0 0-.626-5.063-3.904-4.297-3.278.765-6.965 9.352-6.965 9.352s-2.365-5.385-4.348-3.628c-1.982 1.758-1.565 7.708-5.704 11.397-4.139 3.69-6.338 7.874-.495 18.523 5.843 10.649 3.243 11.98 5.669 17.556 2.304 5.29 3.948 8.474 7.434 8.126 3.487-.348 13.965-16.739 13.965-16.739l16.521-9.23z" fill="#5D7CA0"/><path d="M377.885 113.371s8.234 20.314 21.19 16.991c4.4-1.14 4.426-5.873 3.878-8.987-.739-4.072-3.235-8.526-1.217-10.98l-13.504-13.05-2.982-2.88a56.029 56.029 0 01-7.365 18.906z" fill="#98B2D8"/><path d="M402.952 121.375c-.739-4.072-3.234-8.527-1.217-10.98l-13.504-13.05c-.713 1.235-.991 3.236-.687 6.247 1.574 15.851 10.504 17.896 15.408 17.783z" fill="#799CBF"/><path d="M416.83 78.588s2.174 26.9-7.434 34.896c-8.356 6.96-22.686-6.482-23.938-14.234 0 0-4.661-2.331-4.947-7.5-.287-5.167 5.356-4.514 7.547 3.48 0 0 4.269-1.139 3.13-11.431 3.148 1.74 5.948.47 8.504-2.854 0 0 2.609 5.351 9.208-2.757 0 0 3.739 3.462 7.93.4z" fill="#98B2D8"/><path d="M348.46 245.133a18.24 18.24 0 01-1.739 4.533c-6.756 12.363-36.05 10.335-36.05 10.335h-66.84c-27.668 0-38.755-.687-41.407-9.326-.148-.486-.27-.98-.365-1.479-1.869-10.04 7.469-42.726 24.729-65.137 8.835-11.458 17.964-17.496 26.086-20.654a52.426 52.426 0 0119.442-3.402c8.487 0 15.339.626 21.147 1.992 15.599 3.654 23.755 12.476 35.998 28.128 14.982 19.131 22.347 41.586 18.999 55.01z" fill="url(#paint0_linear)"/><path d="M230.875 237.198c7.261-11.423 9.565-27.257 11.556-43.335l6.296 32.695h54.606l10.034-32.695c-.235 15.278 1.861 30.268 9.104 44.597 0 0-35.703 40.429-91.596-1.262z" fill="#1F395E" opacity=".22"/><path d="M247.457 260.01h-3.626c-27.668 0-38.755-.687-41.407-9.326-1.443-6.795.391-13.921 8.695-16.069 12.965-3.341 35.538 9.804 35.538 9.804l.8 15.591z" fill="url(#paint1_linear)"/><path d="M348.46 245.133a18.24 18.24 0 01-1.739 4.533c-6.756 12.363-36.05 10.336-36.05 10.336h-19.825l2.521-16.809s35.172-16.295 47.772-11.214c6.165 2.488 8.052 7.647 7.321 13.154z" fill="url(#paint2_linear)"/><path d="M293.48 162.004c-.591 7.83-3.834 22.176-19.66 22.176-16.677 0-20.207-14.111-20.929-20.767a52.448 52.448 0 0119.443-3.402c8.521 0 15.338.627 21.146 1.993z" fill="#1F395E"/><path d="M307.889 260.001h-64.058a2.788 2.788 0 01-1.98-.82 2.804 2.804 0 010-3.962 2.802 2.802 0 011.98-.821h64.058a2.8 2.8 0 012.586 3.874 2.788 2.788 0 01-1.515 1.516c-.34.141-.704.213-1.071.213z" fill="#fff"/><path d="M315.636 211.82l-.235 1.453-6.643 41.117h-65.292l-6.574-42.631a3.464 3.464 0 01.103-1.467c.138-.477.377-.918.7-1.294a3.474 3.474 0 012.605-1.215h71.945a3.476 3.476 0 012.62 1.241 3.474 3.474 0 01.771 2.796z" fill="url(#paint3_radial)"/><path d="M315.41 213.291l-6.643 41.116h-64.936l22.008-2.297a59.2 59.2 0 0030.367-12.274 59.25 59.25 0 0019.204-26.545z" fill="#1B4FD8"/><path d="M273.551 178.221h-.426a15.32 15.32 0 01-6.304-1.271 11.374 11.374 0 01-6.513-10.666v-1.357c0-3.741-.226-6.847-.226-6.847v-1.688l23.521-1.044c.074 2.958.388 5.906.939 8.813a.46.46 0 010 .105 11.674 11.674 0 01-6.145 12.695 11.66 11.66 0 01-4.846 1.26z" fill="#FEDFC5"/><path d="M284.559 164.161c-9.8 11.511-19.869 4.785-24.234.766 0-3.741-.226-6.847-.226-6.847v-1.688l23.521-1.044c.074 2.958.388 5.906.939 8.813z" fill="#FFC99C"/><path d="M252.901 144.96s7.295 20.567 19.459 20.567c12.165 0 17.191-22.15 17.191-22.15v-19.262H251.97l.931 20.845zm-3.914-11.606s-3.583.653-2.974 4.768 4.348 9.109 7.382 6.482l-4.408-11.25z" fill="#FEDFC5"/><path d="M547.667 52.296h-47.789a3.322 3.322 0 00-3.321 3.323v60.422a3.322 3.322 0 003.321 3.324h47.789a3.323 3.323 0 003.322-3.324V55.619a3.323 3.323 0 00-3.322-3.323z" fill="#B7CAE5" opacity=".2"/><path d="M292.42 131.632s3.634.156 3.591 4.35c-.044 4.193-3.07 9.57-6.435 7.421l2.844-11.771z" fill="#FEDFC5"/><path d="M292.42 131.632a96.866 96.866 0 01-2.869 11.745s-2.879-.583-3.818-8.169a10.317 10.317 0 01-10.095-4.707s-.93 5.838-6.956 1.688c-4.008 3.28-8.747 3.619-14.121 1.4 0 0 .87 7.656-1.661 11.31 0 0-.93-3.027-3.913-11.605a2.881 2.881 0 00-2.095 1.209s-6.443-12.615-3.409-18.679c3.035-6.064 7.113-3.741 7.113-3.741s-1.513-8.291 7.469-11.31c8.982-3.02 8.982-7.126 10.382-6.308 1.4.818 1.983 3.854 1.983 3.854s15.521-1.635 19.721 15.06c0 0 11.208.357 4.556 19.14 0 .061-.435-.713-2.287-.887z" fill="url(#paint4_linear)"/><path d="M232.457 149.11h-58.64c-.922 0-1.807.367-2.459 1.02a3.475 3.475 0 00-1.019 2.46v35.018a3.48 3.48 0 003.478 3.48h40.45l10.556 9.353a1.037 1.037 0 001.258.081 1.038 1.038 0 00.403-1.195l-2.852-8.239h8.825a3.475 3.475 0 003.478-3.48v-35.035a3.482 3.482 0 00-1.024-2.45 3.482 3.482 0 00-2.454-1.013z" fill="#9ABCED" opacity=".6"/><path d="M192.008 158.481h-13.504a.918.918 0 01-.854-.568.9.9 0 01-.067-.355.923.923 0 01.921-.922h13.504a.923.923 0 010 1.845zm33.319 7.986h-39.128a.91.91 0 01-.854-.568.925.925 0 01.202-1.003.928.928 0 01.652-.265h39.128a.87.87 0 01.913.914.925.925 0 01-.264.651.917.917 0 01-.649.271zm0 5.69h-46.824a.919.919 0 01-.921-.922.9.9 0 01.267-.655.917.917 0 01.654-.267h46.824c.121 0 .24.023.351.07a.899.899 0 01.495.499.927.927 0 01.067.353.923.923 0 01-.913.922zm0 5.681h-46.824a.919.919 0 01-.921-.922.911.911 0 01.921-.922h46.824a.916.916 0 01.846.57.923.923 0 01-.846 1.274zm0 5.681h-46.824a.918.918 0 01-.854-.568.895.895 0 01-.067-.354.921.921 0 01.921-.922h46.824a.918.918 0 01.913.922.922.922 0 01-.264.652.93.93 0 01-.649.27z" fill="#9ABCED"/><path opacity=".2" d="M492.435 260.001H66.797c-.84 0-1.522.682-1.522 1.523v6.064c0 .841.681 1.522 1.522 1.522h425.638c.841 0 1.522-.681 1.522-1.522v-6.064c0-.841-.681-1.523-1.522-1.523z" fill="#1B4FD8"/><path d="M387.136 237.512h18.199v15.764a6.65 6.65 0 01-6.652 6.656h-4.904a6.658 6.658 0 01-6.652-6.656v-15.764h.009z" fill="url(#paint5_linear)"/><path d="M392.91 237.512v-4.864a1.443 1.443 0 011.443-1.444h1.844a1.443 1.443 0 001.443-1.444v-1.818a1.446 1.446 0 00-1.443-1.445h-5.913a7.343 7.343 0 01-7.347-7.36 7.35 7.35 0 017.347-7.351h7.826a1.445 1.445 0 001.443-1.445v-.67a7.623 7.623 0 017.617-7.612 7.613 7.613 0 017.591 7.612 8.225 8.225 0 01-8.226 8.231H392.78a1.443 1.443 0 100 2.888h7.53a5.038 5.038 0 015.025 5.037v3.15a5.016 5.016 0 01-1.469 3.561 5.03 5.03 0 01-3.556 1.476 1.455 1.455 0 00-1.021.423 1.456 1.456 0 00-.423 1.021v2.054h-5.956z" fill="url(#paint6_linear)"/><path d="M379.815 144.691h-47.789a3.322 3.322 0 00-3.321 3.323v60.422a3.322 3.322 0 003.321 3.324h47.789a3.323 3.323 0 003.322-3.324v-60.422a3.323 3.323 0 00-3.322-3.323z" fill="#B7CAE5" opacity=".2"/><path opacity=".5" d="M382.841 209.541h-47.824a4.04 4.04 0 01-4.026-4.028V145.1a4.04 4.04 0 014.026-4.028h47.824a4.032 4.032 0 014.026 4.028v60.413a4.032 4.032 0 01-4.026 4.028zm-47.824-67.069c-.692 0-1.355.275-1.844.765a2.606 2.606 0 00-.764 1.845v60.413a2.606 2.606 0 002.608 2.611h47.824a2.61 2.61 0 002.608-2.611V145.1a2.612 2.612 0 00-2.608-2.61l-47.824-.018z" fill="#4F7EB7"/><g style="mix-blend-mode:multiply"><path d="M347.486 166.171H336.87v-12.745h10.616v12.745zm-9.243-1.427h7.826v-9.883h-7.826v9.883z" fill="#7CA6D8" opacity=".71"/><path d="M344.817 162.204l-3.157-3.524 1.044-.939 1.913 2.14a18.697 18.697 0 017.825-5.707l.531 1.296c-5.626 2.323-7.687 5.855-7.713 5.89l-.443.844z" fill="url(#paint7_radial)"/><path d="M374.572 158.193h-16.478a1.029 1.029 0 01-.734-.306 1.022 1.022 0 01-.3-.738 1.022 1.022 0 01.636-.964c.126-.053.262-.08.398-.08h16.478a1.029 1.029 0 01.735.306 1.035 1.035 0 01.299.738 1.035 1.035 0 01-1.034 1.044zm0 5.046h-16.478a1.034 1.034 0 01-1.034-1.035 1.012 1.012 0 01.076-.399 1.02 1.02 0 01.958-.645h16.478a1.029 1.029 0 01.735.306 1.025 1.025 0 01.299.738 1.036 1.036 0 01-1.034 1.035z" fill="#9ABCED"/></g><g style="mix-blend-mode:multiply"><path d="M347.486 185.642H336.87v-12.719h10.616v12.719zm-9.243-1.401h7.826v-9.918h-7.826v9.918z" fill="#7CA6D8" opacity=".71"/><path d="M344.817 181.701l-3.157-3.48 1.044-.94 1.913 2.141a18.699 18.699 0 017.825-5.708l.531 1.297c-5.626 2.323-7.687 5.855-7.713 5.89l-.443.8z" fill="url(#paint8_radial)"/><path d="M374.572 177.69h-16.478a1.029 1.029 0 01-.734-.306 1.022 1.022 0 01-.3-.738 1.012 1.012 0 01.076-.399 1.02 1.02 0 01.958-.645h16.478a1.022 1.022 0 01.739.285 1.02 1.02 0 01.322.724 1.038 1.038 0 01-1.061 1.079zm0 5.011h-16.478a1.034 1.034 0 01-1.034-1.035 1.012 1.012 0 01.076-.399 1.04 1.04 0 01.958-.645h16.478c.136 0 .272.027.398.079a1.025 1.025 0 01.636.965 1.036 1.036 0 01-1.034 1.035z" fill="#9ABCED"/><path d="M546.143 64h-13.307a.725.725 0 01-.322-.077.845.845 0 01-.272-.217 1.024 1.024 0 01-.18-.324A1.142 1.142 0 01532 63c-.001-.13.02-.26.062-.382.041-.121.103-.231.18-.324a.845.845 0 01.272-.217.724.724 0 01.322-.077h13.307a.72.72 0 01.321.066.843.843 0 01.276.207c.079.09.143.197.188.316.044.12.069.248.071.378a1.16 1.16 0 01-.055.398 1.031 1.031 0 01-.184.339.841.841 0 01-.283.224.72.72 0 01-.334.072zm0 9h-13.307a.725.725 0 01-.322-.077.845.845 0 01-.272-.217 1.024 1.024 0 01-.18-.324A1.142 1.142 0 01532 72c-.001-.13.02-.26.062-.382.041-.121.103-.231.18-.324a.845.845 0 01.272-.217.724.724 0 01.322-.077h13.307a.72.72 0 01.321.066.843.843 0 01.276.207c.079.09.143.197.188.316.044.12.069.248.071.378a1.16 1.16 0 01-.055.398 1.031 1.031 0 01-.184.339.841.841 0 01-.283.224.72.72 0 01-.334.072zm.02-5h-13.326a.776.776 0 01-.592-.292 1.099 1.099 0 01-.245-.704c-.001-.131.02-.262.062-.383.041-.122.103-.233.181-.326a.836.836 0 01.272-.218.721.721 0 01.322-.077h13.326c.111 0 .22.026.322.077a.82.82 0 01.272.218c.078.093.14.204.181.326.042.121.063.252.062.383 0 .264-.088.518-.245.704a.776.776 0 01-.592.292zm0 9h-13.326a.776.776 0 01-.592-.292 1.099 1.099 0 01-.245-.704c-.001-.131.02-.262.062-.383.041-.122.103-.233.181-.326a.836.836 0 01.272-.218.721.721 0 01.322-.077h13.326c.111 0 .22.026.322.077a.82.82 0 01.272.218c.078.093.14.204.181.326.042.121.063.252.062.383 0 .264-.088.518-.245.704a.776.776 0 01-.592.292z" fill="#9ABCED" opacity=".5"/></g><g style="mix-blend-mode:multiply"><path d="M347.486 205.139H336.87v-12.72h10.616v12.72zm-9.243-1.401h7.826v-9.918h-7.826v9.918z" fill="#7CA6D8" opacity=".71"/><path d="M344.817 201.198l-3.157-3.48 1.044-.94 1.913 2.14a18.705 18.705 0 017.825-5.707l.531 1.296c-5.626 2.315-7.687 5.847-7.713 5.89l-.443.801z" fill="url(#paint9_radial)"/><path d="M374.572 197.178h-16.478a1.034 1.034 0 01-1.034-1.035 1.008 1.008 0 01.076-.399 1.04 1.04 0 01.958-.645h16.478c.136 0 .272.027.398.079a1.025 1.025 0 01.636.965 1.036 1.036 0 01-1.034 1.035zm0 5.055h-16.478a1.034 1.034 0 01-1.034-1.035 1.008 1.008 0 01.076-.399 1.04 1.04 0 01.958-.645h16.478c.136 0 .272.027.398.079a1.025 1.025 0 01.636.965 1.038 1.038 0 01-1.034 1.035z" fill="#9ABCED"/></g><path opacity=".5" d="M551.858 116.25h-47.78a4.04 4.04 0 01-4.026-4.028V51.809a4.03 4.03 0 014.026-4.028h47.78a4.025 4.025 0 014.026 4.028v60.422a4.037 4.037 0 01-4.026 4.019zm-47.78-67.069a2.606 2.606 0 00-2.608 2.61v60.44c0 .692.274 1.356.764 1.845.489.49 1.152.765 1.844.765h47.78a2.607 2.607 0 002.609-2.61V51.809a2.612 2.612 0 00-2.609-2.61l-47.78-.017z" fill="#4F7EB7"/><g style="mix-blend-mode:multiply" opacity=".5"><path d="M519.641 72.16a8.404 8.404 0 00-6.235-10.116 8.4 8.4 0 00-10.111 6.238 8.4 8.4 0 1016.346 3.878z" fill="#7CA6D8" opacity=".5"/><path d="M513.677 69.114l5.599-9.953c5.131 1.287 7.583 6.133 5.131 11.092l-10.73-1.14z" fill="#1B4FD8" opacity=".5"/></g><path d="M139.001 21.41H91.212a3.322 3.322 0 00-3.321 3.324v71.628a3.322 3.322 0 003.321 3.323h47.789a3.323 3.323 0 003.322-3.323V24.734a3.323 3.323 0 00-3.322-3.323z" fill="#B7CAE5" opacity=".2"/><path opacity=".5" d="M135.967 97.354h-47.78a4.025 4.025 0 01-4.026-4.028V21.75a4.03 4.03 0 014.025-4.028h47.824a4.027 4.027 0 013.983 4.028v71.62a4.036 4.036 0 01-4.026 3.985zm-47.78-78.301a2.608 2.608 0 00-2.609 2.61v71.619a2.61 2.61 0 002.608 2.61h47.824a2.61 2.61 0 002.609-2.61V21.75a2.612 2.612 0 00-2.609-2.61l-47.823-.087z" fill="#4F7EB7"/><path d="M372.468 31.085H284.95a5.775 5.775 0 00-5.773 5.777v58.143a5.775 5.775 0 005.773 5.777h87.518a5.775 5.775 0 005.773-5.777V36.862a5.775 5.775 0 00-5.773-5.777z" fill="#F1F4FA" opacity=".5"/><g opacity=".5"><path opacity=".5" d="M331 85.533V93l-23-6.533V79l23 6.533z" fill="#1B4FD8"/><path opacity=".5" d="M353 79v7.467L331 93v-7.467L353 79z" fill="url(#paint10_radial)"/><path opacity=".2" d="M353 79v7.467L331 93v-7.467L353 79z" fill="#44454E" fill-opacity=".85"/><path opacity=".5" d="M330.5 72l22.5 6.5-22.5 6.5-22.5-6.5 22.5-6.5z" fill="#7A92E3"/><path d="M331 78h-1V59h1v19z" fill="#44454E" fill-opacity=".85"/><path d="M330.5 58l4.5 4.614L333.648 64l-3.148-3.228L327.352 64 326 62.614 330.5 58zm-20 0l4.5 4.614L313.648 64l-3.148-3.228L307.352 64 306 62.614 310.5 58z" fill="#44454E" fill-opacity=".85"/><path d="M309 60h1.846v3.733c0 1.544 1.243 2.8 2.769 2.8h2.77c2.545 0 4.615 2.094 4.615 4.667V74h-1.846v-2.8c0-1.544-1.243-2.8-2.769-2.8h-2.77c-2.545 0-4.615-2.094-4.615-4.667V60zm42-2l-4 4.614L348.202 64 351 60.772 353.798 64 355 62.614 351 58z" fill="#44454E" fill-opacity=".85"/><path d="M352 60h-1.846v3.733c0 1.544-1.243 2.8-2.769 2.8h-2.77c-2.545 0-4.615 2.094-4.615 4.667V74h1.846v-2.8c0-1.544 1.243-2.8 2.769-2.8h2.77c2.545 0 4.615-2.094 4.615-4.667V60z" fill="#44454E" fill-opacity=".85"/><path opacity=".1" d="M343 58V37h9.375L358 42.727V58h-15z" fill="#1B4FD8"/><path opacity=".1" d="M358 43h-6v-6l6 6zm-35 15V37h9.375L338 42.727V58h-15zm-20 0V37h9.375L318 42.727V58h-15z" fill="#1B4FD8"/><path opacity=".1" d="M338 43h-6v-6l6 6zm-20 0h-6v-6l6 6z" fill="#1B4FD8"/><path d="M325.758 45.607h9.483v1.897h-9.483v-1.897zm0 3.793h9.483v1.897h-9.483V49.4zm0-7.586h3.793v1.897h-3.793v-1.897zm-19.913 3.793h9.482v1.897h-9.482v-1.897zm0 3.793h9.482v1.897h-9.482V49.4zm0 3.794h9.482v1.896h-9.482v-1.896zm0-11.38h3.793v1.897h-3.793v-1.897zm39.827 3.793h9.483v1.897h-9.483v-1.897zm0 3.793h9.483v1.897h-9.483V49.4zm0 3.794h9.483v1.896h-9.483v-1.896zm0-11.38h3.793v1.897h-3.793v-1.897zm-19.914 11.38h1.897v1.896h-1.897v-1.896zm3.794 0h1.896v1.896h-1.896v-1.896zm3.793 0h1.896v1.896h-1.896v-1.896z" fill="#44454E" fill-opacity=".85"/></g><path opacity=".5" d="M375.494 98.31h-87.509a6.486 6.486 0 01-6.478-6.48V33.651a6.485 6.485 0 011.901-4.578 6.475 6.475 0 014.577-1.895h87.509a6.485 6.485 0 016.478 6.473v58.142a6.5 6.5 0 01-1.888 4.603 6.488 6.488 0 01-4.59 1.914zm-87.509-69.73a5.076 5.076 0 00-3.587 1.485 5.086 5.086 0 00-1.491 3.587v58.142a5.086 5.086 0 005.078 5.08h87.509a5.086 5.086 0 005.078-5.08V33.652a5.086 5.086 0 00-1.491-3.587 5.076 5.076 0 00-3.587-1.485h-87.509z" fill="#4F7EB7"/><path d="M91.603 112.57H8.764a4.67 4.67 0 00-4.669 4.672v50.199a4.67 4.67 0 004.67 4.672h82.838a4.67 4.67 0 004.67-4.672v-50.199a4.67 4.67 0 00-4.67-4.672z" fill="#B7CAE5" opacity=".2"/><path opacity=".5" d="M88.213 169.364H5.365A5.372 5.372 0 010 163.996v-50.199a5.37 5.37 0 015.365-5.368h82.848a5.37 5.37 0 015.365 5.368v50.199a5.377 5.377 0 01-5.365 5.368zM5.365 109.829a3.964 3.964 0 00-3.965 3.968v50.199a3.973 3.973 0 003.965 3.967h82.848a3.97 3.97 0 003.956-3.967v-50.199a3.969 3.969 0 00-3.965-3.968H5.364z" fill="#4F7EB7"/><g style="mix-blend-mode:multiply" opacity=".5"><path d="M37.268 140.071a11.869 11.869 0 01-16.982-.211 11.88 11.88 0 016.167-19.816 11.86 11.86 0 016.224.373l-3.809 11.31 8.4 8.344z" fill="#7CA6D8" opacity=".5"/><path d="M42.32 130.744a10.003 10.003 0 01-2.966 7.126l-7.13-7.126 3.235-9.57a10.088 10.088 0 016.86 9.57z" fill="#4F7EB7" opacity=".8"/><path d="M82.448 144.247H55.145v-23.064a.708.708 0 01.412-.721.696.696 0 01.575 0 .696.696 0 01.384.428.71.71 0 01.029.293v21.663h25.903a.704.704 0 010 1.401z" fill="#9ABCED" opacity=".5"/><path d="M64.362 132.363h-3.504v10.483h3.504v-10.483z" fill="#9ABCED" opacity=".5"/><path d="M71.596 127.047h-3.504v15.799h3.504v-15.799z" fill="#4F7EB7" opacity=".8"/><path d="M78.718 134.947h-3.505v7.899h3.505v-7.899zm-44.633 17.547H17.634a1.227 1.227 0 000 2.454h16.451a1.226 1.226 0 000-2.454zm25.085 0H42.72a1.227 1.227 0 000 2.454h16.45a1.226 1.226 0 000-2.454zm23.573 0H66.292a1.227 1.227 0 000 2.454h16.451a1.226 1.226 0 000-2.454zM44.876 163.7H28.425a1.226 1.226 0 01-1.226-1.218 1.22 1.22 0 01.359-.867 1.215 1.215 0 01.867-.36h16.451a1.226 1.226 0 011.209 1.227 1.228 1.228 0 01-1.209 1.218zm23.573 0H51.998a1.226 1.226 0 01-1.226-1.218 1.227 1.227 0 011.226-1.227h16.45a1.227 1.227 0 011.227 1.227 1.227 1.227 0 01-1.226 1.218z" fill="#9ABCED" opacity=".5"/></g><path d="M105.962 67H92.038c-.573 0-1.038.448-1.038 1s.465 1 1.038 1h13.924c.573 0 1.038-.448 1.038-1s-.465-1-1.038-1zm0 11H92.038c-.573 0-1.038.448-1.038 1s.465 1 1.038 1h13.924c.573 0 1.038-.448 1.038-1s-.465-1-1.038-1zm0-5H92.038c-.274 0-.537-.105-.731-.291a.987.987 0 01-.307-.705c0-.267.11-.522.304-.71.195-.188.459-.294.734-.294h13.924c.276 0 .539.106.734.294a.986.986 0 01.304.71.986.986 0 01-.307.705 1.055 1.055 0 01-.731.291zm0 11H92.038c-.274 0-.537-.105-.731-.291a.987.987 0 01-.307-.705c0-.267.11-.522.304-.71.195-.188.459-.294.734-.294h13.924c.276 0 .539.106.734.294a.986.986 0 01.304.71.986.986 0 01-.307.705 1.055 1.055 0 01-.731.291zm24-53h-13.924c-.573 0-1.038.448-1.038 1s.465 1 1.038 1h13.924c.573 0 1.038-.448 1.038-1s-.465-1-1.038-1zm0 11h-13.924c-.573 0-1.038.448-1.038 1s.465 1 1.038 1h13.924c.573 0 1.038-.448 1.038-1s-.465-1-1.038-1zm0-5h-13.924c-.274 0-.537-.105-.731-.291a.986.986 0 01-.307-.705c0-.267.109-.522.304-.71.195-.188.458-.294.734-.294h13.924c.276 0 .539.106.734.294a.986.986 0 01.304.71.986.986 0 01-.307.705 1.055 1.055 0 01-.731.291zm0 11h-13.924c-.274 0-.537-.105-.731-.291a.986.986 0 01-.307-.705c0-.267.109-.522.304-.71.195-.188.458-.294.734-.294h13.924c.276 0 .539.106.734.294a.986.986 0 01.304.71.986.986 0 01-.307.705 1.055 1.055 0 01-.731.291z" fill="#9ABCED" opacity=".5"/><defs><linearGradient id="paint0_linear" x1="275.542" y1="254.503" x2="275.542" y2="170.217" gradientUnits="userSpaceOnUse"><stop stop-color="#1F3A65"/><stop offset="1" stop-color="#294A7A"/></linearGradient><linearGradient id="paint1_linear" x1="11955.7" y1="8017.12" x2="11955.7" y2="7341.4" gradientUnits="userSpaceOnUse"><stop stop-color="#1F3A65"/><stop offset="1" stop-color="#294A7A"/></linearGradient><linearGradient id="paint2_linear" x1="21530.9" y1="8970.92" x2="21530.9" y2="8212.13" gradientUnits="userSpaceOnUse"><stop stop-color="#1F3A65"/><stop offset="1" stop-color="#294A7A"/></linearGradient><linearGradient id="paint4_linear" x1="270.186" y1="138.305" x2="269.246" y2="101.634" gradientUnits="userSpaceOnUse"><stop stop-color="#3F2323"/><stop offset="1" stop-color="#5E3434"/></linearGradient><linearGradient id="paint5_linear" x1="8493.77" y1="6647.85" x2="8874.86" y2="6647.85" gradientUnits="userSpaceOnUse"><stop stop-color="#1F3A65"/><stop offset="1" stop-color="#294A7A"/></linearGradient><linearGradient id="paint6_linear" x1="413.126" y1="186.199" x2="390.003" y2="232.064" gradientUnits="userSpaceOnUse"><stop stop-color="#E2E8F7"/><stop offset="1" stop-color="#fff"/></linearGradient><radialGradient id="paint3_radial" cx="0" cy="0" r="1" gradientUnits="userSpaceOnUse" gradientTransform="matrix(78.8241 0 0 171.352 236.856 231.118)"><stop stop-color="#0030AE"/><stop offset="1" stop-color="#0081F1"/></radialGradient><radialGradient id="paint7_radial" cx="0" cy="0" r="1" gradientUnits="userSpaceOnUse" gradientTransform="matrix(11.3125 0 0 29.5236 341.66 158.194)"><stop stop-color="#0030AE"/><stop offset="1" stop-color="#0081F1"/></radialGradient><radialGradient id="paint8_radial" cx="0" cy="0" r="1" gradientUnits="userSpaceOnUse" gradientTransform="matrix(11.3125 0 0 29.3637 341.66 177.713)"><stop stop-color="#0030AE"/><stop offset="1" stop-color="#0081F1"/></radialGradient><radialGradient id="paint9_radial" cx="0" cy="0" r="1" gradientUnits="userSpaceOnUse" gradientTransform="matrix(11.3125 0 0 29.3636 341.66 197.21)"><stop stop-color="#0030AE"/><stop offset="1" stop-color="#0081F1"/></radialGradient><radialGradient id="paint10_radial" cx="0" cy="0" r="1" gradientUnits="userSpaceOnUse" gradientTransform="matrix(22 0 0 51.4722 331 86.01)"><stop stop-color="#0030AE"/><stop offset="1" stop-color="#0081F1"/></radialGradient></defs></svg>