<svg width="54" height="19" fill="none" xmlns="http://www.w3.org/2000/svg"><path d="M8.996 18.432c4.464 0 7.896-3 8.544-7.416h-4.728c-.48 1.872-1.944 3.096-3.816 3.096-2.376 0-4.128-1.896-4.128-4.488 0-2.592 1.752-4.512 4.128-4.512 1.776 0 3.216 1.128 3.792 2.832h4.704C16.796 3.696 13.388.792 8.996.792 3.884.792.068 4.584.068 9.624c0 5.016 3.816 8.808 8.928 8.808zM20.502 18h4.704V1.2h-4.704V18zm13.4-4.224V1.2h-4.704V18h10.68v-4.224h-5.976zM53.212 1.2H39.436v4.176h4.56V18h4.656V5.376h4.56V1.2z" fill="#fff" fill-opacity=".95"/></svg>