<svg width="33" height="12" fill="none" xmlns="http://www.w3.org/2000/svg"><path opacity=".5" d="M5.498 11.384c2.728 0 4.825-1.809 5.221-4.47H7.83C7.537 8.041 6.643 8.78 5.499 8.78c-1.452 0-2.523-1.143-2.523-2.706 0-1.562 1.07-2.72 2.523-2.72 1.085 0 1.965.68 2.317 1.707h2.875C10.264 2.501 8.182.75 5.498.75 2.374.75.042 3.036.042 6.074c0 3.024 2.332 5.31 5.456 5.31zm7.031-.26h2.875V.995h-2.875v10.127zm8.189-2.547V.996h-2.875v10.127h6.527V8.577h-3.652zm11.8-7.581H24.1v2.517h2.786v7.61h2.846v-7.61h2.786V.996z" fill="#fff" fill-opacity=".95"/></svg>