<svg width="962" height="146" fill="none" xmlns="http://www.w3.org/2000/svg"><path d="M105.917 7.417v26.74h-36.28v110.281H36.28V34.158H0V7.418h105.917zm83.646 26.936c12.484 0 22.497 4.164 30.039 12.492 7.543 8.198 11.314 19.519 11.314 33.963v63.63h-33.16V85.297c0-7.287-1.886-12.948-5.657-16.981-3.771-4.034-8.843-6.051-15.215-6.051s-11.443 2.017-15.214 6.05c-3.772 4.034-5.657 9.695-5.657 16.982v59.141h-33.355V0h33.355v50.163c3.381-4.814 7.997-8.653 13.849-11.516 5.852-2.863 12.419-4.294 19.701-4.294zm167.133 53.872c0 3.123-.195 6.376-.585 9.759h-75.489c.521 6.766 2.666 11.971 6.438 15.615 3.901 3.513 8.647 5.27 14.239 5.27 8.322 0 14.109-3.513 17.36-10.54h35.501c-1.82 7.157-5.137 13.598-9.948 19.323-4.681 5.726-10.598 10.215-17.75 13.468-7.153 3.253-15.15 4.88-23.993 4.88-10.663 0-20.156-2.277-28.479-6.832-8.322-4.554-14.824-11.06-19.506-19.518-4.681-8.458-7.022-18.348-7.022-29.669 0-11.32 2.276-21.21 6.827-29.668 4.682-8.458 11.184-14.965 19.506-19.519 8.323-4.554 17.881-6.831 28.674-6.831 10.533 0 19.896 2.212 28.089 6.636 8.192 4.424 14.564 10.735 19.116 18.933 4.681 8.198 7.022 17.762 7.022 28.693zM322.56 79.44c0-5.725-1.95-10.28-5.851-13.663-3.902-3.383-8.778-5.075-14.63-5.075-5.592 0-10.338 1.627-14.239 4.88-3.771 3.253-6.112 7.872-7.022 13.858h41.742zM459.907 146c-9.493 0-17.946-1.627-25.358-4.88-7.412-3.253-13.264-7.677-17.555-13.272-4.292-5.726-6.697-12.102-7.217-19.129h32.965c.39 3.774 2.145 6.832 5.266 9.174 3.121 2.342 6.957 3.513 11.509 3.513 4.161 0 7.347-.78 9.558-2.342 2.34-1.691 3.511-3.839 3.511-6.441 0-3.123-1.626-5.4-4.877-6.832-3.251-1.561-8.517-3.253-15.8-5.074-7.802-1.822-14.304-3.709-19.506-5.66-5.201-2.083-9.688-5.27-13.459-9.565-3.771-4.424-5.656-10.345-5.656-17.762 0-6.246 1.69-11.907 5.071-16.981 3.511-5.205 8.583-9.304 15.215-12.297 6.762-2.993 14.759-4.49 23.992-4.49 13.654 0 24.383 3.384 32.185 10.15 7.932 6.767 12.484 15.745 13.654 26.936h-30.819c-.52-3.773-2.211-6.766-5.072-8.979-2.731-2.212-6.372-3.318-10.923-3.318-3.901 0-6.892.781-8.973 2.343-2.081 1.431-3.121 3.448-3.121 6.05 0 3.123 1.626 5.466 4.877 7.027 3.381 1.562 8.582 3.123 15.604 4.685 8.063 2.082 14.63 4.164 19.701 6.246 5.072 1.951 9.493 5.205 13.265 9.759 3.901 4.424 5.916 10.41 6.046 17.957 0 6.376-1.82 12.102-5.461 17.177-3.511 4.944-8.648 8.848-15.41 11.711-6.632 2.863-14.369 4.294-23.212 4.294zm125.154-29.864v28.302H568.09c-12.093 0-21.521-2.927-28.283-8.783-6.762-5.986-10.143-15.68-10.143-29.083V63.241H516.4V35.524h13.264V8.98h33.355v26.545h21.847v27.717h-21.847v43.722c0 3.253.78 5.595 2.34 7.026 1.561 1.432 4.162 2.147 7.803 2.147h11.899zm11.947-26.35c0-11.19 2.081-21.015 6.242-29.473 4.291-8.458 10.078-14.965 17.36-19.519 7.282-4.554 15.41-6.831 24.383-6.831 7.672 0 14.369 1.561 20.091 4.684 5.852 3.123 10.338 7.222 13.459 12.297v-15.42h33.355v108.914h-33.355v-15.419c-3.251 5.075-7.802 9.174-13.654 12.296-5.722 3.123-12.419 4.685-20.091 4.685-8.843 0-16.906-2.277-24.188-6.832-7.282-4.684-13.069-11.255-17.36-19.713-4.161-8.589-6.242-18.478-6.242-29.669zm81.535.195c0-8.328-2.341-14.899-7.022-19.714-4.552-4.814-10.143-7.222-16.775-7.222-6.632 0-12.289 2.408-16.97 7.222-4.552 4.685-6.828 11.191-6.828 19.52 0 8.327 2.276 14.963 6.828 19.908 4.681 4.815 10.338 7.222 16.97 7.222s12.223-2.407 16.775-7.222c4.681-4.814 7.022-11.386 7.022-19.714zm50.854 0c0-11.32 2.276-21.21 6.827-29.668 4.682-8.458 11.119-14.965 19.311-19.519 8.323-4.554 17.816-6.831 28.479-6.831 13.654 0 25.033 3.578 34.135 10.735 9.233 7.157 15.28 17.241 18.141 30.254h-35.501c-2.991-8.328-8.778-12.492-17.36-12.492-6.112 0-10.989 2.407-14.63 7.222-3.641 4.684-5.461 11.45-5.461 20.3 0 8.848 1.82 15.679 5.461 20.494 3.641 4.684 8.518 7.027 14.63 7.027 8.582 0 14.369-4.164 17.36-12.492h35.501c-2.861 12.752-8.908 22.772-18.141 30.059-9.232 7.287-20.611 10.93-34.135 10.93-10.663 0-20.156-2.277-28.479-6.832-8.192-4.554-14.629-11.06-19.311-19.518-4.551-8.458-6.827-18.348-6.827-29.669zm191.25 54.457l-33.16-45.673v45.673h-33.355V0h33.355v79.832l32.965-44.308h41.158l-45.254 54.653L962 144.438h-41.353z" opacity=".9" fill="#F2F8FD"/></svg>