<svg width="1279" height="213" fill="none" xmlns="http://www.w3.org/2000/svg"><path d="M54.374 161.297c-10.187 0-19.315-1.663-27.386-4.991-8.07-3.327-14.552-8.251-19.447-14.772C2.778 135.013.265 127.161 0 117.978h36.117c.53 5.191 2.315 9.183 5.358 11.978 3.043 2.662 7.012 3.992 11.907 3.992 5.027 0 8.996-1.131 11.906-3.393 2.91-2.396 4.366-5.656 4.366-9.782 0-3.46-1.19-6.321-3.572-8.584-2.249-2.262-5.093-4.125-8.533-5.589-3.307-1.464-8.07-3.128-14.288-4.991-8.996-2.795-16.339-5.59-22.027-8.384-5.69-2.795-10.584-6.92-14.685-12.377C2.447 75.392.397 68.272.397 59.488c0-13.042 4.696-23.223 14.09-30.542 9.393-7.453 21.63-11.18 36.712-11.18 15.346 0 27.716 3.727 37.109 11.18 9.393 7.32 14.42 17.567 15.082 30.742H66.677c-.264-4.525-1.918-8.052-4.96-10.58-3.044-2.662-6.946-3.993-11.709-3.993-4.101 0-7.409 1.131-9.922 3.394-2.514 2.13-3.77 5.257-3.77 9.382 0 4.525 2.116 8.052 6.35 10.58C46.899 71 53.514 73.728 62.51 76.656c8.996 3.061 16.273 5.989 21.829 8.784 5.689 2.794 10.584 6.853 14.685 12.177 4.101 5.323 6.152 12.177 6.152 20.561 0 7.985-2.051 15.238-6.152 21.759-3.969 6.521-9.79 11.712-17.463 15.571-7.673 3.859-16.736 5.789-27.187 5.789zM235.402 48.509V159.9h-33.934v-15.172c-3.44 4.924-8.136 8.917-14.09 11.978-5.821 2.928-12.303 4.391-19.447 4.391-8.467 0-15.942-1.863-22.424-5.589-6.483-3.859-11.51-9.382-15.082-16.569-3.572-7.186-5.358-15.637-5.358-25.352V48.509h33.735v60.486c0 7.453 1.919 13.242 5.755 17.368 3.837 4.125 8.996 6.188 15.479 6.188 6.615 0 11.84-2.063 15.677-6.188 3.837-4.126 5.755-9.915 5.755-17.368V48.509h33.934zm58.309 15.771c3.175-5.191 7.739-9.383 13.692-12.577 5.954-3.194 12.767-4.791 20.44-4.791 9.129 0 17.397 2.329 24.806 6.987 7.408 4.658 13.229 11.312 17.463 19.962 4.366 8.65 6.549 18.698 6.549 30.144 0 11.445-2.183 21.559-6.549 30.343-4.234 8.65-10.055 15.371-17.463 20.162-7.409 4.658-15.677 6.987-24.806 6.987-7.805 0-14.619-1.531-20.44-4.592-5.821-3.194-10.385-7.386-13.692-12.576V159.9h-33.934V12.177h33.934V64.28zm48.42 39.725c0-8.518-2.381-15.172-7.144-19.963-4.63-4.924-10.385-7.386-17.264-7.386-6.748 0-12.502 2.462-17.265 7.386-4.631 4.924-6.946 11.645-6.946 20.162 0 8.518 2.315 15.238 6.946 20.162 4.763 4.925 10.517 7.387 17.265 7.387 6.747 0 12.502-2.462 17.264-7.387 4.763-5.057 7.144-11.844 7.144-20.361zm97.379 57.492c-9.657 0-18.257-1.664-25.798-4.991-7.54-3.327-13.494-7.852-17.86-13.574-4.365-5.856-6.813-12.377-7.342-19.564h33.537c.397 3.86 2.183 6.987 5.358 9.383 3.175 2.395 7.078 3.593 11.708 3.593 4.234 0 7.475-.799 9.724-2.396 2.382-1.73 3.572-3.925 3.572-6.587 0-3.194-1.653-5.523-4.961-6.987-3.307-1.597-8.665-3.327-16.074-5.19-7.938-1.863-14.553-3.793-19.844-5.789-5.292-2.13-9.857-5.39-13.693-9.782-3.837-4.525-5.755-10.58-5.755-18.166 0-6.388 1.72-12.177 5.16-17.367 3.572-5.324 8.731-9.516 15.478-12.577 6.88-3.06 15.016-4.591 24.409-4.591 13.891 0 24.806 3.46 32.743 10.38 8.07 6.92 12.701 16.103 13.891 27.549h-31.354c-.529-3.86-2.249-6.92-5.159-9.183-2.779-2.263-6.483-3.394-11.113-3.394-3.969 0-7.012.799-9.129 2.396-2.116 1.464-3.175 3.526-3.175 6.188 0 3.194 1.654 5.59 4.961 7.187 3.44 1.597 8.732 3.194 15.876 4.79 8.202 2.13 14.883 4.26 20.043 6.389 5.159 1.996 9.657 5.323 13.494 9.981 3.969 4.525 6.02 10.647 6.152 18.365 0 6.522-1.852 12.377-5.557 17.567-3.572 5.058-8.797 9.05-15.677 11.978-6.747 2.928-14.619 4.392-23.615 4.392zm58.862-57.293c0-11.578 2.316-21.692 6.946-30.343 4.763-8.65 11.311-15.304 19.646-19.962 8.467-4.658 18.125-6.987 28.973-6.987 13.891 0 25.467 3.66 34.728 10.98 9.393 7.319 15.545 17.633 18.455 30.941h-36.117c-3.043-8.517-8.93-12.776-17.661-12.776-6.218 0-11.179 2.462-14.884 7.386-3.704 4.791-5.556 11.712-5.556 20.761 0 9.05 1.852 16.037 5.556 20.961 3.705 4.791 8.666 7.186 14.884 7.186 8.731 0 14.618-4.258 17.661-12.776h36.117c-2.91 13.043-9.062 23.29-18.455 30.743-9.393 7.452-20.969 11.179-34.728 11.179-10.848 0-20.506-2.329-28.973-6.987-8.335-4.658-14.883-11.312-19.646-19.963-4.63-8.65-6.946-18.764-6.946-30.343zm160.834-37.13c3.969-6.122 8.93-10.913 14.883-14.373 5.953-3.593 12.568-5.39 19.845-5.39v36.132h-9.327c-8.467 0-14.818 1.864-19.051 5.59-4.233 3.593-6.35 9.981-6.35 19.164V159.9h-33.934V48.509h33.934v18.565zM727.22 36.93c-5.954 0-10.849-1.73-14.685-5.19-3.705-3.593-5.557-7.985-5.557-13.175 0-5.323 1.852-9.715 5.557-13.175C716.371 1.797 721.266 0 727.22 0c5.821 0 10.583 1.797 14.288 5.39 3.836 3.46 5.755 7.852 5.755 13.175 0 5.19-1.919 9.582-5.755 13.175-3.705 3.46-8.467 5.19-14.288 5.19zm16.867 11.579V159.9h-33.934V48.509h33.934zm58.526 15.771c3.308-5.191 7.872-9.383 13.693-12.577 5.821-3.194 12.634-4.791 20.44-4.791 9.128 0 17.397 2.329 24.805 6.987 7.409 4.658 13.23 11.312 17.463 19.962 4.366 8.65 6.549 18.698 6.549 30.144 0 11.445-2.183 21.559-6.549 30.343-4.233 8.65-10.054 15.371-17.463 20.162-7.408 4.658-15.677 6.987-24.805 6.987-7.674 0-14.487-1.597-20.44-4.791-5.821-3.194-10.385-7.32-13.693-12.377V213h-33.934V48.509h33.934v15.77zm48.421 39.725c0-8.518-2.382-15.172-7.144-19.963-4.631-4.924-10.386-7.386-17.265-7.386-6.747 0-12.502 2.462-17.265 7.386-4.63 4.924-6.945 11.645-6.945 20.162 0 8.518 2.315 15.238 6.945 20.162 4.763 4.925 10.518 7.387 17.265 7.387s12.502-2.462 17.265-7.387c4.762-5.057 7.144-11.844 7.144-20.361zm114.048 26.949V159.9h-17.265c-12.303 0-21.895-2.995-28.774-8.983-6.88-6.122-10.319-16.037-10.319-29.745V76.856h-13.495V48.509h13.495v-27.15h33.934v27.15h22.226v28.347h-22.226v44.716c0 3.327.794 5.722 2.381 7.186 1.588 1.464 4.234 2.196 7.938 2.196h12.105zm35.968-94.024c-5.953 0-10.848-1.73-14.685-5.19-3.704-3.593-5.556-7.985-5.556-13.175 0-5.323 1.852-9.715 5.556-13.175C990.202 1.797 995.097 0 1001.05 0c5.82 0 10.58 1.797 14.29 5.39 3.83 3.46 5.75 7.852 5.75 13.175 0 5.19-1.92 9.582-5.75 13.175-3.71 3.46-8.47 5.19-14.29 5.19zm16.87 11.579V159.9h-33.936V48.509h33.936zm74.99 112.988c-10.84 0-20.63-2.329-29.37-6.987-8.59-4.658-15.41-11.312-20.44-19.963-4.89-8.65-7.34-18.764-7.34-30.343 0-11.445 2.52-21.493 7.54-30.143 5.03-8.784 11.91-15.504 20.64-20.162 8.73-4.658 18.52-6.987 29.37-6.987 10.85 0 20.64 2.329 29.37 6.987 8.73 4.658 15.61 11.378 20.64 20.162 5.03 8.65 7.54 18.698 7.54 30.143s-2.58 21.56-7.74 30.343c-5.03 8.651-11.97 15.305-20.84 19.963-8.73 4.658-18.52 6.987-29.37 6.987zm0-29.545c6.49 0 11.98-2.395 16.48-7.186 4.63-4.791 6.94-11.645 6.94-20.562 0-8.916-2.25-15.77-6.75-20.561-4.36-4.791-9.79-7.187-16.27-7.187-6.61 0-12.1 2.396-16.47 7.187-4.37 4.658-6.55 11.512-6.55 20.561 0 8.917 2.12 15.771 6.35 20.562 4.37 4.791 9.79 7.186 16.27 7.186zm143.42-84.641c12.97 0 23.29 4.259 30.96 12.776 7.81 8.384 11.71 19.963 11.71 34.735V159.9h-33.74V99.413c0-7.452-1.91-13.242-5.75-17.367-3.84-4.126-9-6.189-15.48-6.189s-11.64 2.063-15.48 6.189c-3.83 4.125-5.75 9.915-5.75 17.367V159.9h-33.94V48.509h33.94V63.28c3.44-4.924 8.07-8.783 13.89-11.578 5.82-2.928 12.37-4.392 19.64-4.392z" opacity=".9" fill="#F2F8FD"/></svg>