<svg width="64" height="64" viewBox="0 0 64 64" fill="none" xmlns="http://www.w3.org/2000/svg">
<path d="M13.6589 15.6211L27.6649 10.5253L28.3489 12.4053L14.3429 17.5011L13.6589 15.6211Z" fill="#68607C"/>
<path d="M34.2871 13.7101L35.7011 12.2961L51.6984 28.2934L50.2844 29.7074L34.2871 13.7101Z" fill="#44454E" fill-opacity="0.85"/>
<path d="M36.8618 30.6456L37.1337 28.6646L49.1377 30.312L48.8658 32.293L36.8618 30.6456Z" fill="#44454E" fill-opacity="0.85"/>
<path d="M12.5427 20.4016L13.4367 18.6136L29.4295 26.61L28.5355 28.398L12.5427 20.4016Z" fill="#44454E" fill-opacity="0.85"/>
<path d="M13.2134 46.7454L14.1098 44.9565L28.4299 52.1325L27.5335 53.9214L13.2134 46.7454Z" fill="#68607C"/>
<path d="M31 32.9999H33V49.9999H31V32.9999Z" fill="#44454E" fill-opacity="0.85"/>
<path d="M11.7327 39.4487L28.5825 13.4615L30.2605 14.5495L13.4107 40.5367L11.7327 39.4487Z" fill="#44454E" fill-opacity="0.85"/>
<path d="M34.6338 50.7803L50.4107 34.2727L51.8567 35.6547L36.0798 52.1623L34.6338 50.7803Z" fill="#44454E" fill-opacity="0.85"/>
<path d="M11.696 22.783L13.416 21.761L29.8994 49.502L28.1794 50.524L11.696 22.783Z" fill="#44454E" fill-opacity="0.85"/>
<path d="M17 44C17 45.13 16.74 46.19 16.26 47.13C15.12 49.43 12.74 51 10 51C6.13 51 3 47.87 3 44C3 40.13 6.13 37 10 37C11.41 37 12.71 37.41 13.8 38.12C15.73 39.37 17 41.53 17 44Z" fill="#B7CAE5"/>
<path d="M37.31 49.45C38.37 50.67 39 52.26 39 54C39 57.87 35.87 61 32 61C28.13 61 25 57.87 25 54C25 53.19 25.14 52.42 25.39 51.7C25.87 50.29 26.79 49.1 27.99 48.26C29.12 47.46 30.5 47 32 47C34.13 47 36.04 47.95 37.31 49.45Z" fill="#396EC2"/>
<path d="M54 25C57.87 25 61 28.13 61 32C61 35.87 57.87 39 54 39C52.12 39 50.42 38.27 49.17 37.05C47.83 35.79 47 33.99 47 32C47 31.68 47.02 31.37 47.07 31.06C47.27 29.5 47.99 28.11 49.05 27.05C50.32 25.78 52.06 25 54 25Z" fill="#BACCFF"/>
<path d="M38.93 29.94C38.48 33.36 35.55 36 32 36C28.13 36 25 32.87 25 29C25 27.87 25.26 26.81 25.74 25.87C26.88 23.57 29.26 22 32 22C35.87 22 39 25.13 39 29C39 29.32 38.98 29.63 38.93 29.94Z" fill="#7A92E3"/>
<path d="M32 3C35.87 3 39 6.13 39 10C39 11.94 38.22 13.68 36.95 14.95C35.68 16.22 33.94 17 32 17C30.59 17 29.29 16.59 28.2 15.88C26.93 15.06 25.94 13.84 25.42 12.39C25.15 11.65 25 10.84 25 10C25 6.13 28.13 3 32 3Z" fill="#98B1E2"/>
<path d="M16.58 15.61C16.85 16.35 17 17.16 17 18C17 19.13 16.74 20.19 16.26 21.13C15.66 22.33 14.73 23.33 13.58 24.01C12.54 24.64 11.31 25 10 25C6.13 25 3 21.87 3 18C3 14.13 6.13 11 10 11C13.03 11 15.6 12.92 16.58 15.61Z" fill="url(#paint0_radial)"/>
<defs>
<radialGradient id="paint0_radial" cx="0" cy="0" r="1" gradientUnits="userSpaceOnUse" gradientTransform="translate(3 18.0093) scale(14 51.4722)">
<stop stop-color="#0030AE"/>
<stop offset="1" stop-color="#0081F1"/>
</radialGradient>
</defs>
</svg>
