<svg width="104" height="104" viewBox="0 0 104 104" fill="none" xmlns="http://www.w3.org/2000/svg">
<path d="M50.375 65H53.625V79.625H50.375V65Z" fill="#68607C"/>
<path d="M52 100.75C58.2822 100.75 63.375 95.6572 63.375 89.375C63.375 83.0928 58.2822 78 52 78C45.7178 78 40.625 83.0928 40.625 89.375C40.625 95.6572 45.7178 100.75 52 100.75Z" fill="url(#paint0_radial)"/>
<path d="M91 21.125H87.75V29.25H65V19.5H61.75V29.25H40.625V19.5H37.375V29.25H14.625V19.5H11.375V32.5H50.375V42.25H53.625V32.5H91V21.125Z" fill="#68607C"/>
<path opacity="0.1" d="M99.125 40.625V66.625H4.875V40.625H99.125Z" fill="#1B4FD8"/>
<path d="M92.625 50.375V56.875L86.125 60.125L79.625 56.875V50.375L86.125 47.125L92.625 50.375Z" fill="#98B1E2"/>
<path d="M63.375 60.125C66.9649 60.125 69.875 57.2149 69.875 53.625C69.875 50.0351 66.9649 47.125 63.375 47.125C59.7851 47.125 56.875 50.0351 56.875 53.625C56.875 57.2149 59.7851 60.125 63.375 60.125Z" fill="#7A92E3"/>
<path d="M34.125 47.125H47.125V60.125H34.125V47.125Z" fill="#BACCFF"/>
<path d="M17.875 47.125L24.375 60.125H11.375L17.875 47.125Z" fill="#98B1E2"/>
<path d="M97.5 9.75V19.5L89.375 24.375L81.25 19.5V9.75L89.375 4.875L97.5 9.75Z" fill="#6D8EE6"/>
<path d="M63.375 22.75C67.8623 22.75 71.5 19.1123 71.5 14.625C71.5 10.1377 67.8623 6.5 63.375 6.5C58.8877 6.5 55.25 10.1377 55.25 14.625C55.25 19.1123 58.8877 22.75 63.375 22.75Z" fill="#B7CAE5"/>
<path d="M30.875 6.5H47.125V22.75H30.875V6.5Z" fill="#7A92E3"/>
<path d="M13 4.875L21.125 22.75H4.875L13 4.875Z" fill="#98B1E2"/>
<path d="M50.3752 94.9227L45.9763 90.5238L48.2741 88.2261L50.3752 90.3272L55.7263 84.9761L58.0241 87.2738L50.3752 94.9227Z" fill="white" fill-opacity="0.95"/>
<defs>
<radialGradient id="paint0_radial" cx="0" cy="0" r="1" gradientUnits="userSpaceOnUse" gradientTransform="translate(40.625 89.3901) scale(22.75 83.6424)">
<stop stop-color="#0030AE"/>
<stop offset="1" stop-color="#0081F1"/>
</radialGradient>
</defs>
</svg>
