<svg width="104" height="104" viewBox="0 0 104 104" fill="none" xmlns="http://www.w3.org/2000/svg">
<g clip-path="url(#clip0)">
<path opacity="0.8" d="M78.1935 41.0301L74.1818 40.7238C73.9779 40.016 73.7034 39.3392 73.3638 38.7013L76.0504 35.6671C76.3392 35.3402 76.3242 34.8459 76.0163 34.5372L73.3297 31.8506C73.0242 31.5451 72.5362 31.5268 72.2085 31.8077L69.1561 34.4269C68.5237 34.077 67.8508 33.7898 67.1471 33.5748L66.9011 29.5313C66.8749 29.0957 66.5139 28.7561 66.0775 28.7561H62.2784C61.8468 28.7561 61.4881 29.0886 61.4556 29.5186L61.1493 33.5295C60.3876 33.7493 59.6608 34.0508 58.9808 34.4269L55.9284 31.8077C55.6007 31.5268 55.1127 31.5459 54.808 31.8506L52.1214 34.5372C51.8127 34.8459 51.7977 35.341 52.0865 35.6671L49.9434 41.0301C49.5133 41.0634 49.1816 41.422 49.1816 41.8529V45.6519C49.1816 46.0883 49.5212 46.4494 49.9561 46.4755L54.0003 46.7215C54.2153 47.4261 54.5026 48.0982 54.8525 48.7305L52.2325 51.7837C51.9524 52.1107 51.9706 52.5994 52.2753 52.9041L54.962 55.5907C55.2706 55.8994 55.7657 55.9145 56.0926 55.6249L59.1268 52.9382C59.7647 53.2778 60.4416 53.5532 61.1485 53.7571L61.4556 57.768C61.4881 58.198 61.8468 58.5305 62.2776 58.5305H66.0775C66.5131 58.5305 66.8741 58.1909 66.9011 57.7553L67.1471 53.7118C67.7969 53.5135 68.4198 53.2532 69.0101 52.939L72.0443 55.6257C72.3712 55.9145 72.8663 55.8994 73.1741 55.5907L75.8616 52.9041C76.1663 52.5994 76.1845 52.1114 75.9036 51.7837L73.2844 48.7313C73.6343 48.0982 73.9216 47.4261 74.1366 46.7223L78.1808 46.4763C78.6157 46.4494 78.9552 46.0883 78.9552 45.6527V41.8529C78.9552 41.422 78.6236 41.0634 78.1935 41.0301ZM64.0684 48.0077C61.6579 48.0077 59.7036 46.0542 59.7036 43.6429C59.7036 41.2324 61.6579 39.2781 64.0684 39.2781C66.479 39.2781 68.4332 41.2324 68.4332 43.6429C68.4332 46.0534 66.479 48.0077 64.0684 48.0077Z" fill="#7899D6"/>
<path d="M57.6154 22.7004L53.5617 22.3909C53.1768 20.8461 52.577 19.3885 51.7986 18.046L54.5249 14.9666C54.9415 14.4953 54.9201 13.7812 54.4749 13.3368L50.6005 9.46239C50.1609 9.02282 49.4571 8.99584 48.985 9.4005L45.8993 12.0491C44.5679 11.2485 43.1174 10.628 41.5797 10.2193L41.3306 6.11718C41.2925 5.48956 40.772 5 40.1436 5H34.664C34.0427 5 33.5253 5.47925 33.4777 6.09894L33.1683 10.1527C31.5362 10.5597 29.9976 11.204 28.5932 12.0483L25.5067 9.4005C25.0354 8.99584 24.3308 9.02282 23.8912 9.46239L20.0168 13.3368C19.5724 13.7812 19.5502 14.4953 19.9676 14.9666L22.6939 18.046C21.9147 19.3885 21.3157 20.8461 20.9308 22.3909L16.8763 22.7004C16.2566 22.748 15.7773 23.2645 15.7773 23.8866V29.3654C15.7773 29.9946 16.2669 30.5151 16.8953 30.5532L20.9967 30.8024C21.4061 32.3401 22.0258 33.7905 22.8264 35.1211L20.1786 38.2077C19.7732 38.679 19.8002 39.3836 20.2397 39.8232L24.1142 43.6976C24.5585 44.1419 25.2734 44.1641 25.7439 43.7468L28.8233 41.0205C30.1659 41.7996 31.6242 42.3995 33.1683 42.7835L33.4777 46.8381C33.5253 47.4578 34.0427 47.937 34.664 47.937H40.1436C40.772 47.937 41.2925 47.4475 41.3306 46.819L41.5797 42.7177C43.0293 42.3321 44.4004 41.756 45.6684 41.0205L48.7478 43.7468C49.2191 44.1641 49.9332 44.1419 50.3775 43.6976L54.252 39.8232C54.6916 39.3836 54.7185 38.679 54.3139 38.2069L51.6653 35.1211C52.4659 33.7905 53.0864 32.3393 53.495 30.8024L57.5972 30.5532C58.2248 30.5151 58.7144 29.9946 58.7144 29.3654V23.8866C58.7144 23.2645 58.2351 22.748 57.6154 22.7004ZM37.2459 36.0749C31.9408 36.0749 27.6403 31.7736 27.6403 26.4685C27.6403 21.1635 31.9408 16.8629 37.2459 16.8629C42.5509 16.8629 46.8514 21.1635 46.8514 26.4685C46.8514 31.7736 42.5509 36.0749 37.2459 36.0749Z" fill="#A7C7D3"/>
<path d="M57.6154 22.7004L53.5617 22.3909C53.1768 20.8461 52.577 19.3885 51.7986 18.046L54.5249 14.9666C54.9415 14.4953 54.9201 13.7812 54.4749 13.3368L50.6005 9.46239C50.1609 9.02282 49.4571 8.99584 48.985 9.4005L45.8993 12.0491C44.5679 11.2485 43.1174 10.628 41.5797 10.2193L41.3306 6.11718C41.2925 5.48956 40.772 5 40.1436 5H34.664C34.0427 5 33.5253 5.47925 33.4777 6.09894L33.1683 10.1527C31.5362 10.5597 29.9976 11.204 28.5932 12.0483L25.5067 9.4005C25.0354 8.99584 24.3308 9.02282 23.8912 9.46239L20.0168 13.3368C19.5724 13.7812 19.5502 14.4953 19.9676 14.9666L22.6939 18.046C21.9147 19.3885 21.3157 20.8461 20.9308 22.3909L16.8763 22.7004C16.2566 22.748 15.7773 23.2645 15.7773 23.8866V29.3654C15.7773 29.9946 16.2669 30.5151 16.8953 30.5532L20.9967 30.8024C21.4061 32.3401 22.0258 33.7905 22.8264 35.1211L20.1786 38.2077C19.7732 38.679 19.8002 39.3836 20.2397 39.8232L24.1142 43.6976C24.5585 44.1419 25.2734 44.1641 25.7439 43.7468L28.8233 41.0205C30.1659 41.7996 31.6242 42.3995 33.1683 42.7835L33.4777 46.8381C33.5253 47.4578 34.0427 47.937 34.664 47.937H40.1436C40.772 47.937 41.2925 47.4475 41.3306 46.819L41.5797 42.7177C43.0293 42.3321 44.4004 41.756 45.6684 41.0205L48.7478 43.7468C49.2191 44.1641 49.9332 44.1419 50.3775 43.6976L54.252 39.8232C54.6916 39.3836 54.7185 38.679 54.3139 38.2069L51.6653 35.1211C52.4659 33.7905 53.0864 32.3393 53.495 30.8024L57.5972 30.5532C58.2248 30.5151 58.7144 29.9946 58.7144 29.3654V23.8866C58.7144 23.2645 58.2351 22.748 57.6154 22.7004ZM37.2459 36.0749C31.9408 36.0749 27.6403 31.7736 27.6403 26.4685C27.6403 21.1635 31.9408 16.8629 37.2459 16.8629C42.5509 16.8629 46.8514 21.1635 46.8514 26.4685C46.8514 31.7736 42.5509 36.0749 37.2459 36.0749Z" fill="#B7CAE5"/>
<path d="M24.265 49.2729C23.8151 49.3213 23.3628 49.2182 22.9788 48.981L13.6842 43.0245C12.0362 41.9684 9.86535 42.2731 8.57122 43.741L7.86584 44.5408C6.81689 45.7302 6.23212 47.2584 6.21942 48.8445L6.11865 60.9613L11.9164 61.2866L16.7216 60.8185L16.847 51.4621L22.1623 54.4177C22.5392 54.6272 22.9724 54.7113 23.4001 54.6589L31.1799 53.7012C34.0602 53.3473 36.2231 50.9011 36.2231 47.9994L24.265 49.2729Z" fill="#7A92E3"/>
<path d="M32.5939 48.3859C31.7123 49.2786 26.7294 53.6291 20.1922 50.7671L17.1731 49.0881C16.1352 48.5113 14.857 49.2516 14.8411 50.4394C14.7911 54.1837 11.7673 57.2076 8.02215 57.2583L6.1488 57.2837L6.11865 60.9606L16.7216 60.8178L16.847 51.4622L22.1623 54.4178C22.5392 54.6272 22.9724 54.7114 23.4001 54.659L31.1799 53.7013C34.0602 53.3466 36.2231 50.9012 36.2231 47.9995L32.5939 48.3859Z" fill="url(#paint0_radial)"/>
<path d="M16.7216 60.8176L27.5419 72.0728C28.5401 73.0852 28.7234 74.646 27.9879 75.8623L21.5387 91.5537H17.815L20.934 77.6706C21.0824 77.2993 21.0293 76.8779 20.7944 76.5542L6.11865 60.9604L16.7216 60.8176Z" fill="#44454E"/>
<path d="M6.11858 60.9604L16.7215 60.8176L6.11858 91.5537H2.17432L6.11858 60.9604Z" fill="#44454E" fill-opacity="0.85"/>
<path opacity="0.5" d="M9.01571 35.6446L8.68008 39.1937C8.52298 40.8616 9.74728 42.3414 11.4151 42.4985L12.8195 42.631C14.4874 42.7889 15.9672 41.5646 16.1243 39.8967L16.4599 36.3476C16.617 34.6798 15.3927 33.2 13.7249 33.0429L12.3205 32.9096C10.6526 32.7525 9.17282 33.9768 9.01571 35.6446Z" fill="#B7CAE5"/>
<path d="M7.72428 98.3326H1.55517C0.696654 98.3326 0 97.6367 0 96.7774C0 95.9181 0.696654 95.2214 1.55517 95.2214H7.72428C8.5836 95.2214 9.28025 95.9181 9.28025 96.7774C9.28025 97.6367 8.5836 98.3326 7.72428 98.3326Z" fill="#44454E"/>
<path d="M23.4235 98.3326H17.2544C16.3959 98.3326 15.6992 97.6367 15.6992 96.7774C15.6992 95.9181 16.3959 95.2214 17.2544 95.2214H23.4235C24.2828 95.2214 24.9795 95.9181 24.9795 96.7774C24.9795 97.6367 24.2828 98.3326 23.4235 98.3326Z" fill="#44454E"/>
<path d="M95.2991 47.083L75.4278 36.2897C74.5606 39.4429 75.8896 42.7881 78.6841 44.4861L88.684 50.5623L88.4912 62.9291L93.8732 65.5404L98.1754 66.898V51.9191C98.1762 49.9014 97.0717 48.0455 95.2991 47.083Z" fill="#7A92E3"/>
<path d="M85.6607 48.7247C85.6925 46.6943 84.6459 44.7987 82.9098 43.7434L75.7116 39.3699C75.5394 39.2651 75.3728 39.1541 75.2109 39.0366C75.4569 41.2448 76.701 43.2808 78.6847 44.4861L85.6607 48.7247Z" fill="url(#paint1_radial)"/>
<path d="M95.2984 47.0823L95.2032 47.0308V54.594C95.2032 58.0233 91.7255 60.3568 88.5525 59.0564L88.4922 62.9292L98.1763 66.8981V51.9192C98.1763 49.9015 97.0718 48.0456 95.2984 47.0823Z" fill="url(#paint2_radial)"/>
<path d="M88.4924 62.9292L79.6589 75.2087C79.2058 75.8379 79.0003 76.6123 79.0797 77.3844L80.573 91.7697H84.0657L84.9711 80.2765C85.033 79.4838 85.3916 78.7435 85.9748 78.2032L98.1766 66.8981L88.4924 62.9292Z" fill="#44454E"/>
<path d="M98.1767 66.8981L95.4417 77.9398C95.2695 78.6333 95.3584 79.3656 95.6908 79.998L101.881 91.7697H98.1759L88.668 80.701C88.0879 80.0266 87.7872 79.1569 87.8261 78.2691L88.4918 62.9292L98.1767 66.8981Z" fill="#44454E" fill-opacity="0.85"/>
<path opacity="0.5" d="M93.1538 38.5039L91.5288 41.6769C90.7647 43.1678 91.3542 44.9959 92.8459 45.7592L94.1012 46.4027C95.5921 47.166 97.4202 46.5765 98.1835 45.0856L99.8093 41.9125C100.573 40.4216 99.983 38.5935 98.4921 37.8302L97.2361 37.1867C95.7452 36.4234 93.9179 37.0129 93.1538 38.5039Z" fill="#B7CAE5"/>
<path d="M102.445 98.3326H96.2757C95.4164 98.3326 94.7197 97.6367 94.7197 96.7774C94.7197 95.9181 95.4164 95.2214 96.2757 95.2214H102.445C103.303 95.2214 104 95.9181 104 96.7774C104 97.6367 103.303 98.3326 102.445 98.3326Z" fill="#44454E"/>
<path d="M84.2965 98.3326H78.1274C77.2681 98.3326 76.5723 97.6367 76.5723 96.7774C76.5723 95.9181 77.2681 95.2214 78.1274 95.2214H84.2965C85.1551 95.2214 85.8517 95.9181 85.8517 96.7774C85.8517 97.6367 85.1551 98.3326 84.2965 98.3326Z" fill="#44454E"/>
</g>
<defs>
<radialGradient id="paint0_radial" cx="0" cy="0" r="1" gradientUnits="userSpaceOnUse" gradientTransform="translate(6.11865 54.4887) scale(30.1045 47.6526)">
<stop stop-color="#0030AE"/>
<stop offset="1" stop-color="#0081F1"/>
</radialGradient>
<radialGradient id="paint1_radial" cx="0" cy="0" r="1" gradientUnits="userSpaceOnUse" gradientTransform="translate(75.2109 43.8871) scale(10.4505 35.6191)">
<stop stop-color="#0030AE"/>
<stop offset="1" stop-color="#0081F1"/>
</radialGradient>
<radialGradient id="paint2_radial" cx="0" cy="0" r="1" gradientUnits="userSpaceOnUse" gradientTransform="translate(88.4922 56.9777) scale(9.68412 73.044)">
<stop stop-color="#0030AE"/>
<stop offset="1" stop-color="#0081F1"/>
</radialGradient>
<clipPath id="clip0">
<path d="M0 0H104V104H0V0Z" fill="white"/>
</clipPath>
</defs>
</svg>
